<svg width="91" height="32" viewBox="0 0 91 32" fill="none" xmlns="http://www.w3.org/2000/svg">
<g id="Frame">
<path id="Vector" d="M5.79851 31.5982C5.5652 31.5982 5.3375 31.5951 5.10601 31.5895C4.62644 31.5829 4.148 31.5384 3.67462 31.4565C3.23319 31.3755 2.80558 31.2249 2.40588 31.0096C2.00985 30.7961 1.64862 30.5161 1.33605 30.1804C1.01896 29.8487 0.754979 29.464 0.554549 29.0414C0.35191 28.6161 0.211667 28.1604 0.138713 27.6896C0.0599319 27.1842 0.0173095 26.6728 0.011207 26.1603C0.00635918 25.9883 0 25.4155 0 25.4155V6.57378C0 6.57378 0.00676785 6.00983 0.0112449 5.84416C0.0170907 5.33249 0.0594662 4.82203 0.138011 4.31722C0.211098 3.84538 0.351445 3.38823 0.554196 2.96154C0.753887 2.53929 1.01641 2.15424 1.33159 1.82131C1.64641 1.48521 2.00879 1.2038 2.40551 0.98734C2.80429 0.772732 3.2311 0.623167 3.67162 0.543676C4.14657 0.460937 4.62666 0.416214 5.10788 0.409857L5.79888 0.399902H84.4992L85.1984 0.410257C85.6753 0.416292 86.151 0.460625 86.6216 0.542876C87.0666 0.623372 87.4978 0.773971 87.9012 0.989728C88.696 1.42597 89.3426 2.11615 89.7506 2.96353C89.9501 3.38726 90.0883 3.8407 90.1605 4.30847C90.24 4.81742 90.2843 5.33188 90.2934 5.84776C90.2958 6.07874 90.2958 6.32686 90.2958 6.57378C90.3018 6.87966 90.3018 7.17078 90.3018 7.4643V24.5347C90.3018 24.8309 90.3018 25.1202 90.2958 25.4115C90.2958 25.6768 90.2958 25.9198 90.2927 26.1699C90.2838 26.6765 90.2402 27.1819 90.1619 27.6817C90.0904 28.1557 89.951 28.6151 89.7484 29.0438C89.5465 29.4618 89.284 29.8432 88.9707 30.1741C88.6578 30.5115 88.2959 30.7933 87.8988 31.0081C87.4968 31.225 87.0662 31.3763 86.6216 31.4565C86.1483 31.5389 85.6697 31.5833 85.1902 31.5895C84.9658 31.5951 84.7309 31.5982 84.5029 31.5982L83.6728 31.5999L5.79851 31.5982Z" fill="#121212"/>
<path id="Vector_2" fill-rule="evenodd" clip-rule="evenodd" d="M56.5698 21.9748C55.3522 21.9748 54.4615 21.3813 54.3588 20.4772H52.942C53.0313 22.1261 54.4162 23.1692 56.4672 23.1692C58.6593 23.1692 60.0375 22.101 60.0375 20.3955C60.0375 19.062 59.2492 18.3107 57.3516 17.8683L56.3327 17.6219C55.1407 17.3314 54.6533 16.9522 54.6533 16.3077C54.6533 15.499 55.4163 14.9435 56.5312 14.9435C57.6462 14.9435 58.409 15.4926 58.4928 16.4023H59.8899C59.8449 14.8295 58.5051 13.749 56.5508 13.749C54.5762 13.749 53.1856 14.8295 53.1856 16.4023C53.1856 17.6727 53.9741 18.4555 55.6724 18.8598L56.8709 19.1445C58.0695 19.4348 58.5757 19.8585 58.5757 20.5661C58.5757 21.3813 57.7363 21.9748 56.5698 21.9748ZM32.4569 20.5534H28.9315L28.085 23.0174H26.5918L29.931 13.9011H31.4821L34.8213 23.0174H33.3025L32.4569 20.5534ZM29.2967 19.4162H32.0911L30.7137 15.4173H30.6751L29.2967 19.4162ZM39.2186 23.0869C40.911 23.0869 42.0324 21.7599 42.0324 19.6944C42.0324 17.6349 40.9044 16.3014 39.1931 16.3014C38.3125 16.2734 37.4876 16.7249 37.0461 17.4764H37.0207V16.371H35.681V25.2162H37.065V21.9241H37.097C37.5197 22.6804 38.3437 23.132 39.2186 23.0869ZM40.6098 19.6944C40.6098 18.3488 39.9043 17.4642 38.8279 17.4642C37.7704 17.4642 37.0591 18.3675 37.0591 19.6944C37.0591 21.0336 37.7704 21.9306 38.8279 21.9306C39.9043 21.9306 40.6098 21.0523 40.6098 19.6944ZM46.64 23.0869C48.3325 23.0869 49.4539 21.7599 49.4539 19.6944C49.4539 17.6349 48.3258 16.3014 46.6145 16.3014C45.734 16.2734 44.9091 16.7249 44.4676 17.4764H44.4421V16.371H43.1024V25.2162H44.4864V21.9241H44.5185C44.9412 22.6804 45.7652 23.132 46.64 23.0869ZM48.0314 19.6944C48.0314 18.3488 47.3258 17.4642 46.2495 17.4642C45.1919 17.4642 44.4807 18.3675 44.4807 19.6944C44.4807 21.0336 45.1919 21.9306 46.2495 21.9306C47.3258 21.9306 48.0314 21.0523 48.0314 19.6944ZM63.0244 14.7979V16.3709H64.3066V17.4512H63.0244V21.1153C63.0244 21.6846 63.2812 21.9498 63.8449 21.9498C63.997 21.9472 64.1489 21.9367 64.3001 21.9182V22.9922C64.0467 23.0388 63.7891 23.06 63.5313 23.0553C62.1662 23.0553 61.6339 22.5499 61.6339 21.2608V17.4512H60.6535V16.3709H61.6339V14.7979H63.0244ZM68.2473 16.2891C66.2987 16.2891 65.0494 17.6031 65.0494 19.6944C65.0494 21.7913 66.2864 23.0998 68.2473 23.0998C70.2087 23.0998 71.446 21.7913 71.446 19.6944C71.446 17.6031 70.2022 16.2891 68.2473 16.2891ZM70.0356 19.6944C70.0356 18.2599 69.3687 17.4133 68.2473 17.4133C67.1257 17.4133 66.4595 18.2664 66.4595 19.6944C66.4595 21.1347 67.1257 21.9749 68.2473 21.9749C69.3687 21.9749 70.0356 21.1347 70.0356 19.6944ZM73.907 16.3709H72.5871L72.587 23.0174H73.9712V19.0751C73.9249 18.6762 74.058 18.2774 74.3353 17.9834C74.6126 17.6895 75.0064 17.5296 75.4133 17.5459C75.6238 17.5398 75.8338 17.5676 76.0352 17.6284V16.3523C75.8795 16.3178 75.7205 16.3008 75.561 16.3013C74.8002 16.2727 74.1232 16.7739 73.9391 17.5021H73.907V16.3709ZM82.4165 21.0652C82.2302 22.2717 81.0383 23.0998 79.5131 23.0998C77.5515 23.0998 76.3341 21.8042 76.3341 19.7259C76.3341 17.6411 77.5582 16.2891 79.4549 16.2891C81.3204 16.2891 82.4936 17.5523 82.4936 19.5676V20.0349H77.7312V20.1175C77.6867 20.6122 77.86 21.102 78.2071 21.4622C78.5541 21.8224 79.0415 22.0182 79.5451 22C80.2168 22.062 80.8499 21.6819 81.1022 21.0652H82.4165ZM81.1089 19.0815H77.7377C77.7365 18.6327 77.9172 18.2022 78.2399 17.8854C78.5622 17.5686 78.9996 17.3919 79.455 17.3946C79.9066 17.385 80.3419 17.5617 80.6558 17.8819C80.9698 18.2022 81.1339 18.6369 81.1089 19.0815Z" fill="white"/>
<path id="Vector_3" fill-rule="evenodd" clip-rule="evenodd" d="M44.9627 6.82373H45.6247V11.4199H44.9627V6.82373ZM30.6919 7.64001C30.2869 7.2184 29.7113 6.99803 29.1238 7.0396H27.5186V11.42H29.1238C30.4475 11.42 31.2148 10.6155 31.2148 9.21615C31.2888 8.64008 31.0969 8.06164 30.6919 7.64001ZM29.0466 10.8004H28.2087V7.65858H29.0466C29.4643 7.63572 29.8704 7.79807 30.154 8.10119C30.4376 8.40432 30.569 8.8165 30.5121 9.22503C30.5734 9.63521 30.4439 10.0508 30.1598 10.3565C29.8753 10.6621 29.4666 10.8251 29.0466 10.8004ZM31.9943 9.76562C31.9369 9.1731 32.2252 8.59967 32.7382 8.28583C33.2512 7.97198 33.9005 7.97198 34.4136 8.28583C34.9267 8.59967 35.2148 9.1731 35.1575 9.76562C35.216 10.3588 34.9282 10.9333 34.4144 11.2478C33.901 11.5624 33.2508 11.5624 32.7373 11.2478C32.2236 10.9333 31.9358 10.3588 31.9943 9.76562ZM33.5769 8.62995C34.1501 8.62995 34.4767 9.04898 34.4767 9.76553C34.4767 10.485 34.1501 10.9036 33.5769 10.9036C33.0017 10.9036 32.678 10.4878 32.678 9.76553C32.678 9.04898 33.0017 8.62995 33.5769 8.62995ZM39.3619 11.4199H38.6755L37.9823 8.98521H37.93L37.2397 11.4199H36.5598L35.6352 8.11418H36.3066L36.9073 10.6366H36.9568L37.6463 8.11418H38.2813L38.9708 10.6366H39.0232L39.6208 8.11418H40.2827L39.3619 11.4199ZM41.6973 8.11415H41.0603V11.4199H41.722V9.48595C41.6983 9.26596 41.7732 9.04672 41.9271 8.8857C42.081 8.72468 42.2986 8.63795 42.5228 8.64824C43.0122 8.64824 43.2465 8.91243 43.2465 9.44366V11.4198H43.9083V9.27983C43.9568 8.95663 43.8537 8.6292 43.6278 8.39001C43.402 8.15082 43.078 8.02584 42.7475 8.05033C42.3206 8.01613 41.9188 8.25264 41.7468 8.63928H41.6973V8.11415ZM47.2888 8.28574C46.7757 8.59958 46.4874 9.17303 46.5448 9.76562C46.4863 10.3588 46.7743 10.9333 47.288 11.2478C47.8014 11.5623 48.4517 11.5623 48.9652 11.2478C49.4788 10.9333 49.7668 10.3588 49.7083 9.76562C49.7657 9.17303 49.4775 8.59958 48.9643 8.28574C48.4513 7.97189 47.8019 7.97189 47.2888 8.28574ZM49.0269 9.76553C49.0269 9.04898 48.7002 8.62995 48.1272 8.62995C47.5519 8.62995 47.2282 9.04898 47.2282 9.76553C47.2282 10.4878 47.5519 10.9036 48.1272 10.9036C48.7002 10.9036 49.0269 10.485 49.0269 9.76553ZM51.6523 9.49814C50.8542 9.54689 50.4047 9.88996 50.4047 10.485C50.406 10.7671 50.528 11.0356 50.741 11.2241C50.954 11.4126 51.238 11.5035 51.5227 11.4743C51.9288 11.4928 52.3136 11.2945 52.5299 10.9553H52.5824V11.4199H53.2196V9.1612C53.2196 8.46293 52.7453 8.05036 51.9045 8.05036C51.1438 8.05036 50.6019 8.41454 50.5343 8.98233H51.175C51.2485 8.74861 51.5045 8.61492 51.8739 8.61492C52.3265 8.61492 52.5605 8.81207 52.5605 9.1612V9.44652L51.6523 9.49814ZM52.5605 10.2025V9.92621L51.7416 9.97778C51.2798 10.0082 51.0704 10.1631 51.0704 10.4545C51.0704 10.752 51.3321 10.9252 51.6922 10.9252C51.9053 10.9464 52.1182 10.8816 52.2817 10.7453C52.4454 10.6091 52.546 10.4132 52.5605 10.2025ZM55.4814 8.05934C54.6341 8.05934 54.0894 8.72105 54.0894 9.76562C54.0894 10.8127 54.6284 11.4744 55.4814 11.4743C55.9139 11.4901 56.3195 11.2679 56.5346 10.8975H56.5869V11.4199H57.2211V6.82373H56.5593V8.63928H56.5099C56.31 8.26589 55.9093 8.03991 55.4814 8.05934ZM54.7731 9.76553C54.7731 10.4667 55.1083 10.8886 55.6691 10.8886C56.2268 10.8886 56.5717 10.4606 56.5717 9.76846C56.5717 9.07948 56.2233 8.64538 55.6691 8.64538C55.1121 8.64538 54.7731 9.07016 54.7731 9.76553ZM60.7034 8.28583C60.1904 8.59967 59.9019 9.1731 59.9595 9.76562C59.901 10.3588 60.189 10.9333 60.7025 11.2478C61.216 11.5624 61.8661 11.5624 62.3796 11.2478C62.8932 10.9333 63.1811 10.3588 63.1226 9.76562C63.18 9.1731 62.8919 8.59967 62.3787 8.28583C61.8657 7.97198 61.2165 7.97198 60.7034 8.28583ZM62.4415 9.76553C62.4415 9.04898 62.1151 8.62995 61.5419 8.62995C60.9666 8.62995 60.6431 9.04898 60.6431 9.76553C60.6431 10.4878 60.9666 10.9036 61.5419 10.9036C62.1151 10.9036 62.4415 10.485 62.4415 9.76553ZM64.6476 8.11415H64.0105V11.4199H64.6723V9.48595C64.6486 9.26596 64.7234 9.04672 64.8773 8.8857C65.0312 8.72468 65.2488 8.63795 65.473 8.64824C65.9624 8.64824 66.1967 8.91243 66.1967 9.44366V11.4198H66.8585V9.27983C66.907 8.95663 66.8036 8.6292 66.5781 8.39001C66.3522 8.15082 66.0282 8.02584 65.6977 8.05033C65.2708 8.01613 64.869 8.25264 64.697 8.63928H64.6476V8.11415ZM70.5983 7.29112V8.12919H71.3249V8.6787H70.5983V10.3785C70.5983 10.7247 70.743 10.8764 71.0726 10.8764C71.1569 10.8762 71.2411 10.8711 71.3249 10.8613V11.4047C71.206 11.4257 71.0856 11.4368 70.9648 11.4381C70.2289 11.4381 69.9357 11.1828 69.9357 10.5455V8.67867H69.4034V8.12916H69.9357V7.29112H70.5983ZM72.8849 6.82373H72.2289V11.4199H72.8908V9.4892C72.8702 9.26236 72.9525 9.03819 73.1153 8.87661C73.278 8.71504 73.5049 8.63251 73.7351 8.65113C74.2029 8.65113 74.4523 8.91854 74.4523 9.44655V11.4199H75.1148V9.28561C75.1587 8.96405 75.0547 8.63997 74.8314 8.40167C74.6079 8.16335 74.2885 8.0356 73.9599 8.05323C73.5265 8.01857 73.1175 8.25538 72.9374 8.64539H72.8849V6.82373ZM78.974 10.5273C78.7883 11.1508 78.1762 11.5537 77.5208 11.4835C77.0736 11.4952 76.6439 11.3125 76.3455 10.984C76.0472 10.6554 75.9104 10.2142 75.9716 9.77737C75.9121 9.33932 76.0483 8.8974 76.345 8.56606C76.6417 8.2347 77.0696 8.04654 77.5179 8.05031C78.451 8.05031 79.0139 8.67871 79.0139 9.71671V9.94438H76.6458V9.98099C76.6249 10.2263 76.7099 10.4689 76.8799 10.6491C77.0499 10.8294 77.2893 10.9307 77.5389 10.928C77.8627 10.9663 78.1779 10.808 78.3369 10.5272L78.974 10.5273ZM78.3397 9.46202H76.6459C76.643 9.23406 76.7334 9.01458 76.897 8.85334C77.0604 8.69212 77.2831 8.60281 77.5142 8.60567C77.7425 8.60051 77.9622 8.69057 78.1194 8.85365C78.2767 9.01674 78.3566 9.23767 78.3397 9.46202Z" fill="white"/>
<path id="Vector_4" fill-rule="evenodd" clip-rule="evenodd" d="M18.195 6.82373C18.267 7.75183 17.9693 8.67107 17.365 9.38625C16.7785 10.1052 15.8901 10.5192 14.9544 10.5097C14.8948 9.60833 15.2012 8.72062 15.806 8.04208C16.4187 7.35434 17.2715 6.91933 18.195 6.82373ZM21.1543 12.2769C20.0779 12.9293 19.4156 14.0796 19.3992 15.3251C19.4008 16.7341 20.2568 18.0057 21.5733 18.5546C21.3201 19.3653 20.9384 20.1315 20.4426 20.8248C19.7766 21.8069 19.0781 22.7666 17.9696 22.7843C17.4424 22.7964 17.0865 22.6469 16.7157 22.4911C16.329 22.3288 15.9259 22.1595 15.2951 22.1595C14.6264 22.1595 14.2051 22.3342 13.7991 22.5027C13.4481 22.6483 13.1082 22.7892 12.6294 22.8088C11.5737 22.8473 10.767 21.7604 10.0767 20.7876C8.6969 18.8006 7.62253 15.188 9.06288 12.7298C9.73929 11.5318 11.0039 10.7715 12.3941 10.7272C12.9929 10.7151 13.5673 10.9426 14.0712 11.142C14.4562 11.2945 14.8001 11.4307 15.0815 11.4307C15.329 11.4307 15.6633 11.2999 16.0526 11.1475C16.6662 10.9075 17.4168 10.6138 18.1818 10.693C19.3706 10.7296 20.4722 11.3167 21.1543 12.2769Z" fill="white"/>
</g>
</svg>
