<svg width="448" height="419" viewBox="0 0 448 419" fill="none" xmlns="http://www.w3.org/2000/svg">
<path d="M189.62 292.484L84.1831 353.363L7.53809 308.781L112.963 247.902L189.62 292.484Z" fill="#E0E0E0"/>
<path d="M361.455 417.5L102.257 267.846C101.717 267.537 101.267 267.091 100.955 266.553C100.643 266.015 100.478 265.403 100.478 264.781C100.478 264.158 100.643 263.547 100.955 263.009C101.267 262.471 101.717 262.024 102.257 261.716L144.086 237.56C145.793 236.577 147.729 236.06 149.698 236.06C151.668 236.06 153.604 236.577 155.311 237.56L414.508 387.214C415.049 387.523 415.498 387.969 415.81 388.507C416.123 389.045 416.287 389.657 416.287 390.279C416.287 390.901 416.123 391.513 415.81 392.051C415.498 392.589 415.049 393.036 414.508 393.344L372.68 417.5C370.972 418.483 369.037 419 367.067 419C365.097 419 363.162 418.483 361.455 417.5Z" fill="#E0E0E0"/>
<path d="M401.883 320.172L416.45 328.632C416.45 328.632 409.096 305.17 413.179 281.567C414.72 272.649 417.956 268.224 419.062 265.848C420.168 263.471 428.981 248.751 421.25 241.962C413.52 235.173 395.365 248.669 396.188 285.027C396.6 296.935 398.513 308.743 401.883 320.172Z" fill="#2B50A5"/>
<path opacity="0.3" d="M401.883 320.172L416.45 328.632C416.45 328.632 409.096 305.17 413.179 281.567C414.72 272.649 417.956 268.224 419.062 265.848C420.168 263.471 428.981 248.751 421.25 241.962C413.52 235.173 395.365 248.669 396.188 285.027C396.6 296.935 398.513 308.743 401.883 320.172Z" fill="#2B50A5"/>
<path d="M408.648 324.632C408.541 324.631 408.436 324.599 408.348 324.538C408.259 324.477 408.192 324.391 408.154 324.29C408.154 324.137 402.6 308.865 402.894 284.356C403.188 259.847 416.108 246.598 416.249 246.469C416.297 246.419 416.355 246.38 416.418 246.353C416.482 246.326 416.55 246.312 416.619 246.312C416.688 246.312 416.757 246.326 416.82 246.353C416.884 246.38 416.942 246.419 416.99 246.469C417.087 246.568 417.141 246.701 417.141 246.839C417.141 246.978 417.087 247.111 416.99 247.21C416.861 247.339 404.235 260.153 403.941 284.356C403.647 308.559 409.095 323.761 409.142 323.914C409.192 324.045 409.187 324.19 409.13 324.318C409.073 324.446 408.967 324.546 408.836 324.596L408.648 324.632Z" fill="white"/>
<path d="M405.978 322.361L430.052 336.48C430.052 336.48 441.065 334.857 440.23 324.491C439.394 314.125 434.923 311.677 440.5 307.112C446.077 302.547 447.56 302.253 447.242 297.781C446.925 293.31 443.971 291.369 442.536 289.545C441.1 287.721 437.182 284.062 439.959 278.673C442.736 273.284 446.489 268.084 440.9 265.613C437.571 264.13 431.97 265.977 428.263 269.919C424.557 273.861 421.486 276.696 417.968 277.614C414.45 278.532 407.108 278.602 407.378 284.674C407.649 290.745 409.202 292.828 407.731 295.522C404.919 300.711 393.153 303.406 405.978 322.361Z" fill="#2B50A5"/>
<path d="M415.777 328.656C415.646 328.656 415.519 328.606 415.423 328.517C415.327 328.427 415.269 328.304 415.26 328.173C415.26 327.82 412.612 291.992 437.498 268.472C437.546 268.422 437.604 268.383 437.667 268.356C437.731 268.329 437.799 268.315 437.868 268.315C437.938 268.315 438.006 268.329 438.07 268.356C438.133 268.383 438.191 268.422 438.239 268.472C438.29 268.519 438.331 268.576 438.358 268.64C438.386 268.704 438.401 268.773 438.401 268.842C438.401 268.912 438.386 268.981 438.358 269.044C438.331 269.108 438.29 269.166 438.239 269.213C413.718 292.381 416.295 327.714 416.319 328.044C416.328 328.183 416.283 328.319 416.193 328.425C416.103 328.531 415.975 328.597 415.836 328.609L415.777 328.656Z" fill="white"/>
<path d="M420.098 297.911C419.964 297.908 419.836 297.857 419.738 297.765C419.64 297.674 419.58 297.55 419.568 297.417C419.375 294.65 418.623 291.951 417.357 289.484C416.091 287.017 414.337 284.832 412.202 283.062C412.102 282.976 412.038 282.855 412.022 282.724C412.006 282.593 412.04 282.461 412.116 282.353C412.193 282.246 412.307 282.171 412.436 282.143C412.565 282.115 412.7 282.136 412.814 282.203C415.098 284.052 416.973 286.357 418.318 288.97C419.663 291.583 420.449 294.448 420.627 297.381C420.633 297.451 420.626 297.522 420.604 297.588C420.582 297.655 420.547 297.717 420.501 297.77C420.455 297.823 420.398 297.865 420.335 297.896C420.272 297.926 420.203 297.943 420.133 297.946L420.098 297.911Z" fill="white"/>
<path d="M418.32 304.029C418.218 304.028 418.119 303.998 418.034 303.942C417.95 303.886 417.883 303.806 417.842 303.713C417.801 303.62 417.787 303.517 417.803 303.417C417.819 303.316 417.864 303.223 417.932 303.147C418.191 302.865 424.427 296.087 438.864 298.111C438.999 298.136 439.119 298.212 439.199 298.323C439.279 298.435 439.313 298.573 439.293 298.708C439.273 298.844 439.201 298.967 439.093 299.051C438.984 299.135 438.847 299.173 438.711 299.158C424.874 297.252 418.708 303.794 418.708 303.865C418.659 303.918 418.599 303.96 418.532 303.988C418.465 304.017 418.393 304.031 418.32 304.029Z" fill="white"/>
<path d="M379.033 214.277L345.441 194.604L365.455 222.113L379.033 214.277Z" fill="#2B50A5"/>
<path opacity="0.6" d="M379.033 214.277L345.441 194.604L365.455 222.113L379.033 214.277Z" fill="#2B50A5"/>
<path d="M359.03 307.086L162.416 193.566C161.573 193.08 160.872 192.381 160.384 191.538C159.897 190.695 159.64 189.739 159.64 188.765V54.5246C159.641 53.5505 159.899 52.594 160.387 51.751C160.875 50.9079 161.576 50.2081 162.42 49.7218C163.264 49.2354 164.221 48.9796 165.196 48.98C166.17 48.9804 167.127 49.237 167.97 49.724L364.583 163.244C365.427 163.73 366.128 164.429 366.615 165.272C367.103 166.115 367.36 167.071 367.36 168.045V302.285C367.358 303.259 367.101 304.216 366.613 305.059C366.125 305.902 365.423 306.602 364.579 307.088C363.735 307.575 362.778 307.83 361.804 307.83C360.83 307.83 359.873 307.573 359.03 307.086Z" fill="#E0E0E0"/>
<path d="M365.453 222.113L379.031 214.277V373.191C379.03 374.623 378.652 376.029 377.936 377.268C377.219 378.507 376.189 379.536 374.948 380.251L361.523 388.028L365.453 222.113Z" fill="#2B50A5"/>
<path opacity="0.3" d="M365.453 222.113L379.031 214.277V373.191C379.03 374.623 378.652 376.029 377.936 377.268C377.219 378.507 376.189 379.536 374.948 380.251L361.523 388.028L365.453 222.113Z" fill="#2B50A5"/>
<path d="M350.148 312.11L153.535 198.59C152.69 198.102 151.989 197.4 151.502 196.556C151.014 195.711 150.758 194.753 150.758 193.777V59.5015C150.777 58.5371 151.047 57.5943 151.541 56.7659C152.035 55.9375 152.737 55.2521 153.576 54.7771C154.416 54.3022 155.364 54.054 156.329 54.0572C157.293 54.0603 158.241 54.3146 159.077 54.795L355.702 168.315C356.547 168.803 357.248 169.504 357.735 170.349C358.223 171.194 358.479 172.152 358.479 173.128V307.298C358.479 308.273 358.223 309.231 357.736 310.075C357.248 310.92 356.547 311.621 355.703 312.109C354.859 312.597 353.901 312.854 352.926 312.854C351.951 312.854 350.993 312.597 350.148 312.11Z" fill="#EBEBEB"/>
<path d="M341.229 317.37L144.604 203.849C143.76 203.361 143.059 202.659 142.572 201.815C142.085 200.97 141.828 200.012 141.827 199.037V64.7966C141.829 63.8225 142.086 62.866 142.575 62.0229C143.063 61.1799 143.764 60.4801 144.608 59.9938C145.452 59.5074 146.409 59.2516 147.383 59.252C148.357 59.2523 149.314 59.5089 150.158 59.996L346.771 173.516C347.614 174.002 348.315 174.701 348.803 175.544C349.29 176.387 349.547 177.343 349.548 178.317V312.557C349.547 313.531 349.29 314.487 348.804 315.33C348.317 316.173 347.617 316.873 346.775 317.361C345.932 317.848 344.976 318.105 344.003 318.107C343.03 318.109 342.073 317.854 341.229 317.37Z" fill="#FAFAFA"/>
<path d="M114.152 63.0315V260.351C114.151 263.153 114.887 265.906 116.288 268.332C117.688 270.759 119.703 272.775 122.13 274.176L353.924 407.969C355.095 408.647 356.424 409.004 357.778 409.005C359.131 409.006 360.461 408.65 361.634 407.974C362.806 407.298 363.78 406.325 364.456 405.153C365.133 403.981 365.49 402.651 365.49 401.298V242.113L243.227 171.516L222.142 122.792C218.205 113.692 211.443 106.102 202.857 101.142L125.483 56.4307C124.331 55.7573 123.022 55.402 121.688 55.4009C120.354 55.3998 119.044 55.753 117.891 56.4245C116.739 57.0959 115.785 58.0614 115.128 59.2223C114.471 60.3832 114.134 61.6977 114.152 63.0315Z" fill="#2B50A5"/>
<path opacity="0.2" d="M114.152 63.0315V260.351C114.151 263.153 114.887 265.906 116.288 268.332C117.688 270.759 119.703 272.775 122.13 274.176L353.924 407.969C355.095 408.647 356.424 409.004 357.778 409.005C359.131 409.006 360.461 408.65 361.634 407.974C362.806 407.298 363.78 406.325 364.456 405.153C365.133 403.981 365.49 402.651 365.49 401.298V242.113L243.227 171.516L222.142 122.792C218.205 113.692 211.443 106.102 202.857 101.142L125.483 56.4307C124.331 55.7573 123.022 55.402 121.688 55.4009C120.354 55.3998 119.044 55.753 117.891 56.4245C116.739 57.0959 115.785 58.0614 115.128 59.2223C114.471 60.3832 114.134 61.6977 114.152 63.0315Z" fill="#2B50A5"/>
<path d="M297.846 278.353C297.221 277.985 296.577 277.651 295.916 277.353C295.398 262.222 284.832 244.278 271.866 236.795C267.489 234.277 263.394 233.265 259.864 233.571C254.923 217.545 243.568 201.802 230.343 194.142C213.47 184.4 199.645 191.413 198.292 209.721C197.48 209.156 196.668 208.627 195.833 208.156C183.019 200.755 172.642 206.756 172.642 221.546C172.642 236.336 183.019 254.315 195.833 261.704L297.846 320.558C307.953 326.441 316.154 321.664 316.154 309.969C316.154 298.273 307.953 284.142 297.846 278.353Z" fill="#2B50A5"/>
<path opacity="0.4" d="M297.846 278.353C297.221 277.985 296.577 277.651 295.916 277.353C295.398 262.222 284.832 244.278 271.866 236.795C267.489 234.277 263.394 233.265 259.864 233.571C254.923 217.545 243.568 201.802 230.343 194.142C213.47 184.4 199.645 191.413 198.292 209.721C197.48 209.156 196.668 208.627 195.833 208.156C183.019 200.755 172.642 206.756 172.642 221.546C172.642 236.336 183.019 254.315 195.833 261.704L297.846 320.558C307.953 326.441 316.154 321.664 316.154 309.969C316.154 298.273 307.953 284.142 297.846 278.353Z" fill="white"/>
<path d="M210.928 276.988L234.966 320.806L260.652 305.239L250.497 299.509V256.139L223.129 240.36V284.095L210.928 276.988Z" fill="white"/>
<path d="M141.781 0C116.154 0.0016561 91.1934 8.16476 70.5179 23.306C49.8423 38.4471 34.5261 59.7795 26.7896 84.2106L17.0589 78.5982C16.7724 78.4342 16.4489 78.3456 16.1188 78.3405C15.7887 78.3354 15.4627 78.4142 15.1712 78.5693C14.8798 78.7244 14.6324 78.9509 14.4522 79.2275C14.2721 79.5042 14.165 79.822 14.1409 80.1513C12.3856 99.0073 15.1068 118.011 22.0831 135.617C25.5276 144.356 30.1771 152.57 35.8966 160.02C36.0808 160.251 36.3226 160.43 36.5977 160.538C36.8728 160.646 37.1715 160.679 37.4637 160.635C37.756 160.591 38.0314 160.471 38.2624 160.286C38.4933 160.102 38.6716 159.86 38.7793 159.585C43.0198 148.949 48.8692 139.028 56.1227 130.169C60.8148 124.351 66.09 119.029 71.8659 114.285C72.1902 114.02 72.4453 113.681 72.6089 113.296C72.7726 112.911 72.84 112.491 72.8052 112.074C72.7704 111.657 72.6346 111.255 72.4094 110.902C72.1843 110.549 71.8765 110.256 71.5129 110.049L59.8408 103.319C66.0612 80.8371 79.6582 61.0989 98.4472 47.2751C117.236 33.4514 140.127 26.3447 163.441 27.0967C186.755 27.8488 209.14 36.416 226.999 51.4219C244.858 66.4279 257.155 87.0014 261.913 109.837C259.222 79.8345 245.401 51.9248 223.169 31.5983C200.937 11.2718 171.904 -2.23055e-05 141.781 0Z" fill="#2B50A5"/>
<path opacity="0.4" d="M141.781 0C116.154 0.0016561 91.1934 8.16476 70.5179 23.306C49.8423 38.4471 34.5261 59.7795 26.7896 84.2106L17.0589 78.5982C16.7724 78.4342 16.4489 78.3456 16.1188 78.3405C15.7887 78.3354 15.4627 78.4142 15.1712 78.5693C14.8798 78.7244 14.6324 78.9509 14.4522 79.2275C14.2721 79.5042 14.165 79.822 14.1409 80.1513C12.3856 99.0073 15.1068 118.011 22.0831 135.617C25.5276 144.356 30.1771 152.57 35.8966 160.02C36.0808 160.251 36.3226 160.43 36.5977 160.538C36.8728 160.646 37.1715 160.679 37.4637 160.635C37.756 160.591 38.0314 160.471 38.2624 160.286C38.4933 160.102 38.6716 159.86 38.7793 159.585C43.0198 148.949 48.8692 139.028 56.1227 130.169C60.8148 124.351 66.09 119.029 71.8659 114.285C72.1902 114.02 72.4453 113.681 72.6089 113.296C72.7726 112.911 72.84 112.491 72.8052 112.074C72.7704 111.657 72.6346 111.255 72.4094 110.902C72.1843 110.549 71.8765 110.256 71.5129 110.049L59.8408 103.319C66.0612 80.8371 79.6582 61.0989 98.4472 47.2751C117.236 33.4514 140.127 26.3447 163.441 27.0967C186.755 27.8488 209.14 36.416 226.999 51.4219C244.858 66.4279 257.155 87.0014 261.913 109.837C259.222 79.8345 245.401 51.9248 223.169 31.5983C200.937 11.2718 171.904 -2.23055e-05 141.781 0Z" fill="#797979"/>
<path d="M346.31 114.868C359.58 107.206 359.58 82.3638 346.311 59.3803C333.041 36.3969 311.527 23.976 298.257 31.6374C284.987 39.2989 284.986 64.1415 298.256 87.125C311.525 110.108 333.04 122.529 346.31 114.868Z" fill="#2B50A5"/>
<path opacity="0.2" d="M346.31 114.868C359.58 107.206 359.58 82.3638 346.311 59.3803C333.041 36.3969 311.527 23.976 298.257 31.6374C284.987 39.2989 284.986 64.1415 298.256 87.125C311.525 110.108 333.04 122.529 346.31 114.868Z" fill="#2B50A5"/>
<path d="M344.317 116.025C357.587 108.364 357.587 83.521 344.318 60.5375C331.048 37.5541 309.533 25.1332 296.263 32.7947C282.993 40.4561 282.993 65.2988 296.262 88.2822C309.532 111.266 331.046 123.687 344.317 116.025Z" fill="#2B50A5"/>
<path d="M306.747 85.8547L332.962 100.998C333.282 101.181 333.645 101.277 334.014 101.277C334.383 101.276 334.745 101.178 335.064 100.994C335.383 100.809 335.648 100.544 335.833 100.224C336.018 99.9051 336.115 99.5429 336.116 99.1741V66.8641C336.117 66.0625 335.906 65.2748 335.506 64.5807C335.105 63.8865 334.528 63.3104 333.833 62.9106L307.606 47.7676C307.29 47.5981 306.935 47.5128 306.576 47.5199C306.217 47.5271 305.866 47.6264 305.556 47.8083C305.247 47.9903 304.989 48.2487 304.808 48.5589C304.627 48.8691 304.529 49.2206 304.523 49.5796V81.9366C304.526 82.7258 304.732 83.501 305.121 84.1873C305.511 84.8737 306.071 85.448 306.747 85.8547Z" fill="#2B50A5"/>
<path opacity="0.6" d="M306.747 85.8547L332.962 100.998C333.282 101.181 333.645 101.277 334.014 101.277C334.383 101.276 334.745 101.178 335.064 100.994C335.383 100.809 335.648 100.544 335.833 100.224C336.018 99.9051 336.115 99.5429 336.116 99.1741V66.8641C336.117 66.0625 335.906 65.2748 335.506 64.5807C335.105 63.8865 334.528 63.3104 333.833 62.9106L307.606 47.7676C307.29 47.5981 306.935 47.5128 306.576 47.5199C306.217 47.5271 305.866 47.6264 305.556 47.8083C305.247 47.9903 304.989 48.2487 304.808 48.5589C304.627 48.8691 304.529 49.2206 304.523 49.5796V81.9366C304.526 82.7258 304.732 83.501 305.121 84.1873C305.511 84.8737 306.071 85.448 306.747 85.8547Z" fill="white"/>
<path d="M309.43 81.1488L330.409 93.2445C330.669 93.4052 330.968 93.4919 331.274 93.4954C331.58 93.4988 331.881 93.4187 332.145 93.2638C332.409 93.109 332.625 92.8851 332.772 92.6163C332.918 92.3475 332.988 92.044 332.974 91.7384V67.5118C332.977 66.8671 332.809 66.2331 332.486 65.6748C332.164 65.1166 331.699 64.6542 331.139 64.3349L310.124 52.1922C309.868 52.043 309.577 51.9641 309.281 51.9634C308.984 51.9627 308.693 52.0403 308.436 52.1884C308.18 52.3365 307.967 52.5497 307.819 52.8066C307.671 53.0635 307.593 53.3548 307.594 53.6512V77.9249C307.589 78.5764 307.756 79.2177 308.078 79.7839C308.401 80.3501 308.867 80.821 309.43 81.1488Z" fill="#2B50A5"/>
<path opacity="0.4" d="M332.973 67.5004V91.7388C332.989 92.0449 332.92 92.3493 332.774 92.6188C332.628 92.8883 332.411 93.1125 332.146 93.2668C331.881 93.4211 331.579 93.4995 331.272 93.4936C330.966 93.4876 330.667 93.3975 330.408 93.2331L309.429 81.1492C308.875 80.8248 308.414 80.3609 308.094 79.8036C307.774 79.2463 307.606 78.615 307.606 77.9723V53.6516C307.603 53.3573 307.679 53.0677 307.825 52.812C307.971 52.5563 308.181 52.3437 308.436 52.1956C308.69 52.0475 308.979 51.9693 309.273 51.9688C309.568 51.9682 309.857 52.0455 310.112 52.1926L331.138 64.3353C331.696 64.6536 332.16 65.1142 332.483 65.6702C332.805 66.2262 332.975 66.8577 332.973 67.5004Z" fill="white"/>
<path d="M332.973 90.8916V91.7388C332.989 92.0449 332.92 92.3493 332.774 92.6188C332.628 92.8883 332.411 93.1125 332.146 93.2667C331.881 93.421 331.579 93.4995 331.272 93.4935C330.966 93.4876 330.667 93.3975 330.408 93.2331L309.429 81.1492C308.875 80.8248 308.414 80.3609 308.094 79.8036C307.774 79.2463 307.606 78.6149 307.605 77.9723V75.6191L313.1 70.9126L319.595 80.1608L325.937 72.6187L332.973 90.8916Z" fill="#FAFAFA"/>
<path d="M314.843 43.6522C314.897 44.6338 315.181 45.5889 315.674 46.4395C316.167 47.2902 316.854 48.0123 317.679 48.5469C319.244 49.4529 320.503 48.7234 320.503 46.9232C320.453 45.9403 320.172 44.9832 319.681 44.1303C319.19 43.2774 318.504 42.553 317.679 42.0167C316.114 41.146 314.843 41.8402 314.843 43.6522Z" fill="#FAFAFA"/>
<path d="M22.8579 292.39L73.982 322.052V337.737L22.8579 308.074V292.39Z" fill="#455A64"/>
<path d="M101.539 277.458V306.627L73.9829 322.052V337.737L154.311 292.66V246.243L101.539 277.458Z" fill="#263238"/>
<path d="M73.982 322.052L101.538 306.627L50.4026 276.964L22.8579 292.39L73.982 322.052Z" fill="#37474F"/>
<path d="M101.538 306.627V277.459L50.4023 247.784V276.964L101.538 306.627Z" fill="#455A64"/>
<path d="M101.538 277.458L50.4023 247.784L103.185 216.58L154.31 246.243L101.538 277.458Z" fill="#37474F"/>
<path d="M116.022 139.947C116.022 139.947 103.421 157.597 110.904 163.703C118.387 169.81 134.801 164.88 135.46 161.974C136.119 159.067 116.022 139.947 116.022 139.947Z" fill="#263238"/>
<path d="M59.7685 294.414L41.2485 319.028L46.3904 323.064C46.3904 323.064 53.8031 321.511 56.4269 311.71C57.9785 306.038 59.0956 300.256 59.7685 294.414Z" fill="#FFA8A7"/>
<path d="M61.4516 292.743C61.4516 292.743 66.5816 297.449 64.3107 301.591C62.0399 305.733 58.0982 309.109 57.9805 314.616C57.8629 320.123 55.1096 329.912 49.0265 331.453C42.9433 332.995 36.9544 330.889 37.072 328.724C37.1897 326.559 41.249 319.028 41.249 319.028C41.249 319.028 46.8497 322.499 50.9797 319.146C55.1096 315.793 56.0744 301.709 56.0744 301.709L61.4516 292.743Z" fill="#2B50A5"/>
<path opacity="0.2" d="M61.4516 292.743C61.4516 292.743 66.5816 297.449 64.3107 301.591C62.0399 305.733 58.0982 309.109 57.9805 314.616C57.8629 320.123 55.1096 329.912 49.0265 331.453C42.9433 332.995 36.9544 330.889 37.072 328.724C37.1897 326.559 41.249 319.028 41.249 319.028C41.249 319.028 46.8497 322.499 50.9797 319.146C55.1096 315.793 56.0744 301.709 56.0744 301.709L61.4516 292.743Z" fill="#2B50A5"/>
<path d="M93.0212 216.545C93.0212 216.545 51.7689 234.006 48.4038 235.713C45.0386 237.419 39.2026 240.419 39.8027 253.868C40.4028 267.317 43.7561 300.627 43.7561 300.627L66.406 257.174L124.813 229.382L93.0212 216.545Z" fill="#2B50A5"/>
<path opacity="0.5" d="M93.0212 216.545C93.0212 216.545 51.7689 234.006 48.4038 235.713C45.0386 237.419 39.2026 240.419 39.8027 253.868C40.4028 267.317 43.7561 300.627 43.7561 300.627L66.406 257.174L124.813 229.382L93.0212 216.545Z" fill="#2B50A5"/>
<path d="M42.1191 283.389C43.0016 292.896 43.7782 300.626 43.7782 300.626L66.4046 257.174L108.045 237.359L98.6322 229.958C85.2658 236.595 65.9339 246.302 60.1685 249.255C52.8146 253.02 50.5437 263.669 44.2135 278.471C43.5428 280.035 42.8369 281.683 42.1191 283.389Z" fill="#2B50A5"/>
<path opacity="0.7" d="M42.1191 283.389C43.0016 292.896 43.7782 300.626 43.7782 300.626L66.4046 257.174L108.045 237.359L98.6322 229.958C85.2658 236.595 65.9339 246.302 60.1685 249.255C52.8146 253.02 50.5437 263.669 44.2135 278.471C43.5428 280.035 42.8369 281.683 42.1191 283.389Z" fill="#2B50A5"/>
<path d="M96.4424 225.44L100.702 231.877L97.3719 232.382L96.4424 225.44Z" fill="#2B50A5"/>
<path opacity="0.7" d="M96.4424 225.44L100.702 231.877L97.3719 232.382L96.4424 225.44Z" fill="#2B50A5"/>
<path d="M41.4961 328.724C41.4961 328.724 42.0962 329.712 42.0962 334.689C42.0962 339.666 40.1665 340.713 37.6368 341.549C35.1071 342.384 27.8709 347.738 25.8706 350.068C23.8704 352.397 15.787 354.774 7.80952 353.386C-0.167955 351.997 -1.85052 346.726 1.92643 343.349C5.70337 339.972 16.693 333.818 16.693 333.818L41.4961 328.724Z" fill="#2B50A5"/>
<path d="M137.025 226.852L119.282 222.746C119.282 222.746 69.9931 247.455 62.6393 251.22C55.2854 254.985 53.0263 265.645 46.6961 280.435C41.9896 291.566 35.7065 306.839 31.6118 316.016C31.6118 316.016 34.5181 323.77 43.7781 321.817C46.9079 314.981 52.4497 308.874 60.486 298.002C65.6493 291.291 69.3162 283.552 71.2404 275.305C71.5471 273.836 72.2616 272.482 73.3022 271.4C74.3427 270.318 75.667 269.551 77.1235 269.187C85.2657 267.21 101.832 262.927 119.341 256.891C144.002 248.396 137.025 226.852 137.025 226.852Z" fill="#2B50A5"/>
<path opacity="0.5" d="M137.025 226.852L119.282 222.746C119.282 222.746 69.9931 247.455 62.6393 251.22C55.2854 254.985 53.0263 265.645 46.6961 280.435C41.9896 291.566 35.7065 306.839 31.6118 316.016C31.6118 316.016 34.5181 323.77 43.7781 321.817C46.9079 314.981 52.4497 308.874 60.486 298.002C65.6493 291.291 69.3162 283.552 71.2404 275.305C71.5471 273.836 72.2616 272.482 73.3022 271.4C74.3427 270.318 75.667 269.551 77.1235 269.187C85.2657 267.21 101.832 262.927 119.341 256.891C144.002 248.396 137.025 226.852 137.025 226.852Z" fill="#2B50A5"/>
<path d="M31.6125 316.005C30.2593 319.029 29.1298 321.394 28.365 322.723C25.2822 328.101 16.2458 333.925 13.0689 336.678C9.89207 339.431 9.20963 340.467 12.2453 342.796C19.9286 348.68 26.6001 342.255 30.8947 338.09C33.7725 335.453 36.9287 333.137 40.3077 331.183C40.5637 331.055 40.7888 330.873 40.9676 330.65C41.1464 330.426 41.2745 330.167 41.3431 329.889C41.8106 327.099 42.6495 324.385 43.8375 321.817C34.5187 323.771 31.6125 316.005 31.6125 316.005Z" fill="#FFA8A7"/>
<path d="M118.198 243.701L87.1709 261.61L35.5762 231.782L66.6036 213.498L118.198 243.701Z" fill="#37474F"/>
<path d="M90.5133 238.607L78.8647 231.876L86.1598 227.664L97.8083 234.383L90.5133 238.607Z" fill="#263238"/>
<path d="M85.8562 257.138L101.541 247.914L70.8896 229.358L85.8562 257.138Z" fill="#263238"/>
<path d="M86.7724 201.778L74.359 207.661C70.647 208.599 66.9866 209.73 63.3929 211.05C63.3929 211.05 54.7565 214.58 54.3565 216.933C53.9564 219.286 60.8397 224.828 66.8875 222.11C68.4748 221.244 70.1731 220.599 71.9352 220.192C75.6038 219.847 79.0723 218.361 81.8541 215.945L91.8906 213.18C91.8906 213.18 97.056 203.226 86.7724 201.778Z" fill="#FFA8A7"/>
<path d="M78.7385 219.098C77.2912 220.64 73.1966 224.522 72.3024 225.652C71.4081 226.782 69.2902 223.887 72.9966 219.581C76.1997 218.403 79.2126 216.762 81.9389 214.709C80.9845 216.251 79.9147 217.718 78.7385 219.098Z" fill="#FFA8A7"/>
<path d="M112.163 158.62C109.311 158.167 106.391 158.741 103.922 160.238C101.453 161.735 99.5954 164.06 98.6788 166.798C97.3615 170.751 96.5163 174.847 96.1609 178.999C95.0784 191.777 94.7842 198.178 94.7842 198.178L81.9355 204.002C81.9355 204.002 88.8776 204.332 88.407 214.121L104.397 210.109L112.163 158.62Z" fill="#2B50A5"/>
<path opacity="0.3" d="M112.163 158.62C109.311 158.167 106.391 158.741 103.922 160.238C101.453 161.735 99.5954 164.06 98.6788 166.798C97.3615 170.751 96.5163 174.847 96.1609 178.999C95.0784 191.777 94.7842 198.178 94.7842 198.178L81.9355 204.002C81.9355 204.002 88.8188 204.332 88.407 214.121L104.397 210.109L112.163 158.62Z" fill="white"/>
<path d="M94.7837 198.178C96.2262 198.627 97.5302 199.437 98.5724 200.531C98.5724 200.531 97.031 197.59 94.8543 196.672L94.7837 198.178Z" fill="#2B50A5"/>
<path opacity="0.1" d="M94.7837 198.178C96.2262 198.627 97.5302 199.437 98.5724 200.531C98.5724 200.531 97.031 197.59 94.8543 196.672L94.7837 198.178Z" fill="white"/>
<path d="M106.539 129.604C106.539 129.604 98.6089 127.251 101.48 118.297C104.351 109.343 124.553 105.519 139.779 118.297C139.779 118.297 150.462 116.65 150.462 131.581C150.462 146.512 144.485 153.302 153.686 157.184C153.686 157.184 148.074 162.503 143.532 157.184C143.532 157.184 142.579 168.845 125.365 164.774L106.539 129.604Z" fill="#263238"/>
<path d="M132.436 163.703L141.437 167.539V193.966C138.615 200.728 137.087 207.96 136.93 215.286V228.37C136.93 228.37 118.505 234.936 104.22 227.841C97.3019 224.393 93.019 216.545 93.019 216.545C93.019 216.545 100.632 212.062 100.632 206.603C100.484 202.324 99.9766 198.065 99.1139 193.872C97.4477 192.216 96.1851 190.199 95.424 187.977C94.6629 185.755 94.4238 183.388 94.7251 181.058C95.737 172.339 112.163 158.62 112.163 158.62L118.281 159.467L132.436 163.703Z" fill="#2B50A5"/>
<path d="M132.426 163.703L118.283 159.467V142.335H132.426V163.703Z" fill="#FFA8A7"/>
<path d="M118.283 159.514C121.174 158.439 123.817 156.789 126.052 154.664C128.286 152.538 130.067 149.981 131.285 147.148V142.441H118.283V159.514Z" fill="#F28F8F"/>
<path d="M114.987 119.145C114.987 119.145 102.044 119.91 103.644 142.03C104.386 152.255 106.786 157.561 114.658 157.173C123.588 156.726 136.248 150.596 135.425 133.088C134.601 115.58 114.987 119.145 114.987 119.145Z" fill="#FFA8A7"/>
<path d="M132.436 142.335C132.436 142.335 128.906 143.277 128.906 138.194C128.906 138.194 113.139 137.123 109.656 121.486C109.656 121.486 111.221 116.779 121.058 116.779C130.894 116.779 139.166 125.475 136.601 137.441L132.436 142.335Z" fill="#263238"/>
<path d="M113.128 137.594V145.195L108.681 143.83L113.128 137.594Z" fill="#F28F8F"/>
<path d="M119.835 138.394C119.838 138.702 119.748 139.003 119.579 139.26C119.41 139.517 119.168 139.718 118.885 139.837C118.601 139.957 118.288 139.989 117.986 139.93C117.684 139.872 117.406 139.725 117.188 139.508C116.97 139.291 116.821 139.015 116.76 138.713C116.699 138.411 116.729 138.099 116.846 137.814C116.963 137.53 117.162 137.286 117.418 137.115C117.674 136.944 117.974 136.853 118.282 136.853C118.692 136.853 119.085 137.015 119.376 137.303C119.667 137.592 119.832 137.984 119.835 138.394Z" fill="#263238"/>
<path d="M109.587 137.323C109.587 137.631 109.495 137.932 109.324 138.187C109.153 138.443 108.91 138.642 108.625 138.759C108.341 138.876 108.028 138.906 107.726 138.846C107.425 138.785 107.148 138.636 106.931 138.417C106.714 138.199 106.567 137.921 106.509 137.619C106.45 137.317 106.483 137.004 106.602 136.721C106.721 136.437 106.922 136.195 107.179 136.026C107.436 135.857 107.738 135.768 108.045 135.77C108.249 135.77 108.45 135.81 108.638 135.889C108.826 135.967 108.996 136.081 109.139 136.226C109.283 136.37 109.396 136.541 109.473 136.73C109.55 136.918 109.588 137.12 109.587 137.323Z" fill="#263238"/>
<path d="M106.199 134.088L109.234 132.288C109.234 132.288 108.058 131.111 106.881 131.805C106.551 132.073 106.31 132.434 106.188 132.841C106.067 133.248 106.07 133.683 106.199 134.088Z" fill="#263238"/>
<path d="M113.516 147.748C115.281 147.876 117.037 147.407 118.504 146.418C118.504 146.418 118.846 149.042 116.645 149.548C115.996 149.654 115.331 149.533 114.76 149.205C114.19 148.877 113.751 148.362 113.516 147.748Z" fill="#F28F8F"/>
<path d="M131.178 142.912C131.123 141.624 131.361 140.341 131.872 139.159C132.119 138.421 132.577 137.772 133.19 137.293C133.803 136.814 134.544 136.525 135.319 136.464C139.296 136.358 139.826 140.182 139.779 141.547C139.637 145.077 136.743 148.983 131.342 149.136L131.178 142.912Z" fill="#FFA8A7"/>
<path d="M118.282 159.514L114.105 164.927C113.636 165.538 113.307 166.244 113.14 166.996C112.973 167.748 112.972 168.527 113.138 169.279C113.304 170.032 113.632 170.738 114.1 171.35C114.568 171.962 115.164 172.464 115.846 172.822C117.697 173.79 119.826 174.084 121.869 173.655C123.913 173.226 125.743 172.099 127.048 170.468L132.437 163.75L118.282 159.514Z" fill="#FFA8A7"/>
<path d="M118.2 224.699L106.433 231.135C104.624 231 102.807 231 100.997 231.135C98.9029 231.394 93.3493 232.406 91.9138 232.464C90.4784 232.523 91.855 235.218 95.6202 234.971C95.6202 234.971 87.1368 238.853 86.8308 241.183C86.5249 243.513 93.6317 248.808 99.5619 245.89C101.113 244.992 102.78 244.312 104.515 243.866C108.176 243.356 111.583 241.709 114.258 239.159L124.177 235.994C124.177 235.994 128.542 225.711 118.2 224.699Z" fill="#FFA8A7"/>
<path d="M141.439 167.539C141.439 167.539 134.297 172.457 135.473 187.753C136.192 197.007 136.192 206.303 135.473 215.557L118.201 224.699C120.054 225.933 121.566 227.616 122.594 229.591C123.623 231.566 124.135 233.769 124.084 235.995C124.084 235.995 148.899 230.888 150.381 225.099C151.864 219.31 152.405 191.695 152.405 186.883C152.405 182.07 150.452 171.375 141.439 167.539Z" fill="#2B50A5"/>
<path opacity="0.3" d="M141.439 167.539C141.439 167.539 134.297 172.457 135.473 187.753C136.192 197.007 136.192 206.303 135.473 215.557L118.201 224.699C120.054 225.933 121.566 227.616 122.594 229.591C123.623 231.566 124.135 233.769 124.084 235.995C124.084 235.995 148.899 230.888 150.381 225.099C151.864 219.31 152.405 191.695 152.405 186.883C152.405 182.07 150.452 171.375 141.439 167.539Z" fill="white"/>
<path d="M135.471 215.557C137.372 215.515 139.262 215.864 141.024 216.58C139.443 215.345 137.571 214.535 135.588 214.227L135.471 215.557Z" fill="#2B50A5"/>
<path opacity="0.1" d="M135.471 215.557C137.372 215.515 139.262 215.864 141.024 216.58C139.443 215.345 137.571 214.535 135.588 214.227L135.471 215.557Z" fill="white"/>
<path d="M28.4 197.59L33.7889 232.889L87.3721 263.975C87.3853 263.981 87.3999 263.984 87.4145 263.983C87.4291 263.982 87.4431 263.977 87.4551 263.968C87.467 263.96 87.4766 263.948 87.4827 263.935C87.4888 263.922 87.4912 263.907 87.4898 263.893L82.2656 229.653C82.1493 228.93 81.8789 228.241 81.4729 227.632C81.0669 227.023 80.5347 226.508 79.9124 226.123L30.7532 195.99C30.4961 195.84 30.2017 195.766 29.9042 195.776C29.6067 195.786 29.3181 195.88 29.0719 196.048C28.8257 196.215 28.632 196.449 28.5131 196.722C28.3942 196.995 28.3549 197.296 28.4 197.59Z" fill="#455A64"/>
<path d="M87.407 264.045L116.034 247.467C116.694 247.085 117.241 246.535 117.621 245.874C118.001 245.213 118.201 244.464 118.199 243.702L87.2305 261.61L87.407 264.045Z" fill="#263238"/>
<path d="M59.404 231.629C59.404 234.147 57.6273 235.159 55.4388 233.912C54.2885 233.158 53.3314 232.144 52.6447 230.953C51.958 229.761 51.5609 228.425 51.4854 227.052C51.4854 224.534 53.262 223.522 55.4388 224.769C56.5919 225.521 57.5518 226.534 58.2407 227.726C58.9295 228.917 59.3281 230.255 59.404 231.629Z" fill="#37474F"/>
<path opacity="0.2" d="M112.164 195.778C112.164 195.778 122.977 198.708 128.719 190.589C128.719 190.589 125.001 201.084 112.164 195.778Z" fill="#2B50A5"/>
</svg>
