<svg width="145" height="61" viewBox="0 0 145 61" fill="none" xmlns="http://www.w3.org/2000/svg">
    <path id="Vector" d="M89.63 2.27823C87.63 3.07823 85.5 4.33823 83.33 3.89823C82.03 3.63823 80.79 2.75823 79.5 3.06823C78.59 3.28823 77.95 4.06823 77.12 4.43823C73.12 6.36823 69.61 -0.491769 65.12 0.0282312C63.74 0.188231 62.5 1.02823 61.12 1.02823C58.12 0.948231 56.56 0.298231 53.49 1.02823C50.5548 1.79325 47.519 2.1002 44.49 1.93823C42.7152 1.68692 40.907 1.82339 39.19 2.33823C36.46 3.43823 34.36 6.70823 31.43 6.02823C30.56 5.82823 29.82 5.27823 28.94 5.09823C26.08 4.50823 23.48 8.09823 20.69 7.20823C18.46 6.51823 17.84 3.40823 15.59 2.77823C13.59 2.19823 10.98 3.95823 9.38 2.60823C8.92 2.22823 8.67 1.60823 8.2 1.26823C7.2 0.468233 5.75 0.798234 4.47 0.988234C2.92 1.22823 1.78 3.03823 0.799999 1.90823C0.34924 3.41063 0.0806492 4.96175 0 6.52823C0.07 7.52823 0.140002 8.46823 0.150002 9.40823C0.150002 10.5182 0.200001 11.6382 0.220001 12.7582C0.320001 14.1082 0.430001 15.5082 0.450001 17.0282C0.450001 17.0282 0.510002 22.0882 0.600002 28.8582H0.77L0.91 44.2682C1.34356 44.5469 1.73718 44.8834 2.08 45.2682C3.33677 46.8073 4.41374 48.4849 5.29 50.2682C5.66104 51.1121 6.32042 51.7963 7.15 52.1982C8.15 52.6382 9.2 52.8082 10.15 53.2582C13.22 54.6882 12.15 57.6582 11.91 60.4082L22.12 60.3182L120.38 59.5082L137.18 59.3382C139.39 59.3382 142.02 58.8382 144.18 59.1082C144.24 55.0482 144.61 50.9382 143.84 46.9782C143.07 43.0182 142.84 38.6982 142.31 34.5782C142.07 32.6282 141.83 30.6882 141.55 28.7482C141.107 24.8953 140.131 21.1226 138.65 17.5382C135.99 11.6282 130.76 6.75823 124.46 5.24823C118.46 3.80823 112.19 5.37823 106.22 3.85823C100.56 2.38823 95.47 -0.00176883 89.63 2.27823Z" fill="#486BBC"/>
</svg>