<svg width="269" height="25" viewBox="0 0 269 25" fill="none" xmlns="http://www.w3.org/2000/svg">
<path d="M4.5 25H0.5V0.5H4.5V25ZM34.4883 24.95H27.4883L17.9883 4.2H15.9883L17.4883 6.7V24.95H13.4883V0.449999H20.5383L29.9883 21.2H31.9883L30.4883 18.7V0.449999H34.4883V24.95ZM65.4688 0.5L56.1188 25H49.6188L40.4688 0.5H44.9688L52.4688 21.6H53.4688L60.9688 0.5H65.4688ZM75.4473 25H71.4473V0.5H75.4473V25ZM98.6855 4H91.4355V25H87.4355V4H80.1855V0.5H98.6855V4ZM124.43 25H120.43V18H107.43V25H103.43V4C103.43 3.03333 103.763 2.21667 104.43 1.55C105.13 0.849999 105.963 0.5 106.93 0.5H124.43V25ZM120.43 14.5V4H107.43V17.5L110.43 14.5H120.43ZM147.66 4H140.41V25H136.41V4H129.16V0.5H147.66V4ZM156.404 25H152.404V0.5H156.404V25ZM186.143 21.5C186.143 22.4667 185.793 23.3 185.093 24C184.426 24.6667 183.609 25 182.643 25H168.643C167.676 25 166.843 24.6667 166.143 24C165.476 23.3 165.143 22.4667 165.143 21.5V4C165.143 3.03333 165.476 2.21667 166.143 1.55C166.843 0.849999 167.676 0.5 168.643 0.5H182.643C183.609 0.5 184.426 0.849999 185.093 1.55C185.793 2.21667 186.143 3.03333 186.143 4V21.5ZM182.143 21.5V4H169.143V21.5H182.143ZM215.885 24.95H208.885L199.385 4.2H197.385L198.885 6.7V24.95H194.885V0.449999H201.935L211.385 21.2H213.385L211.885 18.7V0.449999H215.885V24.95ZM255.875 25H251.875V18H238.875V25H234.875V4C234.875 3.03333 235.208 2.21667 235.875 1.55C236.575 0.849999 237.408 0.5 238.375 0.5H255.875V25ZM251.875 14.5V4H238.875V17.5L241.875 14.5H251.875ZM268.855 25H264.855V0.5H268.855V25Z" fill="#486BBC"/>
</svg>
