<svg width="103" height="32" viewBox="0 0 103 32" fill="none" xmlns="http://www.w3.org/2000/svg">
<g id="Frame">
<path id="Vector" d="M6.58422 31.8444C6.31927 31.8444 6.06073 31.8412 5.79788 31.8356C5.25333 31.8288 4.71007 31.7837 4.17253 31.7005C3.6713 31.6182 3.18575 31.4651 2.73188 31.2465C2.28218 31.0296 1.87201 30.7452 1.5171 30.4042C1.15703 30.0673 0.857282 29.6765 0.629687 29.2472C0.399594 28.8153 0.240347 28.3523 0.157509 27.8741C0.0680547 27.3607 0.0196531 26.8412 0.0127317 26.3207C0.0072156 26.146 0 25.5642 0 25.5642V6.42511C0 6.42511 0.00769036 5.85226 0.0127698 5.68397C0.0194063 5.16423 0.0675231 4.64572 0.156712 4.13294C0.239701 3.65366 0.399071 3.18928 0.629288 2.75587C0.856038 2.32695 1.15414 1.93583 1.51203 1.59764C1.8695 1.25625 2.28099 0.97039 2.73145 0.750515C3.18427 0.532521 3.66891 0.380596 4.16914 0.299851C4.70843 0.215807 5.25358 0.170378 5.80001 0.16392L6.58463 0.153809H95.9489L96.7425 0.164326C97.2847 0.170457 97.8249 0.21549 98.3595 0.299039C98.8645 0.380805 99.3534 0.53378 99.812 0.752941C100.714 1.19607 101.449 1.89714 101.912 2.75789C102.138 3.18831 102.296 3.6489 102.377 4.12405C102.468 4.64103 102.518 5.16361 102.528 5.68763C102.531 5.92226 102.531 6.17429 102.531 6.42511C102.538 6.73581 102.538 7.03153 102.538 7.32967V24.6694C102.538 24.9703 102.538 25.2642 102.531 25.5601C102.531 25.8296 102.531 26.0764 102.527 26.3305C102.518 26.8451 102.468 27.3584 102.379 27.8661C102.298 28.3475 102.139 28.8142 101.909 29.2497C101.681 29.6743 101.382 30.0617 101.026 30.3978C100.671 30.7406 100.26 31.0267 99.8091 31.245C99.3525 31.4653 98.8635 31.619 98.3595 31.7005C97.8211 31.7842 97.2779 31.8292 96.734 31.8356C96.4786 31.8412 96.2118 31.8444 95.9536 31.8444L95.0108 31.8461L6.58422 31.8444Z" fill="#121212"/>
<path id="Vector_2" fill-rule="evenodd" clip-rule="evenodd" d="M36.5319 17.8318V19.1741H39.7534C39.7028 19.8062 39.44 20.4028 39.0077 20.8667C38.3559 21.5305 37.454 21.8881 36.5245 21.8512C34.5477 21.8512 32.9451 20.2485 32.9451 18.2718C32.9451 16.2948 34.5477 14.6924 36.5245 14.6924C37.4326 14.6776 38.3096 15.0235 38.9629 15.6543L39.91 14.7073C39.0188 13.8048 37.8002 13.3018 36.5319 13.3128C34.7266 13.2425 33.0274 14.1657 32.1038 15.7184C31.1802 17.2712 31.1802 19.205 32.1038 20.7578C33.0274 22.3107 34.7266 23.2337 36.5319 23.1635C37.8233 23.2219 39.0768 22.7189 39.9696 21.784C40.7508 20.9256 41.1679 19.7972 41.1329 18.6372C41.1353 18.3545 41.1104 18.0723 41.0583 17.7946L36.5319 17.8318ZM44.802 16.8549C43.0526 16.859 41.6375 18.2797 41.6402 20.029C41.6429 21.7784 43.0625 23.1947 44.8119 23.1933C46.5612 23.1919 47.9786 21.7734 47.9786 20.0241C47.9909 19.1773 47.6589 18.3617 47.0586 17.7642C46.4583 17.1667 45.6412 16.8386 44.7945 16.8549H44.802ZM48.5901 20.0339C48.5846 18.2857 49.9961 16.8631 51.7443 16.8549C52.5912 16.8386 53.4083 17.1667 54.0085 17.7642C54.6088 18.3617 54.9408 19.1773 54.9285 20.0241C54.9285 21.7725 53.5126 23.1904 51.7643 23.1933C50.0159 23.196 48.5956 21.7824 48.5901 20.0339ZM49.8742 20.858C50.2148 21.5708 50.9564 22.0029 51.7445 21.9478C52.239 21.9363 52.708 21.7256 53.045 21.3634C53.382 21.0012 53.5583 20.5181 53.5341 20.024C53.5322 19.2339 53.0475 18.5255 52.312 18.2373C51.5765 17.9492 50.7395 18.1399 50.2016 18.7183C49.6635 19.2968 49.5337 20.1452 49.8742 20.858ZM42.9267 20.8638C43.2697 21.5761 44.0135 22.0061 44.802 21.948H44.7945C45.2891 21.9365 45.7582 21.7257 46.095 21.3634C46.4322 21.0012 46.6085 20.5181 46.5842 20.0241C46.582 19.2334 46.0965 18.5247 45.36 18.2371C44.6236 17.9496 43.7863 18.1418 43.2489 18.7218C42.7116 19.3018 42.5838 20.1514 42.9267 20.8638ZM67.6055 16.8547C68.8418 16.9003 69.9217 17.7042 70.3198 18.8755L70.4765 19.2112L66.2334 20.9635C66.4993 21.5692 67.1086 21.9507 67.7695 21.9255C68.4077 21.9272 68.9997 21.5929 69.328 21.0455L70.4094 21.7912C69.8207 22.6723 68.8291 23.199 67.7695 23.1932C66.9273 23.2056 66.1164 22.8748 65.5227 22.2772C64.9292 21.6795 64.6044 20.8661 64.6226 20.024C64.5711 19.2012 64.8626 18.3937 65.4276 17.7932C65.9927 17.1929 66.781 16.8532 67.6055 16.8547ZM65.9946 19.9347C65.9641 19.4687 66.1225 19.0101 66.4338 18.6623C66.7453 18.3143 67.1838 18.1063 67.6502 18.0853C68.1418 18.0528 68.6054 18.3169 68.8283 18.7564L65.9946 19.9347ZM63.9441 23.0069H62.5497V13.6856H63.9441V23.0069ZM60.268 17.5632H60.2158C59.7906 17.0879 59.183 16.8167 58.5454 16.8175C56.8527 16.8996 55.5226 18.2958 55.5226 19.9904C55.5226 21.685 56.8527 23.0814 58.5454 23.1635C59.185 23.1742 59.7967 22.9011 60.2158 22.4178H60.2606V22.8726C60.2606 24.0881 59.6118 24.7369 58.5678 24.7369C57.8566 24.7202 57.226 24.2752 56.972 23.6109L55.7564 24.118C56.2246 25.2565 57.3367 25.9971 58.5678 25.9897C60.2009 25.9897 61.5506 25.0277 61.5506 22.6863V17.0412H60.268V17.5632ZM58.6695 21.9478L58.6719 21.948H58.6643L58.6695 21.9478ZM59.9261 21.3498C59.6061 21.7119 59.1523 21.9278 58.6695 21.9478C57.6736 21.8587 56.91 21.0243 56.91 20.0241C56.91 19.023 57.6747 18.1881 58.6719 18.1001C59.1536 18.1248 59.6051 18.3431 59.9237 18.7053C60.2425 19.0675 60.4013 19.5429 60.3645 20.0241C60.4057 20.5073 60.2472 20.9862 59.9261 21.3498ZM76.852 13.6856H73.5188V23.0069H74.9132V19.4723H76.8595C77.9428 19.55 78.9787 19.0163 79.5442 18.0889C80.1095 17.1616 80.1095 15.9961 79.5442 15.0689C78.9787 14.1416 77.9428 13.6077 76.8595 13.6856H76.852ZM74.9061 18.1598H76.8524L76.8823 18.1821C77.7656 18.1821 78.4817 17.466 78.4817 16.5826C78.4817 15.6993 77.7656 14.9831 76.8823 14.9831H74.9061V18.1598ZM85.4501 16.8175C84.4126 16.7556 83.4373 17.3149 82.9669 18.2418L84.2048 18.7564C84.4542 18.2969 84.9514 18.0278 85.4725 18.0703C85.8301 18.0285 86.1895 18.1322 86.47 18.358C86.7503 18.5837 86.9283 18.9126 86.9639 19.2709V19.3678C86.5161 19.1307 86.0165 19.0077 85.5098 19.01C84.1749 19.01 82.8252 19.7556 82.8252 21.1053C82.8519 21.6868 83.1126 22.2327 83.5479 22.619C83.9833 23.0052 84.5564 23.199 85.1369 23.156C85.8522 23.2073 86.5385 22.8643 86.9266 22.2612H86.9714V23.0069H88.3137V19.42C88.3137 17.7869 87.0757 16.84 85.4874 16.84L85.4501 16.8175ZM84.1898 21.1352C84.1898 21.6946 84.8237 21.9256 85.2786 21.9256L85.3158 21.9481C86.156 21.9275 86.8525 21.2914 86.9489 20.4567C86.562 20.2407 86.1243 20.1325 85.6812 20.1435C84.9803 20.1435 84.1898 20.3895 84.1898 21.1352ZM93.2054 17.0412L91.6095 21.0829H91.5649L89.9094 17.0412H88.418L90.9012 22.6937L89.4843 25.833H90.9385L94.7563 17.0412H93.2054ZM82.0646 23.0069H80.6702V13.6856H82.0646V23.0069Z" fill="white"/>
<path id="Vector_3" fill-rule="evenodd" clip-rule="evenodd" d="M52.5423 6.42962C51.6625 7.36083 51.6625 8.81679 52.5423 9.74801C53.4497 10.6505 54.9158 10.6505 55.8233 9.74801C56.7068 8.81828 56.7068 7.35932 55.8233 6.42962C55.3893 5.99245 54.7988 5.74658 54.1827 5.74658C53.5667 5.74658 52.9762 5.99245 52.5423 6.42962ZM35.734 9.76386C36.1167 9.36425 36.3188 8.82519 36.2932 8.27245C36.2932 8.15994 36.2832 8.04763 36.2634 7.93689H34.0934V8.47378H35.7115C35.7004 8.81197 35.5681 9.13489 35.3388 9.38354C34.8276 9.87758 34.0695 10.0156 33.417 9.73347C32.7646 9.45128 32.3459 8.80427 32.3559 8.09348C32.3397 7.6231 32.5158 7.16641 32.8436 6.82873C33.1714 6.49103 33.6226 6.30149 34.0934 6.3038C34.5616 6.27821 35.0146 6.47432 35.3163 6.83325L35.7115 6.43803C35.5207 6.21847 35.2804 6.04724 35.0106 5.9384C34.7208 5.81438 34.4086 5.75093 34.0934 5.75198C33.4749 5.7382 32.8782 5.98116 32.4454 6.42311C31.779 7.09374 31.5798 8.09842 31.9395 8.97259C32.2993 9.84683 33.148 10.4202 34.0934 10.4275C34.7097 10.4494 35.3061 10.2081 35.734 9.76386ZM37.6952 6.40733H39.7086V5.85551H37.0986V10.3298H39.7086V9.77794H37.6952V8.36107H39.5297V7.82416H37.6952V6.40733ZM42.1545 10.3298H41.5803V6.40733H40.3275V5.85551H43.4371V6.40733H42.1545V10.3298ZM45.6295 5.85551V10.3298H46.2038V5.85551H45.6295ZM48.754 10.3298H48.1798V6.40733H46.927V5.85551H49.9994V6.40733H48.754V10.3298ZM52.9671 9.37522C53.6392 10.0445 54.726 10.0445 55.3981 9.37522C56.0583 8.64755 56.0583 7.53769 55.3981 6.81C54.726 6.14069 53.6392 6.14069 52.9671 6.81C52.3071 7.53769 52.3071 8.64755 52.9671 9.37522ZM57.2923 5.85551V10.3298H57.874V6.68324L60.1484 10.3298H60.7449V5.85551H60.1707V9.33794L57.9933 5.85551H57.2923Z" fill="white"/>
<path id="Vector_4" d="M52.5427 9.74797L52.4748 9.81201L52.477 9.81406L52.5427 9.74797ZM52.5427 6.42957L52.4764 6.36389L52.4748 6.36557L52.5427 6.42957ZM55.8238 9.74797L55.8894 9.81406L55.8913 9.8122L55.8238 9.74797ZM55.8238 6.42957L55.8913 6.36535L55.8898 6.3639L55.8238 6.42957ZM36.2937 8.27241L36.2003 8.27237L36.2006 8.27672L36.2937 8.27241ZM36.2638 7.93684L36.3555 7.92036L36.3417 7.84363H36.2638V7.93684ZM34.0938 7.93684V7.84363H34.0006V7.93684H34.0938ZM34.0938 8.47375H34.0006V8.56695H34.0938V8.47375ZM35.712 8.47375L35.8051 8.47679L35.8083 8.38054H35.712V8.47375ZM35.3392 9.3835L35.4041 9.45063L35.4076 9.44672L35.3392 9.3835ZM32.3563 8.09344L32.4497 8.09475L32.4494 8.09022L32.3563 8.09344ZM34.0938 6.30375L34.0933 6.39714L34.0989 6.39682L34.0938 6.30375ZM35.3168 6.8332L35.2453 6.89319L35.3108 6.97098L35.3827 6.89912L35.3168 6.8332ZM35.712 6.43798L35.7779 6.50389L35.8393 6.44242L35.7822 6.37683L35.712 6.43798ZM35.0111 5.93837L34.9744 6.02408L34.9762 6.02481L35.0111 5.93837ZM34.0938 5.75194L34.0917 5.84515H34.0941L34.0938 5.75194ZM34.0938 10.4275L34.0971 10.3343H34.0946L34.0938 10.4275ZM39.7091 6.40728V6.5005H39.8023V6.40728H39.7091ZM37.6957 6.40728V6.31408H37.6024V6.40728H37.6957ZM39.7091 5.85546H39.8023V5.76225H39.7091V5.85546ZM37.0991 5.85546V5.76225H37.0058V5.85546H37.0991ZM37.0991 10.3297H37.0058V10.4229H37.0991V10.3297ZM39.7091 10.3297V10.4229H39.8023V10.3297H39.7091ZM39.7091 9.77789H39.8023V9.68467H39.7091V9.77789ZM37.6957 9.77789H37.6024V9.8711H37.6957V9.77789ZM37.6957 8.36102V8.2678H37.6024V8.36102H37.6957ZM39.5301 8.36102V8.45423H39.6234V8.36102H39.5301ZM39.5301 7.82411H39.6234V7.73091H39.5301V7.82411ZM37.6957 7.82411H37.6024V7.91733H37.6957V7.82411ZM41.5808 10.3297H41.4875V10.4229H41.5808V10.3297ZM42.1549 10.3297V10.4229H42.2481V10.3297H42.1549ZM41.5808 6.40728H41.674V6.31408H41.5808V6.40728ZM40.328 6.40728H40.2348V6.5005H40.328V6.40728ZM40.328 5.85546V5.76225H40.2348V5.85546H40.328ZM43.4375 5.85546H43.5308V5.76225H43.4375V5.85546ZM43.4375 6.40728V6.5005H43.5308V6.40728H43.4375ZM42.1549 6.40728V6.31408H42.0617V6.40728H42.1549ZM45.63 10.3297H45.5367V10.4229H45.63V10.3297ZM45.63 5.85546V5.76225H45.5367V5.85546H45.63ZM46.2043 10.3297V10.4229H46.2974V10.3297H46.2043ZM46.2043 5.85546H46.2974V5.76225H46.2043V5.85546ZM48.1803 10.3297H48.0871V10.4229H48.1803V10.3297ZM48.7544 10.3297V10.4229H48.8477V10.3297H48.7544ZM48.1803 6.40728H48.2734V6.31408H48.1803V6.40728ZM46.9275 6.40728H46.8343V6.5005H46.9275V6.40728ZM46.9275 5.85546V5.76225H46.8343V5.85546H46.9275ZM49.9997 5.85546H50.0929V5.76225H49.9997V5.85546ZM49.9997 6.40728V6.5005H50.0929V6.40728H49.9997ZM48.7544 6.40728V6.31408H48.6612V6.40728H48.7544ZM55.3985 9.37517L55.4644 9.44132L55.4675 9.4378L55.3985 9.37517ZM52.9675 9.37517L52.8985 9.43788L52.9018 9.44122L52.9675 9.37517ZM55.3985 6.80997L55.4677 6.74726L55.4644 6.74392L55.3985 6.80997ZM52.9675 6.80997L52.9018 6.74383L52.8986 6.74734L52.9675 6.80997ZM57.2927 10.3297H57.1995V10.4229H57.2927V10.3297ZM57.2927 5.85546V5.76225H57.1995V5.85546H57.2927ZM57.8744 10.3297V10.4229H57.9677V10.3297H57.8744ZM57.8744 6.68319L57.9535 6.63387L57.7812 6.35762V6.68319H57.8744ZM60.1489 10.3297L60.0696 10.379L60.0971 10.4229H60.1489V10.3297ZM60.7454 10.3297V10.4229H60.8386V10.3297H60.7454ZM60.7454 5.85546H60.8386V5.76225H60.7454V5.85546ZM60.1712 5.85546V5.76225H60.078V5.85546H60.1712ZM60.1712 9.33789L60.0921 9.38731L60.2644 9.66278V9.33789H60.1712ZM57.9938 5.85546L58.0726 5.80605L58.0454 5.76225H57.9938V5.85546ZM52.6105 9.68393C51.7647 8.78865 51.7647 7.38887 52.6105 6.49359L52.4748 6.36557C51.5612 7.3327 51.5612 8.84492 52.4748 9.81201L52.6105 9.68393ZM55.758 9.68189C54.8869 10.5482 53.4795 10.5482 52.6084 9.68189L52.477 9.81406C53.4209 10.7527 54.9455 10.7527 55.8894 9.81406L55.758 9.68189ZM55.7562 6.49379C56.6054 7.38752 56.6054 8.79 55.7562 9.68375L55.8913 9.8122C56.809 8.84647 56.809 7.33104 55.8913 6.36535L55.7562 6.49379ZM54.1832 5.83975C54.7744 5.83975 55.3412 6.07571 55.7575 6.49525L55.8898 6.3639C55.4385 5.90912 54.824 5.65332 54.1832 5.65332V5.83975ZM52.6087 6.49525C53.0254 6.07571 53.592 5.83975 54.1832 5.83975V5.65332C53.5424 5.65332 52.9281 5.9091 52.4764 6.36389L52.6087 6.49525ZM36.2006 8.27672C36.2249 8.80396 36.0321 9.31817 35.6671 9.69932L35.8015 9.82841C36.2019 9.41035 36.4136 8.84632 36.3868 8.26809L36.2006 8.27672ZM36.1721 7.95332C36.1909 8.05861 36.2003 8.16538 36.2003 8.27237L36.3869 8.27244C36.3869 8.15438 36.3765 8.03656 36.3555 7.92036L36.1721 7.95332ZM34.0938 8.03006H36.2638V7.84363H34.0938V8.03006ZM34.1871 8.47375V7.93684H34.0006V8.47375H34.1871ZM35.712 8.38054H34.0938V8.56695H35.712V8.38054ZM35.4076 9.44672C35.6523 9.1816 35.7933 8.83733 35.8051 8.47679L35.6188 8.4707C35.6085 8.78651 35.485 9.08807 35.2707 9.32028L35.4076 9.44672ZM33.3804 9.819C34.0674 10.1162 34.8658 9.97086 35.4041 9.45063L35.2744 9.31648C34.7903 9.78441 34.0723 9.9151 33.4544 9.64786L33.3804 9.819ZM32.2631 8.09214C32.2527 8.84058 32.6934 9.52184 33.3804 9.819L33.4544 9.64786C32.8364 9.38063 32.4402 8.76789 32.4497 8.09475L32.2631 8.09214ZM32.7772 6.76375C32.4317 7.11964 32.246 7.60094 32.2631 8.09665L32.4494 8.09022C32.4341 7.64518 32.6007 7.21311 32.9109 6.89361L32.7772 6.76375ZM34.0942 6.21054C33.5983 6.20811 33.1226 6.40786 32.7772 6.76375L32.9109 6.89361C33.2211 6.57411 33.648 6.39496 34.0933 6.39714L34.0942 6.21054ZM35.3881 6.77322C35.0676 6.39186 34.5861 6.18351 34.0887 6.21068L34.0989 6.39682C34.5378 6.37284 34.9625 6.5567 35.2453 6.89319L35.3881 6.77322ZM35.6461 6.37208L35.2509 6.76729L35.3827 6.89912L35.7779 6.50389L35.6461 6.37208ZM34.9762 6.02481C35.2324 6.12814 35.4604 6.29068 35.6416 6.49915L35.7822 6.37683C35.5818 6.14614 35.3293 5.96626 35.0459 5.85191L34.9762 6.02481ZM34.0941 5.84515C34.3966 5.84415 34.6961 5.90505 34.9744 6.02408L35.0476 5.85266C34.7462 5.72362 34.4215 5.65762 34.0934 5.65872L34.0941 5.84515ZM32.5119 6.48876C32.9268 6.06521 33.4991 5.83193 34.0917 5.84515L34.0958 5.65875C33.4515 5.64438 32.8301 5.89747 32.3792 6.35784L32.5119 6.48876ZM32.0262 8.93708C31.6806 8.09759 31.8721 7.13278 32.5119 6.48876L32.3792 6.35784C31.6864 7.05508 31.4798 8.09915 31.8537 9.00803L32.0262 8.93708ZM34.0946 10.3343C33.1868 10.3272 32.3716 9.77658 32.0262 8.93708L31.8537 9.00803C32.2278 9.91687 33.1102 10.513 34.093 10.5207L34.0946 10.3343ZM35.6671 9.69932C35.2577 10.1246 34.6869 10.3553 34.0971 10.3343L34.0905 10.5206C34.7332 10.5435 35.3555 10.2919 35.8015 9.82841L35.6671 9.69932ZM39.7091 6.31408H37.6957V6.5005H39.7091V6.31408ZM39.6158 5.85546V6.40728H39.8023V5.85546H39.6158ZM37.0991 5.94868H39.7091V5.76225H37.0991V5.94868ZM37.1923 10.3297V5.85546H37.0058V10.3297H37.1923ZM39.7091 10.2365H37.0991V10.4229H39.7091V10.2365ZM39.6158 9.77789V10.3297H39.8023V9.77789H39.6158ZM37.6957 9.8711H39.7091V9.68467H37.6957V9.8711ZM37.6024 8.36102V9.77789H37.7889V8.36102H37.6024ZM39.5301 8.2678H37.6957V8.45423H39.5301V8.2678ZM39.4369 7.82411V8.36102H39.6234V7.82411H39.4369ZM37.6957 7.91733H39.5301V7.73091H37.6957V7.91733ZM37.6024 6.40728V7.82411H37.7889V6.40728H37.6024ZM41.5808 10.4229H42.1549V10.2365H41.5808V10.4229ZM41.4875 6.40728V10.3297H41.674V6.40728H41.4875ZM40.328 6.5005H41.5808V6.31408H40.328V6.5005ZM40.2348 5.85546V6.40728H40.4212V5.85546H40.2348ZM43.4375 5.76225H40.328V5.94868H43.4375V5.76225ZM43.5308 6.40728V5.85546H43.3443V6.40728H43.5308ZM42.1549 6.5005H43.4375V6.31408H42.1549V6.5005ZM42.2481 10.3297V6.40728H42.0617V10.3297H42.2481ZM45.7232 10.3297V5.85546H45.5367V10.3297H45.7232ZM46.2043 10.2365H45.63V10.4229H46.2043V10.2365ZM46.111 5.85546V10.3297H46.2974V5.85546H46.111ZM45.63 5.94868H46.2043V5.76225H45.63V5.94868ZM48.1803 10.4229H48.7544V10.2365H48.1803V10.4229ZM48.0871 6.40728V10.3297H48.2734V6.40728H48.0871ZM46.9275 6.5005H48.1803V6.31408H46.9275V6.5005ZM46.8343 5.85546V6.40728H47.0206V5.85546H46.8343ZM49.9997 5.76225H46.9275V5.94868H49.9997V5.76225ZM50.0929 6.40728V5.85546H49.9066V6.40728H50.0929ZM48.7544 6.5005H49.9997V6.31408H48.7544V6.5005ZM48.8477 10.3297V6.40728H48.6612V10.3297H48.8477ZM55.3328 9.30912C54.697 9.94223 53.6691 9.94223 53.0333 9.30912L52.9018 9.44122C53.6104 10.1467 54.7558 10.1468 55.4644 9.44132L55.3328 9.30912ZM55.3295 6.87259C55.9574 7.56474 55.9574 8.62041 55.3295 9.31255L55.4675 9.4378C56.16 8.6746 56.1601 7.51046 55.4677 6.74726L55.3295 6.87259ZM53.0333 6.87601C53.6691 6.24292 54.697 6.24292 55.3328 6.87601L55.4644 6.74392C54.7558 6.03838 53.6104 6.03829 52.9018 6.74383L53.0333 6.87601ZM53.0366 9.31255C52.4087 8.62041 52.4087 7.56474 53.0366 6.87259L52.8986 6.74734C52.2061 7.51054 52.206 8.67468 52.8985 9.43788L53.0366 9.31255ZM57.386 10.3297V5.85546H57.1995V10.3297H57.386ZM57.8744 10.2365H57.2927V10.4229H57.8744V10.2365ZM57.7812 6.68319V10.3297H57.9677V6.68319H57.7812ZM60.2278 10.2803L57.9535 6.63387L57.7953 6.73252L60.0696 10.379L60.2278 10.2803ZM60.7454 10.2365H60.1489V10.4229H60.7454V10.2365ZM60.6521 5.85546V10.3297H60.8386V5.85546H60.6521ZM60.1712 5.94868H60.7454V5.76225H60.1712V5.94868ZM60.2644 9.33789V5.85546H60.078V9.33789H60.2644ZM57.9147 5.90489L60.0921 9.38731L60.2502 9.28848L58.0726 5.80605L57.9147 5.90489ZM57.2927 5.94868H57.9938V5.76225H57.2927V5.94868Z" fill="white"/>
<path id="Vector_5" d="M8.71679 6.25825C8.47374 6.5499 8.35106 6.92326 8.37376 7.30224V23.7972C8.35106 24.1762 8.47374 24.5495 8.71679 24.8412L8.76899 24.8934L18.0082 15.6615V15.4454L8.76899 6.20605L8.71679 6.25825Z" fill="url(#paint0_linear_277_136)"/>
<path id="Vector_6" d="M21.0662 18.7411L18.0088 15.6614V15.4451L21.0662 12.3579L21.1334 12.3952L24.7948 14.4757C25.8386 15.0648 25.8386 16.0342 24.7948 16.6308L21.1482 18.7039L21.0662 18.7411Z" fill="url(#paint1_linear_277_136)"/>
<path id="Vector_7" d="M21.156 18.6967L18.0092 15.5498L8.71777 24.8413C9.15678 25.2272 9.80829 25.2461 10.2688 24.8861L21.1636 18.6967" fill="url(#paint2_linear_277_136)"/>
<path id="Vector_8" d="M21.1556 12.4028L10.261 6.2134C9.80049 5.85344 9.14895 5.87223 8.70996 6.25815L18.0088 15.5497L21.1556 12.4028Z" fill="url(#paint3_linear_277_136)"/>
<path id="Vector_9" opacity="0.2" d="M21.0666 18.6294L10.2614 24.7815C9.81919 25.1121 9.21215 25.1121 8.76997 24.7815L8.71777 24.8337L8.76997 24.8859C9.2113 25.2189 9.82003 25.2189 10.2614 24.8859L21.156 18.6966L21.0666 18.6294Z" fill="black"/>
<path id="Vector_10" opacity="0.12" fill-rule="evenodd" clip-rule="evenodd" d="M21.0667 18.6296L24.7951 16.5193C25.1805 16.329 25.4559 15.971 25.5408 15.5498C25.5024 16.0154 25.2181 16.425 24.7951 16.6236L21.1337 18.6967L21.0667 18.6296ZM8.37312 23.838C8.38543 24.1662 8.50583 24.4825 8.71776 24.7369L8.76996 24.7966L8.71776 24.8487C8.48183 24.5656 8.35934 24.2055 8.37312 23.838ZM8.37312 23.838C8.37353 23.8269 8.37406 23.8158 8.37473 23.8047V23.6929C8.37183 23.7413 8.37131 23.7898 8.37312 23.838Z" fill="black"/>
<path id="Vector_11" opacity="0.25" d="M10.2613 6.31778L24.7951 14.5801C25.1804 14.7704 25.4557 15.1284 25.5408 15.5495C25.5023 15.084 25.2179 14.6744 24.7951 14.4758L10.2613 6.21338C9.21728 5.62427 8.36719 6.11644 8.36719 7.30955V7.42141C8.38956 6.22082 9.22474 5.72867 10.2613 6.31778Z" fill="white"/>
</g>
<defs>
<linearGradient id="paint0_linear_277_136" x1="13.9615" y1="-5.00107" x2="-0.832803" y2="-1.0665" gradientUnits="userSpaceOnUse">
<stop stop-color="#00A0FF"/>
<stop offset="0.01" stop-color="#00A1FF"/>
<stop offset="0.26" stop-color="#00BEFF"/>
<stop offset="0.51" stop-color="#00D2FF"/>
<stop offset="0.76" stop-color="#00DFFF"/>
<stop offset="1" stop-color="#00E3FF"/>
</linearGradient>
<linearGradient id="paint1_linear_277_136" x1="26.1594" y1="7.94316" x2="8.12076" y2="7.94316" gradientUnits="userSpaceOnUse">
<stop stop-color="#FFE000"/>
<stop offset="0.41" stop-color="#FFBD00"/>
<stop offset="0.78" stop-color="#FFA500"/>
<stop offset="1" stop-color="#FF9C00"/>
</linearGradient>
<linearGradient id="paint2_linear_277_136" x1="8.44476" y1="10.7233" x2="-3.43908" y2="30.713" gradientUnits="userSpaceOnUse">
<stop stop-color="#FF3A44"/>
<stop offset="1" stop-color="#C31162"/>
</linearGradient>
<linearGradient id="paint3_linear_277_136" x1="1.46173" y1="3.68997" x2="6.76614" y2="12.6163" gradientUnits="userSpaceOnUse">
<stop stop-color="#32A071"/>
<stop offset="0.07" stop-color="#2DA771"/>
<stop offset="0.48" stop-color="#15CF74"/>
<stop offset="0.8" stop-color="#06E775"/>
<stop offset="1" stop-color="#00F076"/>
</linearGradient>
</defs>
</svg>
