<svg width="375" height="416" viewBox="0 0 375 416" fill="none" xmlns="http://www.w3.org/2000/svg">
<path d="M0.548349 322.361V170.778L255.248 0.978266V152.561L0.548349 322.361Z" fill="white" stroke="#2B50A5"/>
<path d="M255.664 0.200916L0.132324 170.556V189.488L255.664 19.1329V0.200916Z" fill="#E0E0E0"/>
<path d="M255.665 152.784C255.665 151.804 255.628 94.3161 255.564 0.2687L255.665 0.322872L0.149159 170.712L0.287666 170.453C0.287666 224.233 0.287666 275.856 0.287666 323.036L0.154487 322.964L255.687 152.77L0.154487 323.284L0 323.387V323.227C0 276.048 0 224.425 0 170.645V170.504L0.154487 170.401L255.665 0.0603706L255.756 5.00682e-06V0.128051C255.703 94.2663 255.665 151.798 255.665 152.784Z" fill="#2B50A5"/>
<path d="M228.359 75.675L23.28 212.394C21.6589 213.475 20.3447 215.93 20.3447 217.879V247.881C20.3447 249.829 21.6589 250.532 23.28 249.451L228.359 112.732C229.98 111.652 231.294 109.196 231.294 107.248V77.2459C231.294 75.2976 229.98 74.5943 228.359 75.675Z" fill="#FAFAFA"/>
<path d="M228.358 112.732C228.77 112.444 229.176 112.063 229.552 111.61C230.013 111.051 230.412 110.392 230.708 109.7C231.111 108.744 231.3 107.781 231.24 106.982C231.24 103.141 231.24 97.4941 231.24 90.221C231.24 86.5844 231.24 82.538 231.24 78.114C231.267 77.5435 231.236 77.0091 231.15 76.5225C231.038 76.0473 230.816 75.6879 230.502 75.4762C230.187 75.2645 229.792 75.2071 229.349 75.3092C229.123 75.3641 228.889 75.4557 228.651 75.5824C228.412 75.7422 228.161 75.9091 227.911 76.076L221.662 80.2418L192.443 99.7214L23.2796 212.548C22.7852 212.877 22.2993 213.357 21.871 213.939C21.4426 214.521 21.0869 215.186 20.8397 215.865C20.597 216.542 20.4686 217.21 20.4668 217.804V247.069C20.4329 247.675 20.476 248.232 20.5947 248.719C20.7396 249.169 20.9981 249.49 21.3458 249.652C21.6935 249.813 22.1188 249.81 22.5817 249.642C23.0591 249.432 23.5458 249.144 24.0307 248.784L37.3432 239.909L82.2563 209.967L158.312 159.296L209.586 125.171L223.527 115.877L227.149 113.462L228.385 112.638C228.385 112.638 227.964 112.918 227.149 113.462L223.527 115.877L209.586 125.203L158.312 159.437L82.2563 210.179L23.3009 249.482C23.0404 249.651 22.7812 249.783 22.5284 249.876C22.0211 250.059 21.5548 250.062 21.1737 249.885C20.7925 249.708 20.5089 249.356 20.3496 248.863C20.2226 248.348 20.1758 247.759 20.2111 247.118V245.313C20.2111 244.109 20.2111 242.905 20.2111 241.695V217.987C20.212 217.335 20.3533 216.601 20.6213 215.857C20.8915 215.114 21.2796 214.388 21.7469 213.751C22.2143 213.114 22.7446 212.587 23.2849 212.224L192.448 99.4938L221.668 80.0142L227.89 75.8661C228.14 75.6992 228.385 75.5358 228.641 75.3654C228.892 75.2305 229.139 75.1348 229.376 75.0802C229.846 74.9721 230.265 75.0359 230.596 75.2657C230.92 75.488 231.149 75.8633 231.262 76.3583C231.348 76.858 231.376 77.4066 231.347 77.9917C231.347 82.4158 231.347 86.4621 231.347 90.0987C231.347 97.3719 231.347 103.025 231.32 106.878C231.37 107.701 231.164 108.687 230.74 109.66C230.436 110.358 230.03 111.021 229.562 111.584C229.278 111.922 228.976 112.218 228.667 112.462L228.358 112.732Z" fill="#2B50A5"/>
<path d="M30.839 187.169V196.92L29.6031 197.744L25.1336 194.122V200.723L23.6367 201.721V191.97L24.8779 191.143L29.3527 194.76V188.16L30.839 187.169Z" fill="#2B50A5"/>
<path d="M38.0562 187.747V192.107L36.6871 193.02V192.142C36.4601 192.645 36.1627 193.12 35.8227 193.522C35.4826 193.925 35.1111 194.242 34.7427 194.444C33.331 195.385 32.436 195.047 32.436 193.754C32.436 192.46 33.1339 191.073 35.009 189.823L36.6072 188.758V188.649C36.6072 187.631 36.0745 187.391 35.0676 188.062C34.3919 188.5 33.7321 189.199 33.1925 190.048L32.6225 189.148C33.3907 187.997 34.31 187.061 35.2434 186.478C37.0227 185.273 38.0562 185.602 38.0562 187.747ZM36.6072 190.742V189.884L35.1156 190.879C34.1301 191.536 33.8637 192.155 33.8637 192.699C33.8637 193.244 34.3005 193.439 35.0463 192.942C35.374 192.746 35.6996 192.43 35.9789 192.037C36.2582 191.643 36.4775 191.191 36.6072 190.742Z" fill="#2B50A5"/>
<path d="M50.2509 179.714V183.978L48.8072 184.94V180.9C48.8072 179.575 48.2745 179.29 47.4168 179.862C46.5592 180.433 45.8187 181.683 45.8187 183.155V186.933L44.375 187.895V183.855C44.375 182.53 43.8423 182.245 42.9847 182.816C42.0205 183.459 41.3865 184.637 41.3865 186.11V189.887L39.9429 190.85V183.41L41.3173 182.494V183.441C41.571 182.931 41.8846 182.452 42.2356 182.039C42.5866 181.627 42.9662 181.292 43.3469 181.058C43.7544 180.753 44.1619 180.579 44.5277 180.554C44.8936 180.528 45.2049 180.651 45.4298 180.911C45.7119 180.318 46.0673 179.758 46.4689 179.275C46.8705 178.792 47.3077 178.398 47.7471 178.124C49.2121 177.147 50.2509 177.473 50.2509 179.714Z" fill="#2B50A5"/>
<path d="M57.9528 175.68L53.0998 178.915C53.1923 179.395 53.448 179.705 53.8177 179.787C54.1874 179.869 54.6451 179.717 55.1028 179.359C55.414 179.168 55.7245 178.897 56.0137 178.565C56.303 178.233 56.5644 177.848 56.7809 177.434L57.5586 177.991C57.2441 178.613 56.8571 179.193 56.4258 179.69C55.9945 180.187 55.5298 180.588 55.0655 180.863C52.9933 182.245 51.6508 181.539 51.6508 179.298C51.638 178.8 51.7122 178.246 51.8688 177.671C52.0253 177.095 52.2608 176.511 52.5606 175.955C52.8605 175.398 53.2182 174.881 53.6116 174.435C54.005 173.989 54.4255 173.625 54.8471 173.364C55.2679 173.065 55.6872 172.873 56.0783 172.8C56.4694 172.726 56.8235 172.774 57.118 172.94C57.4124 173.105 57.6407 173.384 57.7881 173.76C57.9356 174.136 57.9989 174.599 57.9741 175.121C57.9741 175.288 57.9635 175.506 57.9528 175.68ZM53.0891 177.763L56.5944 175.426C56.55 174.944 56.3443 174.609 56.0194 174.49C55.6945 174.37 55.2751 174.476 54.8471 174.786C54.4189 175.051 54.0002 175.505 53.6745 176.057C53.3487 176.609 53.1397 177.218 53.0891 177.763Z" fill="#2B50A5"/>
<path d="M40.0378 222.036V223.035L36.0425 225.699V219.296L39.9313 216.704V217.696L37.0333 219.628V221.293L39.6063 219.577V220.557L37.0333 222.272V224.039L40.0378 222.036Z" fill="#E0E0E0"/>
<path d="M45.0521 216.888V219.693L44.1039 220.325V217.668C44.1039 216.803 43.7416 216.629 43.1344 217.034C42.9742 217.126 42.8134 217.262 42.6639 217.432C42.5143 217.602 42.38 217.802 42.2709 218.016C42.1617 218.23 42.0807 218.454 42.0337 218.67C41.9867 218.886 41.9751 219.088 41.9997 219.263V221.734L41.0728 222.352V217.467L41.9784 216.863V217.503C42.1548 217.153 42.3721 216.827 42.6145 216.546C42.8568 216.266 43.1182 216.04 43.3794 215.884C43.6101 215.716 43.8407 215.608 44.0552 215.568C44.2698 215.528 44.4632 215.557 44.6222 215.652C44.7812 215.747 44.902 215.907 44.9762 216.121C45.0504 216.334 45.0763 216.596 45.0521 216.888Z" fill="#E0E0E0"/>
<path d="M48.7005 216.991C48.4349 217.395 48.1152 217.725 47.7895 217.931C47.6023 218.084 47.4121 218.188 47.2332 218.235C47.0543 218.282 46.8914 218.27 46.7567 218.201C46.6219 218.132 46.5188 218.007 46.4551 217.836C46.3913 217.665 46.3686 217.452 46.3885 217.214V214.864L45.7173 215.311V214.402L46.3992 213.948V212.827L47.3527 212.191V213.312L48.4181 212.602V213.511L47.3527 214.221V216.545C47.3527 217.019 47.5498 217.144 47.8854 216.92C48.0763 216.799 48.2636 216.604 48.4181 216.366L48.7005 216.991Z" fill="#E0E0E0"/>
<path d="M53.1534 212.211L49.9571 214.341C50.0186 214.656 50.1867 214.859 50.4293 214.914C50.6719 214.968 50.9722 214.869 51.2729 214.636C51.4776 214.51 51.6817 214.332 51.8719 214.114C52.062 213.895 52.2337 213.642 52.3756 213.369L52.9084 213.718C52.6016 214.293 52.213 214.808 51.7887 215.204C51.3645 215.6 50.9222 215.859 50.5142 215.951C50.1062 216.043 49.7497 215.964 49.4867 215.724C49.2237 215.484 49.0653 215.092 49.0302 214.594C49.0219 214.267 49.0707 213.903 49.1736 213.526C49.2764 213.148 49.4311 212.765 49.6279 212.399C49.8248 212.034 50.0597 211.694 50.3179 211.401C50.5762 211.109 50.8523 210.869 51.1291 210.698C51.4059 210.504 51.6812 210.38 51.9375 210.336C52.1938 210.291 52.4252 210.326 52.617 210.438C52.8087 210.55 52.9564 210.737 53.0507 210.987C53.1449 211.237 53.1835 211.545 53.1641 211.89C53.1641 211.96 53.1587 212.098 53.1534 212.211ZM49.9571 213.586L52.2584 212.052C52.2301 211.734 52.0957 211.513 51.8828 211.433C51.6698 211.354 51.3944 211.422 51.1131 211.624C50.8309 211.799 50.555 212.098 50.3405 212.462C50.1261 212.826 49.9892 213.227 49.9571 213.586Z" fill="#E0E0E0"/>
<path d="M56.4303 207.151V208.24C56.3559 208.281 56.2809 208.331 56.2065 208.389C56.0449 208.483 55.8828 208.621 55.7317 208.792C55.5806 208.963 55.4441 209.163 55.3318 209.378C55.2196 209.593 55.1343 209.818 55.082 210.037C55.0297 210.257 55.0117 210.464 55.0292 210.646V213.015L54.0757 213.651V208.766L54.9813 208.162V208.873C55.1477 208.496 55.3687 208.139 55.6227 207.837C55.8767 207.536 56.155 207.299 56.4303 207.151Z" fill="#E0E0E0"/>
<path d="M63.175 202.726L61.2732 209.269C60.9003 210.625 60.3836 211.309 59.707 211.76C59.3195 212.022 58.943 212.114 58.6416 212.022L59.0198 210.925C59.2081 211.015 59.4576 210.97 59.7177 210.799C60.0533 210.575 60.2504 210.252 60.4369 209.641L60.5061 209.403L58.7322 205.688L59.7177 205.031L60.9962 207.789L62.2854 203.319L63.175 202.726Z" fill="#E0E0E0"/>
<path d="M63.3189 205.069C63.3029 204.56 63.4165 203.971 63.6451 203.378C63.8737 202.784 64.2068 202.213 64.6016 201.738C64.9965 201.263 65.435 200.906 65.8608 200.712C66.2867 200.518 66.6805 200.496 66.9915 200.65C67.3026 200.804 67.5167 201.125 67.6065 201.574C67.6962 202.022 67.6574 202.577 67.4951 203.167C67.3328 203.757 67.0544 204.355 66.6956 204.884C66.3368 205.413 65.9141 205.85 65.4817 206.137C65.1997 206.344 64.9175 206.482 64.6527 206.54C64.3879 206.599 64.1463 206.577 63.9431 206.477C63.7399 206.376 63.5796 206.2 63.4721 205.957C63.3647 205.715 63.3125 205.413 63.3189 205.069ZM66.6909 202.821C66.6784 202.546 66.597 202.327 66.4568 202.192C66.3166 202.056 66.1236 202.011 65.9019 202.06C65.6801 202.11 65.4392 202.252 65.209 202.47C64.9788 202.688 64.7693 202.972 64.6066 203.286C64.4438 203.601 64.3348 203.932 64.2931 204.24C64.2514 204.547 64.2788 204.817 64.3719 205.016C64.465 205.215 64.6197 205.335 64.817 205.36C65.0142 205.385 65.2453 205.314 65.4817 205.157C65.6471 205.052 65.8116 204.906 65.9645 204.728C66.1174 204.55 66.2553 204.344 66.3693 204.124C66.4833 203.903 66.5708 203.674 66.6262 203.449C66.6816 203.225 66.7037 203.011 66.6909 202.821Z" fill="#E0E0E0"/>
<path d="M72.5025 196.507V201.392L71.5969 201.996V201.356C71.4351 201.689 71.2335 202.003 71.0068 202.273C70.78 202.544 70.5339 202.765 70.2864 202.921C70.0467 203.11 69.8046 203.236 69.5782 203.288C69.3517 203.34 69.1468 203.317 68.9788 203.222C68.8107 203.126 68.6839 202.96 68.6078 202.736C68.5316 202.512 68.5082 202.236 68.5391 201.928V199.137L69.4874 198.505V201.136C69.4874 202.026 69.839 202.182 70.4409 201.781C70.5984 201.686 70.7556 201.548 70.9014 201.379C71.0471 201.209 71.1777 201.012 71.2837 200.801C71.3897 200.59 71.4684 200.371 71.5143 200.159C71.5602 199.947 71.572 199.748 71.549 199.576V197.105L72.5025 196.507Z" fill="#E0E0E0"/>
<path d="M76.0861 194.047V195.136C75.9099 195.213 75.7285 195.342 75.5555 195.514C75.3825 195.686 75.2224 195.896 75.0875 196.128C74.9525 196.36 74.8461 196.608 74.7764 196.853C74.7067 197.098 74.6755 197.333 74.685 197.542V199.911L73.7368 200.543V195.658L74.6318 195.061V195.772C74.7986 195.394 75.0205 195.036 75.2755 194.733C75.5306 194.431 75.8099 194.194 76.0861 194.047Z" fill="#E0E0E0"/>
<path d="M83.0344 191.567V194.371L82.0915 195V192.343C82.0915 191.478 81.7346 191.3 81.1273 191.705C80.9672 191.797 80.8063 191.933 80.6568 192.103C80.5073 192.273 80.3729 192.473 80.2638 192.687C80.1547 192.902 80.0736 193.125 80.0267 193.341C79.9797 193.557 79.9681 193.759 79.9926 193.934V196.405L79.0391 197.041V192.156L79.9607 191.541V192.182C80.1377 191.832 80.3552 191.506 80.5974 191.226C80.8396 190.946 81.1006 190.72 81.3617 190.563C81.5924 190.394 81.823 190.286 82.0375 190.246C82.2521 190.206 82.4455 190.235 82.6045 190.33C82.7635 190.426 82.8843 190.586 82.9585 190.799C83.0327 191.013 83.0586 191.274 83.0344 191.567Z" fill="#E0E0E0"/>
<path d="M87.6439 188.437V191.299L86.7436 191.9V191.304C86.5922 191.632 86.3958 191.941 86.1724 192.201C85.949 192.462 85.7057 192.667 85.4651 192.797C84.5381 193.415 83.9521 193.165 83.9521 192.339C83.9521 191.513 84.4103 190.58 85.6408 189.76L86.7063 189.05V188.979C86.7063 188.339 86.3707 188.14 85.6941 188.591C85.2502 188.879 84.8168 189.339 84.4635 189.898L84.0907 189.315C84.5984 188.556 85.2059 187.939 85.822 187.558C86.9673 186.795 87.6439 187.029 87.6439 188.437ZM86.6903 190.405V189.841L85.7101 190.495C85.0655 190.925 84.8897 191.33 84.8897 191.682C84.8897 192.034 85.1774 192.169 85.6622 191.846C85.8777 191.721 86.0929 191.515 86.2773 191.257C86.4618 190.998 86.6062 190.7 86.6903 190.405Z" fill="#E0E0E0"/>
<path d="M95.6505 183.158V185.962L94.7023 186.594V183.937C94.7023 183.073 94.3667 182.88 93.786 183.267C93.2053 183.654 92.7206 184.471 92.7206 185.437V187.921L91.767 188.557V185.9C91.767 185.036 91.4367 184.84 90.8561 185.227C90.2754 185.614 89.7906 186.43 89.7906 187.397V189.881L88.8584 190.503V185.618L89.764 185.014V185.654C89.9298 185.318 90.1355 185.003 90.3659 184.732C90.5964 184.461 90.8457 184.241 91.0958 184.088C91.3632 183.889 91.6303 183.776 91.8705 183.758C92.1107 183.741 92.3156 183.82 92.4649 183.988C92.6508 183.598 92.8846 183.231 93.1486 182.914C93.4126 182.597 93.6998 182.339 93.9884 182.159C94.9686 181.461 95.6505 181.691 95.6505 183.158Z" fill="#E0E0E0"/>
<path d="M100.736 180.489L97.5401 182.62C97.6016 182.934 97.7697 183.138 98.0123 183.192C98.255 183.246 98.5552 183.147 98.8559 182.914C99.0606 182.788 99.2648 182.61 99.4549 182.392C99.645 182.174 99.8167 181.92 99.9587 181.648L100.491 181.997C100.185 182.571 99.796 183.087 99.3718 183.482C98.9475 183.878 98.5052 184.137 98.0972 184.229C97.6893 184.322 97.3327 184.243 97.0697 184.002C96.8067 183.762 96.6483 183.37 96.6132 182.873C96.6049 182.546 96.6537 182.182 96.7566 181.804C96.8594 181.426 97.0141 181.043 97.211 180.677C97.4078 180.312 97.6427 179.972 97.901 179.68C98.1592 179.387 98.4353 179.148 98.7121 178.977C98.988 178.785 99.2622 178.663 99.5172 178.62C99.7722 178.577 100.002 178.613 100.193 178.726C100.383 178.839 100.53 179.026 100.624 179.275C100.717 179.525 100.756 179.831 100.736 180.175C100.736 180.246 100.736 180.38 100.736 180.489ZM97.5401 181.864L99.8415 180.33C99.8132 180.012 99.6787 179.791 99.4658 179.711C99.2528 179.632 98.9774 179.7 98.6961 179.903C98.414 180.077 98.138 180.377 97.9236 180.74C97.7091 181.104 97.5722 181.506 97.5401 181.864Z" fill="#E0E0E0"/>
<path d="M107.735 175.099V177.903L106.781 178.539V175.882C106.781 175.018 106.425 174.84 105.817 175.244C105.657 175.336 105.496 175.473 105.347 175.643C105.197 175.813 105.063 176.012 104.954 176.227C104.845 176.441 104.764 176.665 104.717 176.881C104.67 177.096 104.658 177.299 104.683 177.473V179.945L103.729 180.581V173.794L104.683 173.158V175.623C104.86 175.293 105.071 174.985 105.304 174.72C105.537 174.455 105.786 174.237 106.036 174.081C106.271 173.904 106.507 173.789 106.727 173.745C106.947 173.701 107.145 173.729 107.308 173.826C107.47 173.923 107.593 174.088 107.667 174.308C107.741 174.528 107.764 174.798 107.735 175.099Z" fill="#E0E0E0"/>
<path d="M112.787 172.456L109.591 174.587C109.652 174.901 109.82 175.105 110.063 175.159C110.306 175.213 110.606 175.114 110.907 174.881C111.111 174.755 111.316 174.577 111.506 174.359C111.696 174.14 111.868 173.887 112.009 173.614L112.542 173.964C112.235 174.538 111.847 175.053 111.423 175.449C110.998 175.845 110.556 176.104 110.148 176.196C109.74 176.288 109.383 176.21 109.12 175.969C108.857 175.729 108.699 175.337 108.664 174.84C108.656 174.512 108.705 174.149 108.807 173.771C108.91 173.393 109.065 173.01 109.262 172.644C109.459 172.279 109.693 171.939 109.952 171.647C110.21 171.354 110.486 171.115 110.763 170.943C111.04 170.747 111.315 170.62 111.572 170.573C111.829 170.525 112.062 170.557 112.255 170.666C112.448 170.776 112.598 170.96 112.694 171.208C112.79 171.456 112.831 171.761 112.814 172.105C112.798 172.205 112.793 172.343 112.787 172.456ZM109.591 173.831L111.892 172.297C111.864 171.979 111.73 171.758 111.517 171.678C111.304 171.599 111.028 171.667 110.747 171.87C110.465 172.044 110.189 172.343 109.974 172.707C109.76 173.071 109.623 173.473 109.591 173.831Z" fill="#E0E0E0"/>
<path d="M116.061 167.397V168.486C115.987 168.527 115.912 168.577 115.837 168.635C115.673 168.73 115.508 168.871 115.354 169.045C115.2 169.22 115.062 169.425 114.949 169.645C114.836 169.865 114.752 170.095 114.702 170.317C114.652 170.54 114.637 170.749 114.66 170.931V173.3L113.707 173.935V169.05L114.612 168.446V169.157C114.775 168.776 114.994 168.412 115.249 168.104C115.503 167.795 115.783 167.551 116.061 167.397Z" fill="#E0E0E0"/>
<path d="M120.633 167.225L117.436 169.356C117.497 169.672 117.665 169.876 117.908 169.931C118.15 169.985 118.451 169.885 118.752 169.65C118.957 169.523 119.161 169.345 119.351 169.127C119.541 168.908 119.712 168.655 119.855 168.384L120.361 168.751C120.156 169.16 119.902 169.542 119.619 169.869C119.336 170.196 119.031 170.46 118.726 170.641C118.438 170.863 118.148 171.012 117.875 171.081C117.602 171.15 117.352 171.136 117.141 171.041C116.93 170.945 116.762 170.77 116.649 170.526C116.535 170.283 116.479 169.976 116.483 169.627C116.475 169.299 116.523 168.936 116.626 168.558C116.729 168.18 116.884 167.797 117.081 167.431C117.277 167.066 117.512 166.726 117.771 166.434C118.029 166.141 118.305 165.902 118.582 165.731C118.859 165.534 119.135 165.407 119.392 165.359C119.649 165.311 119.882 165.343 120.076 165.452C120.269 165.561 120.419 165.745 120.516 165.993C120.613 166.24 120.655 166.545 120.638 166.889C120.649 166.971 120.638 167.113 120.633 167.225ZM117.436 168.6L119.743 167.063C119.713 166.745 119.578 166.524 119.364 166.446C119.15 166.367 118.874 166.436 118.592 166.639C118.31 166.814 118.034 167.113 117.82 167.477C117.605 167.84 117.468 168.242 117.436 168.6Z" fill="#E0E0E0"/>
<path d="M75.5069 251.614L30.1037 281.883C27.1127 283.877 24.2442 284.361 22.1293 283.229C20.0143 282.097 18.8262 279.442 18.8262 275.847C18.8304 272.253 20.0204 268.017 22.1349 264.07C24.2494 260.122 27.1155 256.786 30.1037 254.794L75.5069 224.525C76.9879 223.538 78.4544 222.911 79.8227 222.68C81.1909 222.449 82.4341 222.618 83.4814 223.179C84.5286 223.739 85.3593 224.68 85.926 225.946C86.4928 227.213 86.7845 228.781 86.7845 230.561C86.7802 234.155 85.5902 238.391 83.4757 242.338C81.3612 246.286 78.4951 249.622 75.5069 251.614Z" fill="#2B50A5"/>
<path d="M34.2648 215.29L33.3911 215.872V233.159L34.2648 232.576V215.29Z" fill="#585727"/>
<path d="M33.3468 265.827C33.3427 265.362 33.4182 264.849 33.5688 264.318C33.7194 263.786 33.9418 263.249 34.2223 262.739C34.5029 262.228 34.8356 261.756 35.1999 261.35C35.5643 260.944 35.9525 260.614 36.3407 260.38C36.7542 260.085 37.1662 259.901 37.5473 259.84C37.9285 259.78 38.2695 259.844 38.5461 260.03L37.8749 261.233C37.6886 261.105 37.4595 261.058 37.203 261.093C36.9466 261.128 36.6689 261.245 36.3886 261.436C36.0606 261.657 35.7384 261.973 35.4511 262.355C35.1639 262.737 34.9209 263.172 34.7442 263.622C34.5675 264.072 34.4628 264.522 34.4395 264.931C34.4163 265.34 34.4753 265.694 34.6112 265.962C34.7471 266.231 34.9555 266.404 35.2175 266.466C35.4794 266.529 35.7866 266.479 36.1111 266.321C36.4355 266.162 36.7668 265.901 37.0749 265.56C37.383 265.22 37.658 264.81 37.8749 264.37L38.5461 264.684C38.1393 265.471 37.6155 266.181 37.0397 266.725C36.4639 267.269 35.8616 267.624 35.3076 267.746C34.7536 267.868 34.2724 267.751 33.9238 267.409C33.5752 267.068 33.3746 266.518 33.3468 265.827Z" fill="white"/>
<path d="M36.3311 267.289C35.5423 267.831 34.7788 267.989 34.2002 267.73C33.6547 267.432 33.3486 266.742 33.3486 265.81C33.3486 264.879 33.6547 263.781 34.2002 262.755C34.7817 261.729 35.5432 260.871 36.3311 260.355C36.7465 260.061 37.16 259.877 37.5427 259.816C37.9255 259.756 38.2683 259.82 38.5472 260.004L37.8653 261.227C37.6793 261.101 37.4509 261.055 37.1954 261.09C36.9399 261.126 36.6633 261.243 36.3844 261.434C36.1239 261.596 35.8642 261.82 35.6201 262.093C35.3761 262.365 35.1524 262.681 34.962 263.022C34.6031 263.716 34.4029 264.452 34.4029 265.079C34.4029 265.705 34.6031 266.175 34.962 266.39C35.3478 266.562 35.8587 266.451 36.3844 266.082C36.6632 265.907 36.9408 265.661 37.1982 265.36C37.4556 265.059 37.6868 264.711 37.876 264.338L38.5578 264.658C38.2797 265.22 37.936 265.747 37.551 266.202C37.1661 266.656 36.7496 267.028 36.3311 267.289ZM36.3311 260.387C35.5427 260.893 34.7787 261.751 34.2002 262.781C33.6583 263.797 33.3541 264.886 33.3541 265.81C33.3541 266.734 33.6583 267.417 34.2002 267.711C34.7799 267.965 35.5435 267.803 36.3311 267.257C36.7423 267.002 37.1521 266.64 37.5319 266.197C37.9118 265.753 38.2528 265.239 38.5312 264.689L37.876 264.389C37.6891 264.767 37.4593 265.122 37.2019 265.431C36.9446 265.739 36.6658 265.994 36.3844 266.178C35.8602 266.527 35.3575 266.612 34.9869 266.414C34.6162 266.215 34.408 265.75 34.408 265.12C34.408 264.49 34.6162 263.747 34.9869 263.055C35.3575 262.362 35.8602 261.777 36.3844 261.427C36.6649 261.235 36.9431 261.117 37.2004 261.08C37.4576 261.043 37.6879 261.089 37.876 261.214L38.5259 260.044C38.2502 259.865 37.9121 259.803 37.535 259.863C37.1579 259.923 36.7508 260.104 36.3418 260.393L36.3311 260.387Z" fill="white"/>
<path d="M38.9415 262.891C38.9245 262.359 39.0432 261.743 39.2822 261.121C39.5213 260.5 39.8698 259.902 40.283 259.405C40.6962 258.907 41.1552 258.533 41.601 258.329C42.0469 258.126 42.4591 258.103 42.7849 258.264C43.1107 258.424 43.335 258.761 43.4291 259.23C43.5232 259.7 43.4827 260.28 43.3129 260.898C43.1431 261.515 42.8518 262.141 42.4762 262.695C42.1007 263.249 41.6582 263.706 41.2056 264.007C40.9102 264.226 40.6142 264.372 40.3364 264.434C40.0586 264.497 39.8052 264.475 39.5922 264.37C39.3792 264.265 39.2113 264.079 39.0993 263.825C38.9873 263.57 38.9336 263.252 38.9415 262.891ZM42.4734 260.537C42.4599 260.25 42.3747 260.022 42.2282 259.882C42.0817 259.741 41.8805 259.694 41.6492 259.746C41.418 259.797 41.1668 259.946 40.9268 260.173C40.6868 260.4 40.4683 260.696 40.2984 261.024C40.1285 261.352 40.0145 261.697 39.9705 262.018C39.9266 262.339 39.9545 262.621 40.051 262.829C40.1474 263.037 40.3082 263.163 40.5133 263.19C40.7185 263.217 40.9591 263.145 41.2056 262.983C41.3787 262.872 41.5508 262.719 41.7108 262.532C41.8708 262.346 42.0151 262.131 42.1345 261.901C42.2539 261.67 42.3458 261.43 42.4042 261.195C42.4625 260.96 42.4861 260.736 42.4734 260.537Z" fill="white"/>
<path d="M41.205 264.04C40.6229 264.428 40.0647 264.522 39.6531 264.302C39.2415 264.082 39.0103 263.565 39.0103 262.865C39.0103 262.166 39.2415 261.341 39.6531 260.571C40.0647 259.802 40.6229 259.152 41.205 258.764C41.8105 258.343 42.3983 258.215 42.8458 258.407C43.2587 258.639 43.4899 259.166 43.4899 259.876C43.4899 260.585 43.2587 261.421 42.8458 262.203C42.3985 262.993 41.811 263.651 41.205 264.04ZM41.205 258.796C40.63 259.18 40.0785 259.822 39.6719 260.582C39.2653 261.341 39.0369 262.156 39.0369 262.847C39.0369 263.539 39.2653 264.049 39.6719 264.267C40.0785 264.484 40.63 264.391 41.205 264.008C41.8056 263.624 42.3881 262.972 42.8298 262.188C43.2362 261.416 43.4637 260.593 43.4637 259.893C43.4637 259.193 43.2362 258.673 42.8298 258.443C42.3892 258.245 41.8064 258.367 41.205 258.783V258.796ZM41.205 263.009C40.9359 263.204 40.6691 263.3 40.4391 263.284C40.2091 263.269 40.0264 263.143 39.9147 262.923C39.8029 262.703 39.7673 262.398 39.8123 262.049C39.8573 261.7 39.9808 261.322 40.1671 260.963C40.3533 260.605 40.5936 260.283 40.857 260.04C41.1204 259.796 41.3948 259.641 41.6447 259.595C41.8947 259.55 42.1087 259.615 42.2591 259.784C42.4096 259.952 42.4896 260.215 42.4889 260.54C42.5001 260.741 42.4749 260.967 42.415 261.204C42.355 261.44 42.2617 261.681 42.1409 261.913C42.02 262.144 41.8744 262.36 41.7133 262.546C41.5522 262.733 41.379 262.886 41.205 262.996V263.009ZM41.205 259.808C40.9426 259.969 40.6827 260.223 40.4587 260.537C40.2348 260.851 40.0571 261.212 39.9484 261.571C39.8398 261.931 39.8052 262.274 39.8492 262.556C39.8931 262.838 40.0136 263.046 40.1951 263.153C40.3765 263.261 40.6107 263.262 40.8674 263.158C41.1241 263.054 41.3916 262.849 41.6355 262.569C41.8794 262.289 42.0884 261.947 42.2358 261.588C42.3831 261.228 42.462 260.867 42.4622 260.551C42.4758 260.336 42.453 260.144 42.3955 259.987C42.338 259.831 42.247 259.713 42.1284 259.643C42.0098 259.572 41.8663 259.55 41.7072 259.577C41.5481 259.604 41.377 259.681 41.205 259.801V259.808Z" fill="white"/>
<path d="M48.63 256.06V258.993L47.6338 259.657V256.878C47.6338 255.963 47.2609 255.776 46.6216 256.202C46.455 256.301 46.2883 256.444 46.1333 256.622C45.9784 256.8 45.8391 257.008 45.7255 257.23C45.6119 257.453 45.5268 257.685 45.4764 257.91C45.4259 258.135 45.4113 258.347 45.4337 258.531V261.092L44.4375 261.756V256.634L45.3857 256.002V256.642C45.5693 256.275 45.7963 255.932 46.0498 255.637C46.3034 255.343 46.577 255.105 46.8507 254.942C47.8735 254.317 48.63 254.517 48.63 256.06Z" fill="white"/>
<path d="M48.6463 258.995L47.6182 259.68V256.889C47.6182 256.012 47.2772 255.778 46.622 256.215C46.4568 256.313 46.2914 256.455 46.1377 256.631C45.9841 256.808 45.846 257.014 45.7333 257.234C45.6207 257.455 45.5364 257.686 45.4865 257.908C45.4366 258.131 45.4223 258.341 45.4447 258.524V261.129L44.4219 261.811V256.689L45.3967 256.039V256.68C45.5839 256.321 45.8106 255.988 46.0614 255.701C46.3123 255.415 46.5816 255.182 46.8511 255.019C47.3219 254.677 47.783 254.565 48.1349 254.707C48.3163 254.813 48.4571 254.989 48.5487 255.223C48.6403 255.457 48.6808 255.744 48.6676 256.068L48.6463 258.995ZM47.6448 259.631L48.6197 258.981V256.068C48.6197 254.653 47.9751 254.269 46.8511 255.019C46.58 255.181 46.309 255.416 46.0576 255.707C45.8061 255.997 45.5804 256.336 45.3967 256.699L45.3701 256.717V256.032L44.4485 256.646V261.73L45.4181 261.083V258.522C45.3967 258.335 45.4124 258.121 45.4641 257.893C45.5157 257.666 45.602 257.431 45.7169 257.206C45.8318 256.981 45.9724 256.771 46.1288 256.591C46.2852 256.411 46.4536 256.265 46.622 256.164C47.2932 255.716 47.6448 255.956 47.6448 256.852V259.631Z" fill="white"/>
<path d="M52.461 256.158C52.1815 256.582 51.8446 256.928 51.5021 257.143C51.3065 257.304 51.1078 257.413 50.9207 257.462C50.7337 257.512 50.5633 257.5 50.4223 257.428C50.2813 257.357 50.1734 257.226 50.1067 257.048C50.04 256.869 50.0162 256.647 50.0372 256.397V253.932L49.334 254.401V253.441L50.0372 252.972V251.807L51.0333 251.142V252.308L52.1733 251.548V252.508L51.0333 253.268V255.701C51.0333 256.2 51.2411 256.331 51.6247 256.075C51.8253 255.946 52.0217 255.741 52.184 255.491L52.461 256.158Z" fill="white"/>
<path d="M51.5016 257.175C51.3039 257.337 51.103 257.447 50.9141 257.496C50.7251 257.546 50.553 257.534 50.4105 257.462C50.2681 257.389 50.159 257.258 50.0915 257.078C50.0239 256.897 49.9997 256.673 50.0206 256.42V253.975L49.3228 254.44V253.448L50.0206 252.982V251.811L51.0487 251.125V252.297L52.1887 251.537V252.529L51.0487 253.289V255.703C51.0487 256.196 51.2458 256.321 51.6241 256.068C51.8155 255.945 52.0027 255.748 52.1568 255.508L52.4391 256.185C52.1664 256.604 51.8383 256.95 51.5016 257.175ZM49.3707 254.37L50.0685 253.904V256.388C50.0486 256.635 50.0728 256.855 50.1393 257.032C50.2058 257.209 50.313 257.337 50.4527 257.408C50.5925 257.48 50.7613 257.491 50.9466 257.443C51.1319 257.394 51.3289 257.287 51.5229 257.128C51.8597 256.919 52.1912 256.578 52.4658 256.16L52.1941 255.522C52.039 255.759 51.8521 255.953 51.6614 256.076C51.2725 256.335 51.0594 256.202 51.0594 255.696V253.244L52.1994 252.484V251.562L51.0594 252.322V251.15L50.0845 251.8V252.972L49.3867 253.437L49.3707 254.37Z" fill="white"/>
<path d="M53.1484 249.297C53.1498 249.198 53.1675 249.09 53.2006 248.978C53.2338 248.866 53.2816 248.753 53.3413 248.647C53.401 248.54 53.4712 248.441 53.5479 248.357C53.6246 248.272 53.7062 248.203 53.7877 248.154C53.8677 248.093 53.9482 248.051 54.0242 248.031C54.1002 248.012 54.1701 248.014 54.2295 248.04C54.289 248.065 54.3367 248.112 54.3697 248.178C54.4028 248.244 54.4204 248.327 54.4216 248.423C54.4071 248.623 54.3337 248.85 54.216 249.057C54.0982 249.265 53.9445 249.439 53.785 249.545C53.6256 249.652 53.4719 249.682 53.3541 249.632C53.2363 249.581 53.163 249.453 53.1484 249.271V249.297ZM53.2816 250.77L54.2831 250.103V255.225L53.2816 255.892V250.77Z" fill="white"/>
<path d="M54.2934 255.231L53.2706 255.913V250.791L54.2934 250.109V255.231ZM53.2973 255.863L54.2668 255.216V250.133L53.3239 250.761L53.2973 255.863ZM53.7874 249.607C53.7025 249.674 53.6169 249.719 53.536 249.74C53.4551 249.762 53.3808 249.759 53.3178 249.732C53.2547 249.705 53.2044 249.654 53.1699 249.583C53.1355 249.513 53.1177 249.423 53.1177 249.321C53.1177 249.218 53.1355 249.105 53.1699 248.988C53.2044 248.872 53.2547 248.754 53.3178 248.643C53.3808 248.532 53.4551 248.43 53.536 248.344C53.6169 248.257 53.7025 248.188 53.7874 248.141C53.8689 248.08 53.9507 248.038 54.0279 248.019C54.1052 247.999 54.1763 248.002 54.237 248.027C54.2976 248.053 54.3467 248.1 54.3811 248.166C54.4155 248.232 54.4346 248.316 54.4373 248.412C54.4396 248.513 54.4242 248.625 54.3922 248.742C54.3601 248.858 54.3121 248.976 54.251 249.088C54.19 249.2 54.1173 249.305 54.0375 249.394C53.9577 249.483 53.8725 249.556 53.7874 249.607ZM53.7874 248.173C53.6722 248.259 53.5619 248.382 53.4701 248.527C53.3783 248.673 53.3092 248.833 53.2715 248.989C53.2337 249.146 53.229 249.29 53.2579 249.405C53.2867 249.52 53.348 249.601 53.4338 249.636C53.5197 249.671 53.6264 249.66 53.7405 249.604C53.8547 249.548 53.9712 249.449 54.0755 249.321C54.1798 249.192 54.2673 249.039 54.3269 248.88C54.3865 248.722 54.4156 248.565 54.4106 248.43C54.408 248.338 54.3896 248.258 54.3565 248.195C54.3234 248.131 54.2763 248.087 54.2181 248.063C54.1599 248.039 54.0918 248.036 54.0177 248.055C53.9437 248.074 53.8654 248.114 53.7874 248.173Z" fill="white"/>
<path d="M59.7847 248.623V251.556L58.7832 252.223V249.445C58.7832 248.529 58.4103 248.342 57.771 248.769C57.6045 248.867 57.4377 249.011 57.2828 249.189C57.1278 249.367 56.9885 249.574 56.8749 249.797C56.7613 250.02 56.6762 250.252 56.6258 250.476C56.5753 250.701 56.5607 250.913 56.5831 251.097V253.658L55.5869 254.322V249.2L56.5192 248.579V249.219C56.7043 248.852 56.9323 248.508 57.1866 248.213C57.4408 247.919 57.7151 247.68 57.9895 247.515C59.0229 246.884 59.7847 247.08 59.7847 248.623Z" fill="white"/>
<path d="M59.7967 251.562L58.7739 252.244V249.452C58.7739 248.575 58.4277 248.345 57.7724 248.782C57.6074 248.879 57.4422 249.021 57.2887 249.198C57.1352 249.374 56.9974 249.58 56.8852 249.8C56.7729 250.021 56.6892 250.251 56.6399 250.474C56.5907 250.696 56.5772 250.906 56.6004 251.087V253.693L55.5776 254.374V249.253L56.5525 248.603V249.243C56.7394 248.884 56.9661 248.55 57.217 248.264C57.468 247.977 57.7373 247.745 58.0068 247.582C58.4759 247.242 58.9351 247.131 59.2853 247.274C59.4678 247.378 59.6093 247.553 59.7009 247.788C59.7926 248.022 59.8325 248.31 59.818 248.634L59.7967 251.562ZM58.8006 252.194L59.7701 251.547V248.634C59.7701 247.219 59.1255 246.836 58.0068 247.582C57.7349 247.745 57.463 247.98 57.2107 248.271C56.9583 248.562 56.7317 248.902 56.5472 249.266V248.581L55.6256 249.195V254.278L56.5951 253.632V251.071C56.5729 250.885 56.5878 250.671 56.6388 250.444C56.6898 250.217 56.7756 249.983 56.8901 249.758C57.0045 249.533 57.1449 249.323 57.3011 249.143C57.4573 248.963 57.6255 248.817 57.7937 248.716C58.4649 248.269 58.8219 248.505 58.8219 249.401L58.8006 252.194Z" fill="white"/>
<path d="M65.1767 242.84V247.962L64.2284 248.594V247.954C64.0579 248.302 63.8461 248.629 63.6084 248.912C63.3707 249.194 63.113 249.425 62.854 249.587C61.7886 250.297 61.0215 250.092 61.0215 248.549V245.623L62.0177 244.959V247.718C62.0177 248.653 62.3852 248.843 63.0138 248.424C63.1794 248.323 63.3448 248.178 63.498 248C63.6512 247.822 63.7884 247.614 63.8999 247.392C64.0114 247.171 64.0944 246.94 64.1429 246.717C64.1914 246.494 64.2042 246.285 64.1805 246.103V243.542L65.1767 242.84Z" fill="white"/>
<path d="M62.8543 249.606C62.3653 249.963 61.8856 250.083 61.5172 249.941C61.3354 249.834 61.1944 249.657 61.1028 249.422C61.0112 249.187 60.9709 248.898 60.9845 248.574V245.635L62.0126 244.95V247.722C62.0126 248.612 62.3482 248.855 62.9928 248.426C63.7226 247.939 64.1435 247.102 64.1435 246.128V243.529L65.1663 242.847V247.969L64.1914 248.619V247.979C64.0253 248.32 63.82 248.642 63.5894 248.923C63.3587 249.203 63.1081 249.437 62.8543 249.606ZM61.0324 245.635V248.542C61.0151 248.863 61.0511 249.149 61.1382 249.383C61.2253 249.617 61.3616 249.793 61.5385 249.901C61.8991 250.046 62.3724 249.929 62.8543 249.574C63.1117 249.412 63.3675 249.182 63.6034 248.901C63.8392 248.62 64.0492 248.294 64.2181 247.948V247.916V248.595L65.1397 247.98V242.897L64.1914 243.529V246.09C64.2151 246.273 64.2019 246.485 64.1529 246.71C64.1038 246.935 64.0202 247.168 63.9078 247.392C63.7954 247.616 63.6571 247.826 63.5026 248.007C63.3482 248.187 63.1814 248.334 63.0141 248.437C62.3536 248.877 62.0073 248.628 62.0073 247.719V244.979L61.0324 245.635Z" fill="white"/>
<path d="M70.4706 242.255L67.1305 244.482C67.1947 244.811 67.3711 245.024 67.6257 245.08C67.8803 245.136 68.1953 245.031 68.5103 244.785C68.7243 244.653 68.9378 244.467 69.1369 244.239C69.3361 244.012 69.5164 243.747 69.6662 243.463L70.199 243.845C69.9829 244.271 69.7174 244.669 69.4217 245.01C69.126 245.351 68.8075 245.626 68.4889 245.817C67.0613 246.769 66.1344 246.285 66.1344 244.762C66.1277 244.418 66.1802 244.037 66.2887 243.641C66.3971 243.246 66.5593 242.845 66.7653 242.462C66.9712 242.08 67.2166 241.724 67.4864 241.417C67.7562 241.11 68.0448 240.858 68.3345 240.676C68.6224 240.475 68.9088 240.347 69.1755 240.299C69.4422 240.252 69.6834 240.287 69.8838 240.402C70.0841 240.517 70.2393 240.71 70.3394 240.968C70.4395 241.226 70.4824 241.543 70.4653 241.9C70.4866 241.956 70.4813 242.133 70.4706 242.255ZM67.1252 243.691L69.5384 242.083C69.5152 241.739 69.3766 241.496 69.152 241.407C68.9273 241.318 68.6342 241.389 68.3345 241.605C68.0349 241.792 67.7426 242.112 67.5176 242.5C67.2927 242.888 67.1523 243.315 67.1252 243.691Z" fill="white"/>
<path d="M68.4906 245.849C67.858 246.298 67.2412 246.441 66.7699 246.247C66.4606 246.082 66.25 245.749 66.1648 245.291C66.0797 244.833 66.1238 244.269 66.2916 243.672C66.4594 243.075 66.7434 242.472 67.1074 241.939C67.4714 241.405 67.899 240.966 68.3361 240.676C68.6274 240.469 68.9177 240.336 69.1885 240.285C69.4593 240.234 69.7046 240.267 69.9087 240.381C70.1128 240.495 70.2712 240.688 70.3738 240.947C70.4763 241.207 70.5207 241.527 70.5042 241.888C70.5042 242.01 70.5042 242.176 70.5042 242.247L67.1748 244.466C67.2421 244.786 67.4177 244.992 67.6688 245.045C67.9198 245.098 68.229 244.994 68.5385 244.754C68.7509 244.623 68.9627 244.438 69.16 244.211C69.3573 243.985 69.5358 243.722 69.6839 243.44L70.2166 243.834C70.0005 244.267 69.7335 244.673 69.4349 245.022C69.1363 245.37 68.8137 245.653 68.4906 245.849ZM68.3361 240.708C67.9024 240.993 67.4774 241.427 67.1155 241.956C66.7537 242.485 66.4715 243.084 66.305 243.676C66.1385 244.268 66.0953 244.827 66.181 245.281C66.2666 245.735 66.4773 246.063 66.7859 246.224C67.2539 246.412 67.8646 246.269 68.4906 245.823C68.8058 245.636 69.1214 245.364 69.4143 245.027C69.7073 244.69 69.9704 244.296 70.1846 243.875L69.6519 243.513C69.5016 243.796 69.3212 244.06 69.1222 244.288C68.9232 244.515 68.7098 244.701 68.4959 244.834C68.1776 245.081 67.8599 245.185 67.6034 245.127C67.347 245.069 67.1697 244.852 67.1055 244.519L70.451 242.288C70.451 242.218 70.451 242.058 70.451 241.949C70.471 241.59 70.4309 241.27 70.3331 241.009C70.2353 240.748 70.0819 240.553 69.8829 240.435C69.6838 240.317 69.4435 240.279 69.1771 240.324C68.9108 240.369 68.6243 240.496 68.3361 240.696V240.708ZM69.556 242.098L67.1108 243.728C67.1542 243.346 67.3016 242.926 67.526 242.544C67.7504 242.161 68.037 241.842 68.3334 241.645C68.6299 241.447 68.9164 241.384 69.1408 241.467C69.3653 241.55 69.5126 241.774 69.556 242.098ZM67.1375 243.71L69.524 242.119C69.4882 241.799 69.3463 241.578 69.1263 241.501C68.9062 241.423 68.6242 241.495 68.3361 241.701C68.0523 241.874 67.7736 242.17 67.5527 242.532C67.3318 242.894 67.1841 243.297 67.1375 243.665V243.71Z" fill="url(#paint0_linear_288_1537)"/>
<path d="M9.48347 176.084C10.8839 175.15 12.0192 173.029 12.0192 171.346C12.0192 169.663 10.8839 169.055 9.48347 169.989C8.08303 170.922 6.94775 173.044 6.94775 174.727C6.94775 176.41 8.08303 177.017 9.48347 176.084Z" fill="#2B50A5"/>
<path d="M18.8262 169.855C20.2267 168.922 21.362 166.8 21.362 165.117C21.362 163.434 20.2267 162.827 18.8262 163.76C17.4258 164.694 16.2905 166.815 16.2905 168.498C16.2905 170.181 17.4258 170.789 18.8262 169.855Z" fill="#2B50A5"/>
<path d="M28.1656 163.63C29.566 162.696 30.7013 160.575 30.7013 158.892C30.7013 157.209 29.566 156.601 28.1656 157.535C26.7652 158.468 25.6299 160.59 25.6299 162.273C25.6299 163.956 26.7652 164.563 28.1656 163.63Z" fill="#2B50A5"/>
<path d="M323.967 170.989C323.723 180.539 317.743 203.562 297.746 202.177C276.585 200.7 266.476 185.693 272.362 166.161C276.236 153.19 288.486 139.963 306.028 144.977C320.768 149.211 324.258 158.971 323.967 170.989Z" fill="#FFD2B8"/>
<path d="M297.199 194.628C293.593 194.977 290.603 196.71 289.696 199.048C288.995 200.889 288.496 202.8 288.207 204.749C287.916 206.333 287.845 207.95 287.998 209.553C288.312 210.716 291.488 211.193 298.072 211.484C304.656 211.775 307.681 211.368 308.17 210.158C308.597 208.416 308.716 206.613 308.519 204.83C308.371 202.9 307.98 200.997 307.355 199.165C306.297 196.14 301.841 194.186 297.199 194.628Z" fill="#FAC09E"/>
<path d="M319.314 173.583C319.426 173.257 319.583 172.948 319.779 172.664C320.803 171.221 324.223 167.057 327.841 169.849C333.029 173.85 326.747 186.135 320 185.356C319.448 185.285 318.918 185.092 318.45 184.79C317.982 184.488 317.588 184.085 317.296 183.611C317.004 183.137 316.821 182.604 316.762 182.05C316.702 181.497 316.767 180.937 316.952 180.412L319.314 173.583Z" fill="#FAC09E"/>
<path d="M275.306 164.73C275.358 164.391 275.358 164.045 275.306 163.706C275.143 161.95 274.283 156.622 269.757 157.215C263.312 158.017 262.591 171.803 268.803 174.56C269.317 174.776 269.873 174.875 270.43 174.849C270.987 174.823 271.531 174.673 272.023 174.41C272.514 174.146 272.941 173.777 273.271 173.328C273.602 172.879 273.828 172.362 273.934 171.815L275.306 164.73Z" fill="#FAC09E"/>
<path d="M274.619 160.344C274.504 164.756 274.894 169.166 275.782 173.49C277.306 182.052 279.051 189.857 292.72 192.754C306.389 195.651 318.953 193.243 322.513 183.448C323.923 179.475 325.004 175.394 325.747 171.244C326.939 164.465 326.185 157.487 323.571 151.119C319.069 139.776 280.086 127.329 274.619 160.344Z" fill="#E3B800"/>
<path d="M206.983 159.425C206.827 167.902 208.613 176.303 212.206 183.983C214.404 188.588 217.138 192.918 220.349 196.884C223.616 200.853 227.311 204.45 231.366 207.61C235.121 210.577 239.122 213.22 243.325 215.509C246.934 217.469 250.651 219.225 254.458 220.767C259.094 222.626 263.856 224.154 268.708 225.339C274.327 226.642 278.562 226.444 281.4 225.083C284.239 223.722 285.705 221.198 285.949 217.615C286.193 214.032 285.414 211.368 283.413 209.39C281.412 207.412 278.108 206.098 273.455 205.004C271.64 204.574 267.161 203.643 261.345 201.84C254.48 199.718 247.901 196.765 241.754 193.045C238.348 190.991 235.149 188.61 232.203 185.937C229.328 183.259 226.721 180.305 224.421 177.119C220.509 171.348 217.492 165.017 215.475 158.343L206.983 159.425Z" fill="#FFD2B8"/>
<path d="M261.311 201.84C259.276 201.177 257.065 200.409 254.774 199.514C253.016 205.994 251.802 212.609 251.144 219.29C252.307 219.802 253.389 220.279 254.46 220.709C259.096 222.568 263.858 224.096 268.71 225.281C269.976 225.58 271.258 225.81 272.549 225.968C273.487 222.779 274.134 219.513 274.48 216.207C275.004 212.5 274.826 208.728 273.957 205.086L273.457 205.005C271.607 204.551 267.128 203.643 261.311 201.84Z" fill="#FAC09E"/>
<path d="M369.184 283.214C368.94 280.515 368.614 277.398 368.021 273.908C367.637 272.233 367.218 270.488 366.765 268.684C366.532 267.789 366.322 266.858 366.043 265.939C365.764 265.02 365.427 264.124 365.124 263.205C362.536 255.527 359.086 248.166 354.84 241.265C352.805 237.775 350.548 234.657 348.454 231.679C346.36 228.701 344.184 226.095 342.195 223.862C339.539 220.722 336.704 217.739 333.703 214.927C330.213 211.705 326.99 210.158 324.175 210.146C321.36 210.134 318.975 211.647 316.928 214.59C314.88 217.533 314.031 220.116 314.462 222.629C314.892 225.141 316.59 227.584 319.638 230.341C320.802 231.423 323.745 233.936 327.479 237.612C329.399 239.404 331.399 241.567 333.61 243.848C335.82 246.128 338.019 248.733 340.171 251.479C349.163 262.251 356.644 276.083 360.89 285.215L369.184 283.214Z" fill="#FAC09E"/>
<path d="M348.397 231.691C346.198 228.829 344.15 226.142 342.173 223.92C339.517 220.78 336.681 217.797 333.68 214.986C331.765 213.107 329.479 211.649 326.968 210.705C326.033 220.073 326.578 229.53 328.585 238.729C330.167 240.288 331.819 242.056 333.611 243.906C335.705 246.232 338.02 248.792 340.172 251.537C340.672 252.142 341.172 252.701 341.661 253.387C345.442 246.724 347.74 239.324 348.397 231.691Z" fill="#E6B293"/>
<path d="M292.603 396.778C292.603 396.778 280.098 404.922 270.5 405.794C260.903 406.667 264.393 413.635 270.5 415.24C276.608 416.846 310.588 415.24 310.588 415.24C310.588 415.24 312.333 403.467 307.68 396.778H292.603Z" fill="#F3F5FA"/>
<path d="M310.589 412.052C310.589 412.052 276.608 413.658 270.501 412.052C269.369 411.796 268.3 411.318 267.356 410.645C266.411 409.972 265.61 409.117 264.998 408.132C263.381 410.586 266.324 414.181 270.501 415.286C276.608 416.892 310.589 415.286 310.589 415.286C310.869 413.053 310.966 410.8 310.879 408.551C310.798 410.633 310.589 412.052 310.589 412.052Z" fill="#CBCDD1"/>
<path d="M348.792 395.638C348.792 395.638 348.688 398.116 342.685 403.432C340.684 405.212 335.949 405.596 333.82 406.701C325.258 411.133 331.122 416.264 337.38 415.449C339.707 415.147 349.898 415.891 349.898 415.891C360.437 411.506 372.408 405.957 372.408 405.957C372.408 405.957 369.581 394.405 362.752 389.961L348.792 395.638Z" fill="#F3F5FA"/>
<path d="M371.302 402.455C368.627 403.688 358.506 408.272 349.467 412.076C349.467 412.076 339.311 411.331 336.95 411.634C335.733 411.839 334.486 411.777 333.295 411.454C332.104 411.131 330.997 410.553 330.051 409.761C327.945 413.158 332.541 416.078 337.38 415.449C339.707 415.147 349.897 415.891 349.897 415.891C360.437 411.506 372.408 405.957 372.408 405.957C372.1 404.771 371.731 403.602 371.302 402.455Z" fill="#CBCDD1"/>
<path d="M279.273 290.729C279.273 290.729 276.609 332.679 279.273 347.011C281.937 361.343 285.764 397.918 285.764 397.918C285.764 397.918 289.615 400.384 298.223 400.384C310.206 400.384 312.509 397.918 312.509 397.918C312.509 397.918 305.052 357.632 305.704 349.14C306.355 340.648 309.263 319.929 309.263 319.929C309.263 319.929 316.08 346.476 318.919 352.851C321.757 359.226 343.081 397.918 343.081 397.918C343.081 397.918 361.624 397.453 365.056 388.425C365.056 388.425 349.538 352.362 343.081 347.011C343.081 347.011 338.905 305.597 334.845 290.729H279.273Z" fill="#434343"/>
<path d="M305.726 349.14C305.785 348.395 305.854 347.569 305.947 346.673C303.516 351.14 299.666 351.013 299.666 351.013C305.168 351.21 307.367 366.717 307.367 366.717C306.273 359.016 305.505 352.118 305.726 349.14Z" fill="#060606"/>
<path d="M350.142 357.283C347.443 352.42 344.918 348.5 343.162 347.011C343.162 347.011 342.929 344.684 342.522 341.008C340.66 349.058 336.182 348.36 336.182 348.36C341.787 349.483 346.768 352.667 350.142 357.283Z" fill="#060606"/>
<path d="M334.867 290.729H279.272C279.272 290.729 278.737 299.047 278.388 309.54C285.205 310.843 307.215 314.194 338.601 310.704C337.7 303.986 336.454 297.319 334.867 290.729Z" fill="#2B50A5"/>
<path d="M301.072 207.156C294.092 207.296 292.777 208.052 275.479 201.91C275.479 201.91 266.649 265.985 274.525 303.991C274.525 303.991 300.118 310.227 340.125 305.224C340.125 305.224 323.768 245.895 323.629 206.342L301.072 207.156Z" fill="#2B50A5"/>
<path d="M274.618 303.991C274.618 303.991 300.211 310.226 340.217 305.224C340.217 305.224 334.564 284.715 329.875 259.773C328.468 269.08 329.364 283.237 328.817 293.009C328.049 305.899 274.618 303.991 274.618 303.991Z" fill="#2B50A5"/>
<path d="M275.515 201.91C275.515 201.91 265.313 199.595 259.496 194.65C259.496 194.65 254.261 210.355 253.97 225.188C253.97 225.188 260.508 229.259 272.944 232.458C272.944 232.458 276.166 229.166 277.597 216.893C278.865 206.446 275.515 201.91 275.515 201.91Z" fill="#2B50A5"/>
<path d="M323.665 206.377C323.665 206.377 338.602 209.483 345.035 224.025C345.035 224.025 346.489 236.239 337.182 251.944L326.968 241.091C326.968 241.091 321.594 229.166 323.665 206.377Z" fill="#2B50A5"/>
<path d="M360.974 283.319C359.753 284.304 358.796 285.576 358.187 287.021C357.578 288.467 357.336 290.041 357.484 291.602C358.101 296.849 355.262 299.175 356.484 300.746C357.705 302.316 360.113 299.071 360.928 295.639C360.928 295.639 364.057 298.954 364.185 309.285C364.189 309.541 364.264 309.79 364.402 310.006C364.54 310.221 364.736 310.394 364.967 310.504C365.198 310.614 365.455 310.657 365.71 310.629C365.964 310.601 366.206 310.502 366.407 310.343C367.504 309.498 368.392 308.411 369.001 307.167C370.42 304.119 372.491 303.677 373.445 302.107C374.399 300.536 374.608 296.046 373.445 291.8C372.282 287.554 368.001 282.109 368.001 282.109L360.974 283.319Z" fill="#FAC09E"/>
<path d="M218.883 161.24C219.395 160.172 219.692 159.014 219.755 157.832C220.035 152.55 223.245 150.735 222.28 148.99C221.314 147.245 218.418 150.014 217.045 153.271L218.883 161.24Z" fill="#FFD2B8"/>
<path d="M211.799 143.546C211.737 143.696 211.645 143.83 211.528 143.942C211.411 144.053 211.271 144.139 211.119 144.194C210.967 144.249 210.805 144.271 210.644 144.26C210.483 144.248 210.325 144.203 210.182 144.128L195.048 137.078C194.901 137.016 194.77 136.924 194.66 136.809C194.551 136.693 194.466 136.557 194.412 136.407C194.357 136.258 194.334 136.099 194.343 135.94C194.353 135.782 194.394 135.626 194.466 135.484C194.524 135.331 194.615 135.191 194.731 135.075C194.848 134.958 194.988 134.868 195.142 134.81C195.296 134.751 195.46 134.727 195.624 134.737C195.789 134.747 195.949 134.791 196.095 134.868L211.218 141.929C211.508 142.068 211.732 142.315 211.841 142.618C211.95 142.921 211.935 143.255 211.799 143.546Z" fill="#2B50A5"/>
<path d="M197.596 136.963L197.625 136.9C197.907 136.295 198.416 135.828 199.043 135.599C199.669 135.371 200.36 135.401 200.964 135.682L213.768 141.641C214.375 141.924 214.845 142.436 215.074 143.065C215.303 143.694 215.274 144.388 214.991 144.995L214.962 145.059C214.68 145.663 214.171 146.13 213.545 146.359C212.918 146.587 212.227 146.558 211.623 146.276L198.809 140.312C198.205 140.027 197.738 139.515 197.511 138.888C197.284 138.26 197.314 137.568 197.596 136.963Z" fill="#2B50A5"/>
<path d="M201.263 138.556L201.209 138.672C200.295 140.635 201.144 142.967 203.107 143.882L223.067 153.185C225.029 154.1 227.362 153.25 228.276 151.288L228.33 151.172C229.245 149.209 228.396 146.877 226.433 145.962L206.473 136.659C204.511 135.744 202.178 136.594 201.263 138.556Z" fill="#24506D"/>
<path d="M217.047 153.271C217.047 153.271 214.511 149.479 216.128 139.311C216.174 139.057 216.148 138.795 216.051 138.555C215.955 138.315 215.793 138.108 215.584 137.956C215.375 137.804 215.128 137.714 214.87 137.696C214.612 137.679 214.355 137.735 214.127 137.857C212.897 138.509 211.833 139.437 211.021 140.568C209.113 143.325 207.054 143.383 205.786 144.814C204.518 146.245 203.576 150.63 204.053 154.97C204.53 159.309 207.799 165.44 207.799 165.44H214.976C216.663 164.464 218.023 163.011 218.885 161.263L217.047 153.271Z" fill="#FFD2B8"/>
<defs>
<linearGradient id="paint0_linear_288_1537" x1="68.3151" y1="240.689" x2="70.7523" y2="244.345" gradientUnits="userSpaceOnUse">
<stop stop-color="white"/>
<stop offset="1" stop-color="white" stop-opacity="0"/>
</linearGradient>
</defs>
</svg>
