<svg width="409" height="419" viewBox="0 0 409 419" fill="none" xmlns="http://www.w3.org/2000/svg">
<path d="M239.294 305.878L381.135 387.77C383.334 389.04 383.334 391.107 381.135 392.377L336.676 418.047C335.439 418.674 334.072 419 332.685 419C331.299 419 329.932 418.674 328.695 418.047L186.854 336.155C184.655 334.885 184.655 332.818 186.854 331.538L231.313 305.878C232.55 305.251 233.917 304.925 235.303 304.925C236.69 304.925 238.057 305.251 239.294 305.878Z" fill="#E0E0E0"/>
<path d="M194.506 327.054C194.506 327.054 184.666 329.007 179.623 323.263C174.58 317.518 177.879 311.745 176.94 307.991C176.615 306.754 176.022 305.604 175.203 304.621C174.384 303.638 173.359 302.847 172.201 302.304C171.006 301.668 169.708 301.157 168.485 300.626C167.072 300.01 165.508 299.867 164.134 299.204C161.839 297.895 160.14 295.747 159.394 293.213C159.077 291.996 159.075 290.718 159.386 289.499C159.698 288.281 160.314 287.161 161.176 286.245C162.769 284.35 164.892 282.075 163.442 279.506C161.186 275.524 154.048 271.467 158.275 266.367C161.735 262.187 167.907 263.135 172.495 265.334C175.746 266.879 178.457 269.031 181.386 270.955C184.818 273.211 188.42 272.709 192.145 273.979C194.989 274.927 198.781 277.885 199.416 280.946C199.928 283.335 199.483 286.17 199.369 288.596C199.227 291.44 199.046 293.744 200.99 295.668C204.782 299.46 212.744 298.455 213.484 311.015C213.502 313.415 212.627 315.737 211.028 317.528L194.506 327.054Z" fill="#2B50A5"/>
<path opacity="0.65" d="M194.506 327.054C194.506 327.054 184.666 329.007 179.623 323.263C174.58 317.518 177.879 311.745 176.94 307.991C176.615 306.754 176.022 305.604 175.203 304.621C174.384 303.638 173.359 302.847 172.201 302.304C171.006 301.668 169.708 301.157 168.485 300.626C167.072 300.01 165.508 299.867 164.134 299.204C161.839 297.895 160.14 295.747 159.394 293.213C159.077 291.996 159.075 290.718 159.386 289.499C159.698 288.281 160.314 287.161 161.176 286.245C162.769 284.35 164.892 282.075 163.442 279.506C161.186 275.524 154.048 271.467 158.275 266.367C161.735 262.187 167.907 263.135 172.495 265.334C175.746 266.879 178.457 269.031 181.386 270.955C184.818 273.211 188.42 272.709 192.145 273.979C194.989 274.927 198.781 277.885 199.416 280.946C199.928 283.335 199.483 286.17 199.369 288.596C199.227 291.44 199.046 293.744 200.99 295.668C204.782 299.46 212.744 298.455 213.484 311.015C213.502 313.415 212.627 315.737 211.028 317.528L194.506 327.054Z" fill="white"/>
<path d="M195.028 311.158H195.133C195.184 311.144 195.232 311.121 195.274 311.089C195.316 311.057 195.352 311.017 195.378 310.971C195.405 310.925 195.422 310.874 195.429 310.822C195.435 310.769 195.431 310.716 195.417 310.665C191.066 294.426 176.818 274.937 162.239 265.315C162.195 265.28 162.144 265.254 162.09 265.239C162.035 265.224 161.979 265.221 161.923 265.23C161.867 265.238 161.814 265.258 161.766 265.288C161.718 265.318 161.677 265.358 161.646 265.404C161.614 265.451 161.593 265.504 161.582 265.559C161.572 265.615 161.574 265.672 161.587 265.727C161.6 265.781 161.624 265.833 161.658 265.878C161.692 265.923 161.735 265.961 161.784 265.988C176.174 275.515 190.279 294.806 194.583 310.873C194.613 310.965 194.673 311.043 194.755 311.095C194.836 311.147 194.933 311.169 195.028 311.158Z" fill="white"/>
<path d="M186.972 293.033C187.058 293.033 187.143 293.005 187.212 292.954C187.282 292.903 187.334 292.831 187.36 292.749C187.376 292.698 187.382 292.644 187.378 292.59C187.373 292.537 187.358 292.485 187.334 292.438C187.309 292.39 187.275 292.348 187.234 292.313C187.193 292.279 187.146 292.253 187.095 292.237C180.952 290.274 173.682 289.45 168.591 290.132C168.484 290.146 168.388 290.202 168.322 290.287C168.256 290.373 168.227 290.48 168.24 290.587C168.257 290.693 168.313 290.788 168.398 290.853C168.482 290.919 168.589 290.949 168.695 290.938C173.682 290.274 180.81 291.08 186.848 293.014C186.888 293.029 186.93 293.036 186.972 293.033Z" fill="white"/>
<path d="M183.293 287.44C183.387 287.442 183.48 287.411 183.554 287.352C183.629 287.293 183.68 287.21 183.7 287.118C184.56 283.451 186.275 280.041 188.705 277.164C188.767 277.082 188.795 276.981 188.785 276.879C188.775 276.777 188.727 276.683 188.651 276.615C188.574 276.547 188.475 276.51 188.373 276.512C188.271 276.513 188.173 276.553 188.099 276.624C185.559 279.6 183.774 283.144 182.894 286.956C182.875 287.063 182.897 287.173 182.958 287.264C183.018 287.354 183.111 287.417 183.217 287.44H183.293Z" fill="white"/>
<path d="M367.194 362.253C367.194 362.253 365.298 335.549 377.11 310.732C383.745 296.864 393.784 291.129 399.623 291.062C406.164 290.986 412.117 297.755 405.453 306.675C399.121 315.149 388.22 317.775 379.754 340.668C374.171 355.759 373.811 366.063 373.811 366.063L367.194 362.253Z" fill="#2B50A5"/>
<path opacity="0.5" d="M367.194 362.253C367.194 362.253 365.298 335.549 377.11 310.732C383.745 296.864 393.784 291.129 399.623 291.062C406.164 290.986 412.117 297.755 405.453 306.675C399.121 315.149 388.22 317.775 379.754 340.668C374.171 355.759 373.811 366.063 373.811 366.063L367.194 362.253Z" fill="white"/>
<path d="M371.857 355.997C371.965 355.997 372.069 355.954 372.145 355.877C372.222 355.801 372.265 355.697 372.265 355.589C372.265 326.573 388.446 303.889 399.935 297.044C399.981 297.018 400.021 296.983 400.053 296.941C400.085 296.899 400.108 296.85 400.122 296.799C400.135 296.748 400.138 296.695 400.13 296.643C400.123 296.59 400.105 296.54 400.077 296.495C400.05 296.448 400.014 296.408 399.971 296.376C399.928 296.344 399.879 296.321 399.827 296.307C399.775 296.294 399.721 296.291 399.668 296.299C399.615 296.307 399.564 296.325 399.518 296.352C387.868 303.291 371.421 326.26 371.421 355.589C371.42 355.646 371.43 355.702 371.452 355.754C371.473 355.806 371.506 355.853 371.547 355.891C371.588 355.93 371.637 355.959 371.691 355.977C371.744 355.996 371.801 356.002 371.857 355.997Z" fill="white"/>
<path d="M373.809 366.064C375.402 359.59 379.724 353.125 388.265 346.698C396.806 340.271 408.238 334.763 407.3 328.204C406.361 321.644 397.707 322.108 391.365 325.009C385.023 327.91 370.197 340.47 370.51 364.159L373.809 366.064Z" fill="#2B50A5"/>
<path opacity="0.65" d="M373.809 366.064C375.402 359.59 379.724 353.125 388.265 346.698C396.806 340.271 408.238 334.763 407.3 328.204C406.361 321.644 397.707 322.108 391.365 325.009C385.023 327.91 370.197 340.47 370.51 364.159L373.809 366.064Z" fill="white"/>
<path d="M372.902 358.508C372.997 358.508 373.088 358.474 373.161 358.414C373.233 358.353 373.283 358.269 373.3 358.177C375.831 344.318 393.7 328.468 401.397 326.553C401.501 326.526 401.591 326.46 401.646 326.367C401.701 326.275 401.717 326.165 401.691 326.06C401.68 326.008 401.659 325.959 401.628 325.916C401.597 325.873 401.558 325.837 401.513 325.809C401.468 325.781 401.417 325.763 401.365 325.756C401.312 325.749 401.259 325.752 401.208 325.766C393.122 327.776 375.13 343.626 372.504 357.996C372.487 358.102 372.511 358.209 372.571 358.298C372.631 358.386 372.722 358.448 372.826 358.47L372.902 358.508Z" fill="white"/>
<path d="M370.495 269.685L231.707 189.556V311.66L370.495 391.789V269.685Z" fill="#2B50A5"/>
<path d="M231.708 189.556L203.621 205.765V327.879L231.708 311.66V189.556Z" fill="#2B50A5"/>
<path opacity="0.25" d="M231.708 189.556L203.621 205.765V327.879L231.708 311.66V189.556Z" fill="#2B50A5"/>
<path d="M370.495 265.865L231.707 185.735L200.311 203.86L203.619 205.765L231.707 189.556L367.196 267.78L370.495 265.865Z" fill="#2B50A5"/>
<path opacity="0.3" d="M370.495 265.865L231.707 185.735L200.311 203.86L203.619 205.765L231.707 189.556L367.196 267.78L370.495 265.865Z" fill="white"/>
<path d="M304.404 211.53L316.282 194.373C316.491 194.078 316.759 193.829 317.069 193.643C317.638 193.311 320.121 191.87 320.453 191.69C320.835 191.476 321.266 191.363 321.704 191.363C322.143 191.363 322.573 191.476 322.956 191.69L373.803 221.076V247.789L370.466 245.836V249.628L304.404 211.53Z" fill="#2B50A5"/>
<path d="M370.466 249.685V222.972L319.628 193.586C319.074 193.264 318.419 193.163 317.794 193.301C317.169 193.44 316.619 193.809 316.253 194.335L304.375 211.493L370.466 249.685Z" fill="#2B50A5"/>
<path opacity="0.3" d="M320.453 191.69C320.834 191.473 321.266 191.359 321.704 191.359C322.143 191.359 322.574 191.473 322.956 191.69L373.803 221.076L370.495 222.972L319.657 193.586C319.287 193.369 318.869 193.251 318.441 193.241C318.013 193.231 317.59 193.33 317.211 193.529C317.969 193.112 320.14 191.851 320.453 191.69Z" fill="white"/>
<path d="M370.495 222.972L373.803 221.067V247.78L370.495 249.685V222.972Z" fill="#2B50A5"/>
<path opacity="0.25" d="M370.495 222.972L373.803 221.067V247.78L370.495 249.685V222.972Z" fill="#2B50A5"/>
<path d="M351.934 369.693C351.601 369.886 351.223 369.988 350.839 369.988C350.454 369.988 350.076 369.886 349.744 369.693L232.948 302.266C232.434 301.93 232.007 301.478 231.7 300.946C231.394 300.414 231.217 299.817 231.185 299.204V200.23C231.162 200.011 231.199 199.79 231.29 199.59C231.382 199.39 231.526 199.218 231.706 199.092L235.014 197.196C235.214 197.104 235.434 197.067 235.652 197.089C235.87 197.111 236.079 197.19 236.256 197.319L353.403 264.974C353.918 265.307 354.346 265.757 354.652 266.288C354.959 266.818 355.135 267.414 355.166 268.026V366.536C355.165 366.922 355.063 367.301 354.868 367.634C354.673 367.967 354.393 368.243 354.057 368.432L351.934 369.693Z" fill="#F0F0F0"/>
<path d="M348.607 269.809L354.636 266.187C354.331 265.687 353.908 265.271 353.403 264.974L236.209 197.31C236.032 197.178 235.821 197.097 235.601 197.075C235.38 197.054 235.158 197.092 234.958 197.187L231.659 199.083C231.479 199.208 231.335 199.38 231.243 199.58C231.152 199.78 231.115 200.001 231.138 200.22V202.002L348.607 269.809Z" fill="#E0E0E0"/>
<path d="M350.94 369.75C351.451 369.75 351.508 369.153 351.508 368.897V269.932C351.472 269.393 351.312 268.87 351.04 268.403C350.769 267.936 350.394 267.538 349.944 267.24L232.741 199.566C232.567 199.456 232.368 199.394 232.162 199.386C232.098 199.382 232.034 199.392 231.973 199.415C231.913 199.438 231.858 199.473 231.812 199.519C231.65 199.719 231.572 199.973 231.594 200.23V299.195C231.626 299.736 231.784 300.262 232.053 300.732C232.323 301.203 232.698 301.604 233.148 301.906L350.352 369.57C350.525 369.68 350.725 369.742 350.93 369.75H350.94Z" fill="#FAFAFA"/>
<path d="M232.161 199.794H232.066C231.989 199.922 231.955 200.072 231.971 200.22V299.204C232.005 299.672 232.144 300.126 232.379 300.531C232.614 300.937 232.938 301.284 233.327 301.546L325.912 354.943L350.559 369.162C350.67 369.234 350.797 369.276 350.928 369.286C351.09 369.286 351.099 368.888 351.099 368.84V269.932C351.063 269.465 350.923 269.012 350.688 268.607C350.454 268.201 350.131 267.854 349.743 267.591L232.54 199.926C232.428 199.849 232.297 199.803 232.161 199.794ZM232.161 198.979C232.439 198.988 232.71 199.07 232.948 199.216L350.142 266.88C350.654 267.215 351.081 267.665 351.387 268.196C351.693 268.726 351.871 269.321 351.905 269.932V368.897C351.905 369.703 351.507 370.158 350.957 370.158C350.682 370.148 350.414 370.066 350.18 369.921L325.533 355.702L233.005 302.285C232.491 301.949 232.063 301.497 231.757 300.965C231.451 300.433 231.274 299.836 231.241 299.223V200.23C231.241 199.434 231.639 198.979 232.189 198.979H232.161Z" fill="#E0E0E0"/>
<path d="M344.455 374.006C344.12 374.197 343.741 374.298 343.355 374.298C342.97 374.298 342.591 374.197 342.256 374.006L225.431 306.598C224.917 306.265 224.489 305.814 224.183 305.284C223.876 304.753 223.7 304.157 223.668 303.545V204.552C223.644 204.334 223.678 204.113 223.768 203.913C223.858 203.713 224.001 203.541 224.18 203.414L227.488 201.519C227.687 201.425 227.908 201.387 228.126 201.408C228.345 201.43 228.554 201.511 228.73 201.642L345.972 269.296C346.482 269.632 346.906 270.083 347.21 270.613C347.513 271.144 347.686 271.738 347.716 272.349V370.859C347.711 371.244 347.606 371.621 347.411 371.953C347.217 372.285 346.94 372.561 346.607 372.755L344.455 374.006Z" fill="#F0F0F0"/>
<path d="M341.08 274.131L347.109 270.51C346.824 270.014 346.42 269.597 345.933 269.297L228.73 201.632C228.554 201.501 228.345 201.421 228.126 201.399C227.907 201.377 227.687 201.415 227.488 201.509L224.18 203.405C224.002 203.533 223.861 203.705 223.771 203.905C223.681 204.105 223.645 204.325 223.668 204.543V206.325L341.08 274.131Z" fill="#E0E0E0"/>
<path d="M343.449 374.072C343.961 374.072 344.018 373.475 344.018 373.219V274.254C343.988 273.71 343.832 273.18 343.563 272.706C343.293 272.232 342.916 271.827 342.463 271.524L225.26 203.86C225.084 203.747 224.881 203.682 224.672 203.67C224.608 203.668 224.545 203.679 224.486 203.703C224.427 203.728 224.374 203.765 224.331 203.813C224.169 204.012 224.091 204.267 224.113 204.523V303.489C224.146 304.028 224.303 304.553 224.573 305.022C224.842 305.491 225.217 305.891 225.668 306.19L342.871 373.902C343.044 374.014 343.243 374.079 343.449 374.091V374.072Z" fill="#FAFAFA"/>
<path d="M224.674 204.106C224.674 204.106 224.674 204.106 224.617 204.106C224.54 204.234 224.507 204.384 224.523 204.533V303.498C224.554 303.966 224.691 304.422 224.924 304.829C225.158 305.236 225.481 305.585 225.869 305.849L318.397 359.275L343.044 373.494C343.156 373.572 343.287 373.617 343.423 373.627C343.584 373.627 343.584 373.229 343.584 373.181V274.254C343.551 273.785 343.411 273.33 343.176 272.923C342.942 272.516 342.617 272.167 342.229 271.903L225.053 204.22C224.94 204.146 224.81 204.101 224.674 204.087M224.674 203.282C224.953 203.291 225.224 203.372 225.461 203.519L342.665 271.202C343.178 271.536 343.605 271.987 343.911 272.517C344.217 273.047 344.394 273.643 344.428 274.254V373.219C344.428 374.015 344.03 374.48 343.48 374.48C343.201 374.47 342.93 374.389 342.693 374.243L318.047 360.024L225.433 306.598C224.918 306.265 224.491 305.814 224.184 305.284C223.878 304.753 223.701 304.157 223.669 303.545V204.552C223.669 203.756 224.058 203.301 224.617 203.301L224.674 203.282Z" fill="#E0E0E0"/>
<path d="M336.975 378.329C336.641 378.52 336.262 378.62 335.876 378.62C335.49 378.62 335.111 378.52 334.776 378.329L217.98 310.892C217.467 310.558 217.041 310.108 216.736 309.577C216.431 309.046 216.257 308.451 216.227 307.84V208.875C216.203 208.654 216.239 208.432 216.331 208.23C216.423 208.028 216.567 207.855 216.748 207.728L220.056 205.832C220.257 205.742 220.477 205.707 220.695 205.731C220.913 205.754 221.121 205.835 221.298 205.964L338.492 273.619C339.004 273.952 339.43 274.402 339.737 274.93C340.043 275.459 340.221 276.052 340.255 276.662V375.181C340.25 375.568 340.144 375.945 339.948 376.278C339.752 376.61 339.472 376.886 339.137 377.077L336.975 378.329Z" fill="#F0F0F0"/>
<path d="M333.641 278.444L339.669 274.823C339.379 274.331 338.976 273.915 338.494 273.61L221.291 205.945C221.112 205.818 220.904 205.74 220.686 205.718C220.468 205.696 220.248 205.732 220.049 205.822L216.74 207.718C216.559 207.843 216.415 208.015 216.323 208.215C216.231 208.415 216.195 208.637 216.219 208.856V210.638L333.641 278.444Z" fill="#E0E0E0"/>
<path d="M335.971 378.395C336.483 378.395 336.54 377.797 336.54 377.541V278.567C336.504 278.028 336.344 277.505 336.073 277.038C335.801 276.571 335.426 276.173 334.975 275.875L217.781 208.211C217.605 208.099 217.402 208.034 217.194 208.021C217.064 208.018 216.938 208.066 216.843 208.154C216.683 208.355 216.605 208.609 216.625 208.865V307.839C216.659 308.38 216.818 308.905 217.089 309.374C217.36 309.843 217.737 310.243 218.189 310.541L335.393 378.205C335.569 378.317 335.772 378.382 335.98 378.395H335.971Z" fill="#FAFAFA"/>
<path d="M217.194 208.429C217.146 208.429 217.137 208.429 217.137 208.429C217.053 208.555 217.016 208.706 217.033 208.856V307.821C217.066 308.29 217.206 308.745 217.44 309.152C217.675 309.559 217.999 309.908 218.388 310.172L310.917 363.589L335.563 377.808C335.675 377.886 335.806 377.932 335.942 377.94C336.104 377.94 336.104 377.533 336.104 377.495V278.568C336.067 278.109 335.929 277.665 335.7 277.266C335.47 276.868 335.155 276.526 334.776 276.264L217.573 208.6C217.461 208.523 217.33 208.477 217.194 208.467M217.194 207.652C217.474 207.662 217.746 207.747 217.981 207.899L335.184 275.525C335.696 275.858 336.122 276.307 336.429 276.836C336.735 277.365 336.913 277.958 336.947 278.568V377.542C336.947 378.338 336.549 378.803 335.999 378.803C335.72 378.794 335.448 378.708 335.213 378.557L310.566 364.337L218.038 310.911C217.525 310.578 217.098 310.127 216.793 309.596C216.488 309.066 216.314 308.47 216.284 307.859V208.875C216.284 208.079 216.682 207.614 217.232 207.614L217.194 207.652Z" fill="#E0E0E0"/>
<path d="M196.993 205.765V323.812C197.058 325.034 197.412 326.223 198.025 327.283C198.637 328.342 199.492 329.241 200.52 329.907L335.582 407.875C336.673 408.43 337.88 408.719 339.104 408.719C340.328 408.719 341.534 408.43 342.625 407.875L370.286 391.912C371.31 391.244 372.162 390.343 372.773 389.284C373.384 388.225 373.737 387.037 373.803 385.817V267.732L339.099 287.771L196.993 205.765Z" fill="#2B50A5"/>
<path opacity="0.25" d="M339.099 267.81V388.72C340.328 388.747 341.542 388.456 342.625 387.876L370.286 371.913C371.31 371.244 372.162 370.344 372.773 369.285C373.384 368.226 373.737 367.038 373.803 365.817V247.732L339.099 267.81Z" fill="#2B50A5"/>
<path d="M197.002 205.766L200.311 203.86L339.099 283.99L367.196 267.78L370.495 269.685L339.099 287.81L197.002 205.766Z" fill="#2B50A5"/>
<path opacity="0.3" d="M197.002 205.766L200.311 203.86L339.099 283.99L367.196 267.78L370.495 269.685L339.099 287.81L197.002 205.766Z" fill="white"/>
<path d="M287.588 346.222C288.05 346.223 288.504 346.102 288.905 345.872C289.392 345.55 289.783 345.102 290.036 344.577C290.29 344.051 290.397 343.467 290.346 342.886V305.233C290.285 303.867 289.897 302.536 289.214 301.352C288.531 300.167 287.573 299.164 286.422 298.427L220.758 260.509C220.296 260.14 219.733 259.919 219.143 259.875C218.554 259.83 217.964 259.965 217.452 260.261C216.94 260.557 216.529 261 216.274 261.533C216.018 262.066 215.929 262.664 216.018 263.249V300.911C216.08 302.278 216.47 303.609 217.154 304.794C217.839 305.979 218.799 306.981 219.952 307.717L285.606 345.635C286.203 346.002 286.887 346.205 287.588 346.222ZM285.606 299.83C286.506 300.43 287.255 301.23 287.794 302.167C288.334 303.105 288.649 304.154 288.716 305.233V342.886C288.754 343.179 288.717 343.478 288.608 343.754C288.498 344.029 288.32 344.272 288.09 344.459C287.814 344.566 287.516 344.6 287.223 344.556C286.931 344.513 286.655 344.395 286.422 344.213L220.758 306.295C219.858 305.695 219.109 304.895 218.57 303.958C218.031 303.02 217.715 301.971 217.648 300.892V263.258C217.611 262.965 217.648 262.666 217.757 262.391C217.867 262.115 218.045 261.872 218.274 261.685C218.551 261.578 218.851 261.545 219.145 261.588C219.439 261.631 219.717 261.749 219.952 261.931L285.606 299.849V299.83Z" fill="#FAFAFA"/>
<path opacity="0.3" d="M322.577 258.273V380.378L312.671 374.652V252.548L322.577 258.273Z" fill="#2B50A5"/>
<path d="M318.491 340.375V339.702L317.534 339.152V338.005V339.38L316.965 339.057V336.299L317.534 336.621V336.849L318.491 337.398V336.687L322.577 339.048V342.735L318.491 340.375Z" fill="#E0E0E0"/>
<path d="M318.491 346.479V345.805L317.534 345.256V344.109V345.483L316.965 345.161V342.402L317.534 342.725V342.952L318.491 343.502V342.791L322.577 345.151V348.839L318.491 346.479Z" fill="#E0E0E0"/>
<path d="M318.491 334.27V333.596L317.534 333.037V331.9V333.274L316.965 332.952V330.193L317.534 330.516V330.743L318.491 331.293V330.582L322.577 332.942V336.63L318.491 334.27Z" fill="#E0E0E0"/>
<path d="M318.491 352.583V351.91L317.534 351.351V350.214V351.588L316.965 351.266V348.507L317.534 348.83V349.057L318.491 349.607V348.896L322.577 351.256V354.944L318.491 352.583Z" fill="#E0E0E0"/>
<path d="M318.491 328.166V327.493L317.534 326.943V325.796V327.171L316.965 326.848V324.09L317.534 324.412V324.64L318.491 325.189V324.479L322.577 326.839V330.526L318.491 328.166Z" fill="#E0E0E0"/>
<path d="M318.491 364.793V364.12L317.534 363.561V362.424V363.798L316.965 363.476V360.717L317.534 361.04V361.267L318.491 361.817V361.106L322.577 363.466V367.154L318.491 364.793Z" fill="#E0E0E0"/>
<path d="M318.491 370.897V370.224L317.534 369.665V368.528V369.902L316.965 369.58V366.821L317.534 367.144V367.371L318.491 367.921V367.21L322.577 369.57V373.258L318.491 370.897Z" fill="#E0E0E0"/>
<path d="M318.491 377.002V376.329L317.534 375.77V374.633V376.007L316.965 375.685V372.926L317.534 373.249V373.476L318.491 374.026V373.315L322.577 375.675V379.363L318.491 377.002Z" fill="#E0E0E0"/>
<path d="M318.491 322.06V321.387L317.534 320.827V319.68V321.064L316.965 320.742V317.983L317.534 318.306V318.533L318.491 319.083V318.372L322.577 320.732V324.42L318.491 322.06Z" fill="#E0E0E0"/>
<path d="M318.491 358.688V358.015L317.534 357.456V356.318V357.693L316.965 357.37V354.612L317.534 354.934V355.162L318.491 355.711V355L322.577 357.361V361.048L318.491 358.688Z" fill="#E0E0E0"/>
<path d="M318.491 285.423V284.759L317.534 284.2V283.053V284.437L316.965 284.114V281.356L317.534 281.678V281.906L318.491 282.456V281.745L322.577 284.105V287.792L318.491 285.423Z" fill="#E0E0E0"/>
<path d="M318.491 273.213V272.549L317.534 271.99V270.843V272.227L316.965 271.905V269.146L317.534 269.468V269.696L318.491 270.246V269.535L322.577 271.895V275.583L318.491 273.213Z" fill="#E0E0E0"/>
<path d="M317.713 377.562L312.67 374.652V373.183L316.756 375.543V376.216L317.713 376.766V377.562Z" fill="#E0E0E0"/>
<path d="M318.491 279.318V278.655L317.534 278.095V276.948V278.332L316.965 278.01V275.251L317.534 275.574V275.801L318.491 276.351V275.64L322.577 278V281.688L318.491 279.318Z" fill="#E0E0E0"/>
<path d="M322.577 259.686V263.373L318.491 261.003V260.34L317.534 259.78V258.633V260.017L316.965 259.695V256.937L317.534 257.259V257.486L318.491 258.036V257.325L322.577 259.686Z" fill="#E0E0E0"/>
<path d="M318.491 315.955V315.282L317.534 314.723V313.576V314.96L316.965 314.637V311.879L317.534 312.201V312.429L318.491 312.978V312.268L322.577 314.628V318.315L318.491 315.955Z" fill="#E0E0E0"/>
<path d="M318.491 267.108V266.444L317.534 265.885V264.738V266.122L316.965 265.8V263.041L317.534 263.363V263.591L318.491 264.141V263.43L322.577 265.79V269.478L318.491 267.108Z" fill="#E0E0E0"/>
<path d="M318.491 303.747V303.074L317.534 302.514V301.367V302.751L316.965 302.429V299.67L317.534 299.993V300.22L318.491 300.77V300.059L322.577 302.419V306.107L318.491 303.747Z" fill="#E0E0E0"/>
<path d="M318.491 309.851V309.178L317.534 308.619V307.472V308.856L316.965 308.533V305.775L317.534 306.097V306.325L318.491 306.875V306.164L322.577 308.524V312.211L318.491 309.851Z" fill="#E0E0E0"/>
<path d="M318.491 297.641V296.968L317.534 296.409V295.262V296.646L316.965 296.323V293.565L317.534 293.887V294.115L318.491 294.665V293.954L322.577 296.314V300.001L318.491 297.641Z" fill="#E0E0E0"/>
<path d="M318.491 291.537V290.864L317.534 290.304V289.157V290.541L316.965 290.219V287.46L317.534 287.783V288.01L318.491 288.56V287.849L322.577 290.209V293.897L318.491 291.537Z" fill="#E0E0E0"/>
<path d="M316.758 351.02V351.693L317.716 352.252V353.39V352.006L318.285 352.338V355.096L317.716 354.764V354.556L316.758 353.997V354.708L312.673 352.347V348.66L316.758 351.02Z" fill="#E0E0E0"/>
<path d="M316.758 289.973V290.646L317.716 291.205V292.343V290.959L318.285 291.29V294.049L317.716 293.717V293.509L316.758 292.949V293.66L312.673 291.3V287.612L316.758 289.973Z" fill="#E0E0E0"/>
<path d="M316.758 283.877V284.54L317.716 285.1V286.237V284.853L318.285 285.185V287.943L317.716 287.612V287.403L316.758 286.844V287.555L312.673 285.194V281.507L316.758 283.877Z" fill="#E0E0E0"/>
<path d="M316.758 296.077V296.75L317.716 297.309V298.447V297.063L318.285 297.394V300.153L317.716 299.821V299.613L316.758 299.053V299.764L312.673 297.404V293.716L316.758 296.077Z" fill="#E0E0E0"/>
<path d="M316.758 277.772V278.436L317.716 278.995V280.133V278.749L318.285 279.08V281.839L317.716 281.507V281.289L316.758 280.739V281.45L312.673 279.09V275.402L316.758 277.772Z" fill="#E0E0E0"/>
<path d="M316.758 302.182V302.855L317.716 303.414V304.552V303.168L318.285 303.499V306.258L317.716 305.926V305.717L316.758 305.158V305.869L312.673 303.509V299.821L316.758 302.182Z" fill="#E0E0E0"/>
<path d="M317.716 255.458V255.714V255.458L318.285 255.79V257.42L317.716 257.088V256.87L316.758 256.321V257.032L312.673 254.671V252.548L317.716 255.458Z" fill="#E0E0E0"/>
<path d="M316.758 271.658V272.331L317.716 272.891V274.028V272.644L318.285 272.976V275.734L317.716 275.403V275.185L316.758 274.635V275.346L312.673 272.985V269.298L316.758 271.658Z" fill="#E0E0E0"/>
<path d="M316.758 308.287V308.96L317.716 309.519V310.657V309.273L318.285 309.605V312.363L317.716 312.031V311.823L316.758 311.264V311.975L312.673 309.614V305.927L316.758 308.287Z" fill="#E0E0E0"/>
<path d="M316.758 259.449V260.122L317.716 260.682V261.819V260.435L318.285 260.767V263.525L317.716 263.194V262.976L316.758 262.426V263.137L312.673 260.776V257.089L316.758 259.449Z" fill="#E0E0E0"/>
<path d="M316.758 265.553V266.226L317.716 266.786V267.923V266.539L318.285 266.871V269.629L317.716 269.298V269.08L316.758 268.53V269.241L312.673 266.88V263.193L316.758 265.553Z" fill="#E0E0E0"/>
<path d="M316.758 338.81V339.483L317.716 340.042V341.17V339.796L318.285 340.128V342.886L317.716 342.554V342.346L316.758 341.787V342.498L312.673 340.137V336.45L316.758 338.81Z" fill="#E0E0E0"/>
<path d="M316.758 344.916V345.589L317.716 346.148V347.276V345.901L318.285 346.233V348.992L317.716 348.66V348.451L316.758 347.892V348.603L312.673 346.243V342.555L316.758 344.916Z" fill="#E0E0E0"/>
<path d="M316.758 363.239V363.902L317.716 364.461V365.599V364.215L318.285 364.547V367.305L317.716 366.973V366.755L316.758 366.206V366.917L312.673 364.556V360.869L316.758 363.239Z" fill="#E0E0E0"/>
<path d="M316.758 357.125V357.798L317.716 358.357V359.485V358.11L318.285 358.442V361.201L317.716 360.869V360.66L316.758 360.101V360.812L312.673 358.452V354.764L316.758 357.125Z" fill="#E0E0E0"/>
<path d="M316.758 369.344V370.008L317.716 370.567V371.704V370.32L318.285 370.652V373.411L317.716 373.079V372.87L316.758 372.311V373.022L312.673 370.662V366.974L316.758 369.344Z" fill="#E0E0E0"/>
<path d="M316.758 320.496V321.169L317.716 321.728V322.857V321.482L318.285 321.814V324.572L317.716 324.24V324.032L316.758 323.473V324.184L312.673 321.823V318.136L316.758 320.496Z" fill="#E0E0E0"/>
<path d="M316.758 314.391V315.064L317.716 315.623V316.752V315.377L318.285 315.709V318.467L317.716 318.136V317.927L316.758 317.368V318.079L312.673 315.718V312.031L316.758 314.391Z" fill="#E0E0E0"/>
<path d="M316.758 326.6V327.273L317.716 327.832V328.961V327.586L318.285 327.918V330.676L317.716 330.344V330.136L316.758 329.577V330.288L312.673 327.927V324.24L316.758 326.6Z" fill="#E0E0E0"/>
<path d="M317.716 376.529L318.285 376.861V377.894L317.716 377.562V376.529Z" fill="#E0E0E0"/>
<path d="M316.758 332.705V333.378L317.716 333.937V335.065V333.691L318.285 334.023V336.781L317.716 336.449V336.241L316.758 335.682V336.393L312.673 334.032V330.345L316.758 332.705Z" fill="#E0E0E0"/>
<path d="M309.251 254.472L311.014 253.42C311.624 253.168 312.284 253.062 312.943 253.109C313.601 253.157 314.239 253.357 314.806 253.695L320.494 256.975C321.841 257.824 322.981 258.964 323.83 260.311L324.693 261.809C325.025 262.464 325.197 263.189 325.197 263.923C325.197 264.657 325.025 265.382 324.693 266.037L323.83 267.535C323.091 268.942 322.674 270.496 322.608 272.085V275.222C322.63 275.439 322.596 275.659 322.508 275.858C322.419 276.058 322.281 276.231 322.105 276.36L320.332 277.384C320.132 277.478 319.91 277.517 319.69 277.495C319.469 277.474 319.259 277.392 319.081 277.261L312.645 273.611C312.132 273.279 311.705 272.83 311.398 272.301C311.092 271.772 310.915 271.178 310.881 270.568V267.411C310.832 265.802 310.56 264.207 310.076 262.672L308.369 257.742C308.135 257.176 308.095 256.549 308.254 255.957C308.413 255.366 308.764 254.844 309.251 254.472Z" fill="#2B50A5"/>
<path d="M324.665 261.837C324.996 262.492 325.169 263.216 325.169 263.951C325.169 264.685 324.996 265.409 324.665 266.065L323.802 267.562C323.063 268.97 322.645 270.524 322.579 272.113V275.222C322.602 275.439 322.567 275.658 322.479 275.857C322.391 276.057 322.252 276.23 322.077 276.359L320.304 277.383C320.146 277.465 319.97 277.507 319.792 277.507C319.614 277.507 319.439 277.465 319.28 277.383V263.79L324.172 260.946L324.665 261.837Z" fill="#2B50A5"/>
<path d="M313.013 254.737C312.445 254.401 311.807 254.202 311.149 254.156C310.49 254.11 309.831 254.218 309.221 254.472C308.741 254.846 308.398 255.369 308.244 255.958C308.089 256.547 308.133 257.171 308.368 257.732L310.074 262.662C310.559 264.197 310.83 265.792 310.88 267.401V270.558C310.912 271.17 311.088 271.766 311.395 272.296C311.701 272.827 312.129 273.277 312.643 273.61L319.023 277.279C319.971 277.838 320.786 277.383 320.786 276.265V273.137C320.851 271.545 321.269 269.988 322.009 268.577L322.872 267.079C323.203 266.424 323.376 265.7 323.376 264.965C323.376 264.231 323.203 263.507 322.872 262.851L322.009 261.363C321.162 260.014 320.022 258.873 318.672 258.026L313.013 254.737Z" fill="#455A64"/>
<path d="M315.97 270.483L315.136 270V271.08L315.97 270.483Z" fill="#2B50A5"/>
<path d="M315.97 259.98L315.146 260.454C314.863 260.723 314.642 261.051 314.5 261.414C314.357 261.778 314.296 262.168 314.321 262.558V270.748C314.321 271.355 314.482 271.782 314.728 271.924L312.889 270.862C312.643 270.72 312.482 270.293 312.482 269.687V261.496C312.457 261.107 312.518 260.716 312.661 260.353C312.803 259.989 313.024 259.661 313.306 259.392L314.131 258.918L315.97 259.98Z" fill="#2B50A5"/>
<path d="M315.969 271.43V270.482L315.144 270.966C315.139 270.893 315.139 270.82 315.144 270.748V262.558C315.118 262.054 315.269 261.558 315.571 261.155L315.979 260.918V259.97L315.154 260.444C314.871 260.713 314.651 261.041 314.508 261.404C314.366 261.768 314.305 262.158 314.329 262.548V270.738C314.329 271.345 314.49 271.772 314.737 271.914C314.8 271.95 314.872 271.97 314.945 271.97C315.018 271.97 315.09 271.95 315.154 271.914L315.979 271.44L315.969 271.43Z" fill="#2B50A5"/>
<path d="M309.735 277.573C310.569 276.091 311.006 274.42 311.006 272.72V267.127L312.238 266.406L312.475 266.548V269.686C312.445 269.901 312.468 270.12 312.54 270.325C312.613 270.529 312.733 270.713 312.892 270.862L313.906 271.449V274.047L315.973 275.222V271.43L315.148 270.956C315.143 270.893 315.143 270.83 315.148 270.767V268.103L319.082 270.378V276.113C319.11 278.123 319.456 280.116 320.106 282.019C320.368 282.674 320.509 283.371 320.523 284.076C320.555 284.464 320.484 284.855 320.317 285.207C320.151 285.56 319.895 285.863 319.575 286.085C319.347 286.228 318.466 286.721 318.257 286.844C317.847 287.025 317.396 287.094 316.95 287.046C316.504 286.998 316.079 286.833 315.717 286.569L312.873 284.92C311.871 284.287 311.03 283.429 310.419 282.413C309.809 281.397 309.445 280.253 309.356 279.071C309.338 278.546 309.469 278.026 309.735 277.573ZM314.883 282.607L316.238 283.393C316.361 283.464 316.491 283.521 316.627 283.564C316.637 283.466 316.637 283.368 316.627 283.27C316.585 282.713 316.413 282.173 316.125 281.694C315.837 281.215 315.44 280.81 314.968 280.512L313.622 279.725C313.496 279.66 313.366 279.603 313.233 279.554C313.219 279.655 313.219 279.757 313.233 279.858C313.272 280.413 313.442 280.952 313.728 281.43C314.015 281.907 314.411 282.311 314.883 282.607Z" fill="#2B50A5"/>
<path d="M309.734 277.573C310.567 276.091 311.005 274.42 311.004 272.72V267.127L312.474 267.971V269.686C312.461 270.014 312.529 270.34 312.673 270.634V274.777L315.972 276.673V271.431L315.147 270.947C315.142 270.881 315.142 270.814 315.147 270.748V269.535L315.981 270.018L317.877 271.099V276.843C317.903 278.853 318.245 280.846 318.891 282.749C319.155 283.401 319.299 284.094 319.318 284.797C319.318 286.911 317.735 287.707 315.792 286.579L312.948 284.929C311.945 284.297 311.105 283.439 310.494 282.423C309.883 281.407 309.519 280.262 309.431 279.081C309.388 278.56 309.493 278.037 309.734 277.573ZM313.649 283.327L314.995 284.105C315.943 284.635 316.654 284.256 316.654 283.27C316.612 282.713 316.44 282.173 316.152 281.694C315.864 281.215 315.468 280.81 314.995 280.512L313.649 279.725C312.701 279.204 311.99 279.583 311.99 280.578C312.032 281.134 312.203 281.673 312.492 282.151C312.78 282.628 313.176 283.031 313.649 283.327Z" fill="#455A64"/>
<path d="M317.837 271.08L319.069 270.369L315.135 268.094V269.516L317.837 271.08Z" fill="#2B50A5"/>
<path d="M311.002 267.127L312.235 266.406L312.434 266.52V267.942L311.002 267.127Z" fill="#2B50A5"/>
<path d="M313.904 274.047L312.671 274.758L315.97 276.673V275.241L313.904 274.047Z" fill="#2B50A5"/>
<path d="M314.996 284.104L313.649 283.327C313.2 283.051 312.82 282.675 312.54 282.227L313.782 281.507C314.058 281.954 314.435 282.33 314.882 282.606L316.237 283.393C316.36 283.464 316.491 283.521 316.626 283.564C316.436 284.322 315.811 284.578 314.996 284.104Z" fill="#2B50A5"/>
<path d="M67.1301 335.425C67.3481 331.529 69.2914 292.227 69.2914 292.227L50.6359 306.531C53.8305 328.979 55.0723 334.97 55.2145 338.761C55.138 339.071 55.1092 339.391 55.1292 339.709C55.2334 344.155 60.2954 346.459 64.2768 349.35C67.6472 351.899 71.2346 354.148 74.998 356.071C77.8418 357.445 83.6622 357.464 84.3447 355.616C79.5007 352.071 73.9174 348.193 70.0403 344.117C68.1728 342.146 66.8362 340.098 67.1301 335.425Z" fill="#FFBDA7"/>
<path d="M92.5462 360.232C92.7926 360.232 93.2097 362.915 91.9016 364.09C90.3943 365.436 85.939 367.693 79.9764 367.038C74.0139 366.384 70.7625 364.602 68.3452 362.659C65.928 360.716 62.5438 357.967 59.8137 357.426C57.3017 356.924 54.5716 355.843 53.7564 355.085C52.9412 354.327 52.9886 350.895 52.9886 350.895L92.5462 360.232Z" fill="#2B50A5"/>
<path d="M55.1331 337.643C54.9146 337.656 54.7074 337.744 54.5467 337.893C54.386 338.041 54.2817 338.241 54.2515 338.458C54.0903 339.406 53.9387 342.164 53.5784 343.728C53.0166 346.475 52.8728 349.29 53.1519 352.08C53.5121 353.824 57.6072 354.924 60.233 355.872C63.3209 357.15 66.1973 358.888 68.7645 361.028C71.6083 363.284 77.5234 365.569 81.4005 365.465C85.9791 365.341 91.1169 363.758 92.2544 361.616C93.6669 358.952 92.4914 357.455 85.6189 354.431C84.3202 353.862 79.7511 351.274 78.187 350.326C73.9687 347.786 69.7693 344.212 67.7596 339.605C67.591 339.038 67.2372 338.544 66.7548 338.202C66.3321 338.036 65.8682 338.006 65.4277 338.117C64.2971 338.297 63.2007 338.648 62.1763 339.159C61.2757 339.614 59.9865 340.107 60.0339 341.311C60.0588 341.719 60.1517 342.119 60.3088 342.496C60.3941 342.733 60.4605 343.046 60.2614 343.188C60.0624 343.33 59.7969 343.188 59.6168 343.027C58.9272 342.359 58.2931 341.636 57.7209 340.866C57.3955 340.466 57.0267 340.103 56.6213 339.785C56.2128 339.57 55.82 339.326 55.4459 339.055C55.0762 338.704 55.171 338.183 55.1331 337.643Z" fill="#2B50A5"/>
<path d="M68.7622 361.076C67.5583 360.128 66.2786 359.18 64.9704 358.384C64.9704 358.384 73.0564 363.124 76.2509 360.83C78.2985 359.36 77.2747 357.654 77.1989 357.104C77.123 356.554 82.223 354.09 84.2421 353.815C84.8108 354.118 85.2848 354.355 85.5882 354.488C92.4418 357.512 93.6172 359.01 92.2237 361.673C91.0862 363.816 87.3798 365.55 81.4551 365.664C77.5591 365.721 71.5965 363.332 68.7622 361.076Z" fill="#455A64"/>
<path d="M76.6126 355.502C80.8688 357.104 79.0772 357.929 77.9018 358.118C76.7263 358.308 69.522 354.326 65.1235 350.942C60.526 347.454 57.5969 343.586 55.8906 342.306C55.2555 341.832 54.573 341.235 53.9947 340.685C54.0895 339.738 54.1653 338.903 54.2412 338.458C54.2714 338.241 54.3757 338.041 54.5364 337.893C54.6971 337.744 54.9043 337.656 55.1227 337.643C55.1227 338.183 55.0659 338.704 55.4924 339.102C55.8666 339.373 56.2593 339.617 56.6679 339.832C57.0733 340.151 57.4421 340.513 57.7675 340.913C58.3397 341.684 58.9737 342.407 59.6634 343.074C63.4267 347.691 72.3942 353.89 76.6126 355.502Z" fill="#2B50A5"/>
<path d="M77.6349 357.513C77.5379 357.514 77.4435 357.481 77.3695 357.418C77.3257 357.384 77.289 357.343 77.2615 357.295C77.234 357.247 77.2161 357.194 77.2091 357.14C77.202 357.085 77.2059 357.03 77.2204 356.977C77.2349 356.923 77.2598 356.874 77.2937 356.83C78.2739 355.78 79.4665 354.952 80.7922 354.399C82.1178 353.847 83.546 353.583 84.9815 353.626C85.0913 353.638 85.1922 353.692 85.2629 353.777C85.3337 353.862 85.3687 353.971 85.3607 354.081C85.3572 354.136 85.3425 354.19 85.3174 354.24C85.2923 354.289 85.2574 354.333 85.2148 354.369C85.1722 354.404 85.1229 354.431 85.0697 354.446C85.0165 354.462 84.9607 354.467 84.9057 354.46C83.61 354.432 82.3228 354.675 81.1263 355.172C79.9298 355.67 78.8504 356.412 77.9573 357.352C77.9177 357.399 77.8686 357.438 77.8131 357.466C77.7576 357.494 77.6969 357.51 77.6349 357.513Z" fill="#F0F0F0"/>
<path d="M73.899 355.313C73.8025 355.311 73.7091 355.278 73.6335 355.218C73.5905 355.184 73.5546 355.141 73.5279 355.093C73.5013 355.045 73.4844 354.992 73.4782 354.938C73.472 354.883 73.4767 354.828 73.492 354.775C73.5073 354.722 73.5328 354.673 73.5672 354.63C74.5467 353.58 75.7394 352.752 77.0654 352.201C78.3914 351.65 79.8199 351.389 81.255 351.435C81.364 351.445 81.4649 351.497 81.5358 351.581C81.6067 351.664 81.6421 351.772 81.6342 351.881C81.6307 351.936 81.616 351.99 81.5909 352.04C81.5658 352.089 81.5309 352.133 81.4883 352.169C81.4457 352.204 81.3963 352.231 81.3432 352.246C81.29 352.262 81.2342 352.267 81.1792 352.26C79.8825 352.235 78.5946 352.478 77.397 352.976C76.1993 353.474 75.118 354.214 74.2213 355.151C74.1826 355.2 74.1337 355.24 74.078 355.268C74.0223 355.296 73.9612 355.311 73.899 355.313Z" fill="#F0F0F0"/>
<path d="M70.1738 353.228C70.0785 353.229 69.9854 353.199 69.9084 353.143C69.8642 353.109 69.8273 353.067 69.7999 353.019C69.7725 352.971 69.7551 352.918 69.7489 352.863C69.7427 352.808 69.7477 352.752 69.7637 352.699C69.7797 352.646 69.8064 352.597 69.842 352.555C70.8173 351.501 72.0077 350.67 73.3325 350.117C74.6573 349.564 76.0856 349.303 77.5203 349.351C77.5752 349.356 77.6286 349.371 77.6774 349.397C77.7262 349.422 77.7694 349.457 77.8047 349.499C77.8399 349.542 77.8665 349.59 77.8827 349.643C77.899 349.696 77.9047 349.751 77.8995 349.806C77.896 349.861 77.8813 349.915 77.8562 349.965C77.8311 350.014 77.7962 350.058 77.7536 350.093C77.711 350.129 77.6617 350.155 77.6085 350.171C77.5554 350.187 77.4996 350.191 77.4445 350.185C76.1523 350.15 74.8669 350.385 73.6705 350.874C72.4741 351.364 71.393 352.098 70.4961 353.029C70.4619 353.085 70.4149 353.132 70.3588 353.167C70.3028 353.202 70.2394 353.222 70.1738 353.228Z" fill="#F0F0F0"/>
<path d="M66.7146 350.839C66.6165 350.838 66.5208 350.809 66.4397 350.753C66.3966 350.719 66.3607 350.677 66.334 350.629C66.3074 350.581 66.2905 350.528 66.2843 350.473C66.2781 350.419 66.2828 350.364 66.2981 350.311C66.3134 350.258 66.3389 350.209 66.3733 350.166C67.3516 349.114 68.5439 348.283 69.87 347.731C71.1961 347.178 72.6252 346.916 74.0611 346.962C74.1709 346.974 74.2718 347.028 74.3425 347.113C74.4133 347.198 74.4483 347.307 74.4403 347.417C74.4355 347.472 74.4199 347.525 74.3945 347.574C74.369 347.623 74.3341 347.666 74.2918 347.701C74.2495 347.736 74.2006 347.763 74.148 347.779C74.0954 347.795 74.0401 347.801 73.9853 347.796C72.6918 347.762 71.4053 347.997 70.2075 348.487C69.0097 348.976 67.9268 349.709 67.0274 350.64C66.9953 350.696 66.9501 350.743 66.8956 350.778C66.8411 350.813 66.7789 350.833 66.7146 350.839Z" fill="#F0F0F0"/>
<path d="M63.3404 348.45C63.2451 348.451 63.1521 348.421 63.075 348.365C63.0301 348.332 62.9924 348.291 62.9641 348.243C62.9358 348.195 62.9176 348.142 62.9105 348.087C62.9034 348.032 62.9076 347.976 62.9228 347.923C62.9381 347.87 62.9641 347.82 62.9992 347.777C64.5917 345.673 68.2792 344.241 71.3884 344.526C71.4434 344.528 71.4972 344.541 71.5466 344.566C71.596 344.59 71.6399 344.624 71.6756 344.665C71.7112 344.707 71.7377 344.756 71.7536 344.809C71.7694 344.861 71.7742 344.917 71.7676 344.971C71.764 345.026 71.7496 345.08 71.7252 345.129C71.7009 345.178 71.667 345.222 71.6256 345.258C71.5842 345.294 71.5361 345.322 71.484 345.339C71.4319 345.357 71.3769 345.364 71.3221 345.36C68.4783 345.104 65.0846 346.422 63.6627 348.289C63.624 348.338 63.5751 348.377 63.5194 348.405C63.4638 348.433 63.4027 348.448 63.3404 348.45Z" fill="#F0F0F0"/>
<path d="M28.6528 306.333L10.6419 304.342C9.76036 316.912 10.4713 331.027 9.69401 342.829C9.55182 345.047 8.05406 360.043 8.47115 364.631C9.08731 371.599 17.306 371.428 18.1212 367.361C18.9364 363.295 19.5716 345.748 19.7327 343.947C20.3583 336.364 23.9416 326.97 27.0413 313.613C27.2214 312.931 28.5012 306.978 28.6528 306.333Z" fill="#FFBDA7"/>
<path d="M20.8989 370.546C20.6999 374.584 20.0932 377.276 18.6807 379.656C17.2683 382.035 14.5667 382.803 11.8271 382.13C9.08757 381.457 5.56123 379.637 4.746 376.158C3.93077 372.679 4.07296 370.29 4.66068 366.536L20.8989 370.546Z" fill="#2B50A5"/>
<path d="M9.7633 341.388C8.63525 341.482 8.35087 346.914 7.74418 352.346C7.09011 358.176 5.37431 360.593 4.79607 365.371C4.12303 370.831 4.43586 373.267 6.36966 376.547C8.30346 379.827 15.1002 383.002 18.3895 378.253C21.0817 374.386 21.1576 370.12 20.8637 364.669C20.5603 359.048 20.3044 355.085 20.494 350.81C20.6836 346.734 20.93 342.772 19.9442 342.326C19.8778 342.923 19.8115 343.682 19.7356 344.279C19.6788 344.724 19.584 346.943 18.9489 346.962C18.9014 346.451 18.9014 345.937 18.9489 345.426C19.0117 344.965 18.8965 344.497 18.6265 344.118C18.2801 343.798 17.8359 343.604 17.3658 343.568C16.2571 343.342 15.1368 343.178 14.0101 343.075C13.4458 343.028 12.8795 343.009 12.3133 343.018C11.8303 343.009 11.3495 343.083 10.8914 343.236C10.7546 343.278 10.629 343.349 10.524 343.446C10.4189 343.543 10.3371 343.663 10.2847 343.795C10.2274 343.995 10.2082 344.204 10.2278 344.412C10.231 344.792 10.1864 345.171 10.0951 345.54C10.0951 345.701 9.9434 345.89 9.78225 345.852C9.6211 345.815 9.60214 345.663 9.60214 345.53C9.60214 344.867 9.6685 344.393 9.69694 343.634C9.69694 343.284 9.75383 342.8 9.7633 342.44C9.77278 342.08 9.74435 341.738 9.7633 341.388Z" fill="#2B50A5"/>
<path d="M5.03091 363.825C4.92664 364.611 4.3105 369.825 5.73241 370.745C7.15432 371.664 8.08329 367.654 8.08329 367.654C8.08329 367.654 11.676 366.517 16.9371 368.763C16.6716 369.617 17.5058 372.394 18.9372 371.797C20.3686 371.2 20.8331 365.218 20.8331 365.161C21.0985 370.375 20.9469 374.517 18.34 378.271C15.0507 383.011 8.26341 379.845 6.32013 376.565C4.37685 373.285 4.07351 370.877 4.74654 365.389C4.8603 364.83 4.93612 364.318 5.03091 363.825Z" fill="#455A64"/>
<path d="M8.50045 367.996C8.50045 369.968 6.53822 369.314 6.43395 366.536C6.32967 363.759 7.79899 357.133 7.74211 352.317C8.34879 346.885 8.63318 341.454 9.76123 341.359V341.558L9.6285 344.316C9.6285 344.715 9.57163 345.075 9.6285 345.501C9.6285 349.521 9.12611 357.294 8.81329 360.972C8.58476 363.306 8.48032 365.651 8.50045 367.996Z" fill="#2B50A5"/>
<path d="M16.334 368.717C16.7959 366.43 17.1345 364.12 17.3483 361.797C17.7085 358.147 18.628 350.497 19.358 346.526C19.5671 345.793 19.6942 345.04 19.7371 344.279C19.8035 343.729 19.8698 343.028 19.9362 342.449C19.9362 342.449 19.9362 342.374 19.9362 342.326C20.6471 342.667 20.704 344.848 20.6187 347.578C20.486 349.151 20.2585 351.104 19.9172 353.474C18.9693 358.166 19.2347 364.982 18.6186 367.693C18.0024 370.404 15.9454 370.66 16.334 368.717Z" fill="#2B50A5"/>
<path d="M17.0525 368.925C16.9985 368.924 16.9459 368.908 16.9009 368.878C14.1742 367.637 11.11 367.347 8.19875 368.053C8.0919 368.082 7.97794 368.068 7.88195 368.012C7.78595 367.957 7.71579 367.866 7.68688 367.759C7.65797 367.653 7.67267 367.539 7.72778 367.443C7.78289 367.347 7.87389 367.277 7.98074 367.248C11.0908 366.467 14.3749 366.781 17.28 368.139C17.3778 368.189 17.4516 368.276 17.4853 368.381C17.519 368.486 17.51 368.6 17.4602 368.698C17.4248 368.774 17.3664 368.837 17.2932 368.878C17.22 368.919 17.1358 368.935 17.0525 368.925Z" fill="#F0F0F0"/>
<path d="M17.9532 364.64H17.8205C14.743 363.345 11.345 363.015 8.07566 363.692C7.96772 363.715 7.85507 363.695 7.76138 363.637C7.66769 363.579 7.60027 363.486 7.57326 363.379C7.55926 363.326 7.55632 363.27 7.56464 363.215C7.57295 363.16 7.59232 363.108 7.6216 363.061C7.65087 363.014 7.68941 362.973 7.73488 362.942C7.78035 362.91 7.8318 362.888 7.88606 362.877C11.3298 362.118 14.9242 362.45 18.1712 363.825C18.2722 363.872 18.3506 363.957 18.3896 364.062C18.4286 364.167 18.4251 364.282 18.3798 364.384C18.3433 364.465 18.2828 364.533 18.2066 364.579C18.1303 364.625 18.0419 364.646 17.9532 364.64Z" fill="#F0F0F0"/>
<path d="M8.35912 359.616C8.27858 359.607 8.2022 359.576 8.13857 359.525C8.07494 359.475 8.02657 359.408 7.9989 359.332C7.96255 359.228 7.96908 359.113 8.01707 359.014C8.06505 358.914 8.15059 358.838 8.25486 358.801C13.2979 357.047 18.322 359.578 18.5305 359.683C18.5802 359.708 18.6243 359.742 18.6603 359.785C18.6963 359.827 18.7235 359.876 18.7403 359.929C18.7571 359.982 18.7631 360.038 18.758 360.093C18.7529 360.149 18.7368 360.202 18.7107 360.251C18.6583 360.347 18.571 360.42 18.467 360.453C18.3629 360.487 18.2499 360.479 18.1513 360.432C18.1039 360.432 13.2221 357.948 8.52974 359.588C8.47602 359.611 8.41746 359.621 8.35912 359.616Z" fill="#F0F0F0"/>
<path d="M8.57629 355.777C8.49579 355.772 8.41859 355.743 8.35447 355.694C8.29035 355.645 8.24218 355.578 8.21607 355.502C8.17972 355.398 8.18625 355.283 8.23424 355.184C8.28223 355.084 8.36773 355.008 8.47201 354.971C10.1804 354.374 11.9947 354.141 13.7985 354.286C15.6024 354.431 17.3559 354.952 18.9468 355.815C19.0428 355.872 19.1125 355.965 19.1408 356.073C19.1692 356.181 19.154 356.296 19.0984 356.393C19.0702 356.441 19.0327 356.482 18.9882 356.515C18.9437 356.548 18.893 356.572 18.8392 356.585C18.7853 356.599 18.7294 356.601 18.6746 356.592C18.6198 356.584 18.5673 356.564 18.5202 356.535C17.0323 355.745 15.3982 355.268 13.7188 355.135C12.0395 355.001 10.3506 355.213 8.75641 355.758C8.6987 355.778 8.63699 355.785 8.57629 355.777Z" fill="#F0F0F0"/>
<path d="M8.881 351.474C8.78817 351.462 8.70183 351.42 8.63528 351.354C8.56873 351.288 8.52567 351.202 8.51273 351.11C8.4998 351.017 8.51771 350.923 8.56371 350.841C8.6097 350.76 8.68122 350.696 8.76725 350.659C13.9714 348.668 19.1093 351.502 19.3273 351.607C19.425 351.662 19.4966 351.754 19.5268 351.863C19.557 351.971 19.5432 352.087 19.4885 352.185C19.4619 352.233 19.4259 352.275 19.3826 352.309C19.3393 352.343 19.2896 352.368 19.2365 352.382C19.1833 352.396 19.1279 352.399 19.0734 352.392C19.019 352.384 18.9667 352.365 18.9197 352.337C18.8628 352.337 13.8956 349.569 9.0706 351.389C9.01235 351.427 8.94834 351.456 8.881 351.474Z" fill="#EBEBEB"/>
<path d="M21.7541 179.802C18.2183 188.087 14.3696 193.897 14.0378 209.463C13.3269 242.546 13.8862 266.424 13.8862 266.424C13.6966 269.344 12.2462 273.629 10.3977 288.673C8.84312 301.28 9.36449 320.656 9.36449 320.656C9.36449 320.656 17.8391 325.017 25.6122 321.765C28.6267 310.987 33.9257 282.843 37.1961 268.415C40.1631 255.324 43.0448 236.185 43.0448 236.185L48.249 268.529C48.249 268.529 47.4243 281.506 47.9173 289.147C48.4955 298.038 52.856 322.941 52.856 322.941C52.856 322.941 61.5297 326.657 68.1937 321.623C68.1937 321.623 71.1229 276.861 71.1039 266.15C71.1039 245.143 69.8811 200.903 66.0419 178.939L21.7541 179.802Z" fill="#37474F"/>
<path d="M8.927 317.519C12.1216 319.49 22.1982 320.713 26.5303 319.064L25.3453 324.154C25.3453 324.154 23.4021 325.557 17.43 325.273C11.458 324.988 9.12606 322.524 9.12606 322.524L8.927 317.519Z" fill="#455A64"/>
<path d="M51.9071 318.589C55.3292 320.125 64.7043 320.059 68.771 317.859L68.2591 323.064C68.2591 323.064 66.8751 325.026 60.9126 325.187C54.95 325.348 52.7508 323.528 52.7508 323.528L51.9071 318.589Z" fill="#455A64"/>
<path d="M43.0446 236.176L46.4572 212.752C46.4572 212.752 60.3824 210.98 65.416 206.069C65.416 206.069 59.0932 215.141 49.6517 216.696L45.86 236.091L48.173 268.245L43.0446 236.176Z" fill="#2D3032"/>
<path d="M39.3471 115.73C39.3889 115.075 39.3699 114.418 39.2902 113.768C39.1323 111.833 38.3544 110.001 37.072 108.544C36.0055 107.59 34.9958 106.574 34.0481 105.502C33.312 104.352 32.6472 103.159 32.0574 101.928C31.6229 100.956 30.8834 100.153 29.951 99.6398C29.0187 99.1265 27.9444 98.9314 26.8911 99.084C25.6806 99.1867 24.4987 99.5078 23.4027 100.032C22.5175 100.581 21.7294 101.273 21.0708 102.079C19.894 103.583 19.109 105.355 18.7862 107.236C17.8952 111.123 19.8858 114.82 22.7297 117.408C23.66 118.119 24.327 119.119 24.6255 120.251C24.7358 120.693 24.7126 121.158 24.5591 121.586C24.4056 122.015 24.1285 122.388 23.7629 122.659C24.1816 122.67 24.5971 122.583 24.9765 122.406C25.3558 122.228 25.6888 121.965 25.949 121.637C26.2091 121.309 26.3894 120.924 26.4756 120.514C26.5618 120.105 26.5515 119.68 26.4456 119.275C26.692 119.635 27.3935 120.479 29.716 121.294C31.1565 121.699 32.6754 121.734 34.1334 121.399C35.5907 121.266 36.9445 120.589 37.9252 119.503C38.7636 118.414 39.2587 117.101 39.3471 115.73Z" fill="#37474F"/>
<path d="M131.742 81.8224L129.97 77.642C129.537 77.5773 129.096 77.6494 128.706 77.8483C128.317 78.0472 128 78.3628 127.799 78.7511C126.946 80.1256 127.894 83.2348 126.623 86.3346C125.353 89.4344 122.737 93.0555 122.405 92.6669C122.073 92.2782 122.035 88.5907 120.756 87.2162C119.476 85.8417 117.978 86.1735 117.912 88.8277C117.831 91.4443 117.539 94.0501 117.04 96.6198C116.405 100.412 117.372 104.203 115.741 106.431L101.257 125.541C101.257 125.541 65.7277 126.29 58.201 126.594L68.2113 145.391L101.456 141.495C104.461 141.097 108.537 141.59 111.314 137.542C113.912 133.751 125.211 114.261 126.993 110.924C128.775 107.587 130.785 105.786 132.396 103.559C134.252 101.357 135.587 98.7647 136.302 95.9752C137.62 91.5198 136.747 88.3348 134.871 84.5999C132.994 80.865 131.742 81.8224 131.742 81.8224Z" fill="#FFBDA7"/>
<path d="M66.8108 162.312C66.6212 164.786 66.1662 175.119 66.1662 175.119C67.3132 182.228 68.0621 193.13 68.0621 193.13C50.7242 205.633 22.5609 197.869 17.1387 190.087C18.8924 184.721 22.7599 177.962 22.5703 174.18L19.2336 153.325C23.6595 145.634 25.7018 136.802 25.1014 127.949L43.8232 124.394L58.1087 126.556C60.5828 128.821 64.8296 135.087 68.3749 141.609C72.7449 149.562 71.6548 157.079 66.8108 162.312Z" fill="#2B50A5"/>
<path d="M42.8538 182.057C43.3333 182.077 43.8112 182.125 44.2852 182.2C44.835 182.2 45.3848 182.2 45.9251 182.152C47.1548 182.048 48.3768 181.867 49.5842 181.612C50.7077 181.289 51.8466 181.024 52.9968 180.816C54.2575 180.692 55.5373 180.816 56.7885 180.816C57.6863 180.785 58.5787 180.665 59.4522 180.455C60.2959 180.256 61.0922 179.924 61.9358 179.716C62.0473 179.683 62.1657 179.683 62.2771 179.716C62.3555 179.765 62.42 179.834 62.4648 179.915C62.5095 179.996 62.533 180.088 62.5331 180.18C62.6096 180.972 62.3864 181.764 61.9074 182.399C61.2744 183.212 60.4323 183.837 59.4712 184.209L57.2815 185.157C56.2482 185.584 56.9592 186.323 57.6986 186.617C59.8149 187.42 62.073 187.781 64.3341 187.679C66.5998 187.578 68.8521 187.276 71.0645 186.778C71.4439 186.674 71.8373 186.629 72.2305 186.645C72.4293 186.65 72.6245 186.699 72.8017 186.79C72.9789 186.88 73.1336 187.009 73.2543 187.167C73.3839 187.393 73.4481 187.652 73.4397 187.913C73.4313 188.174 73.3507 188.428 73.2069 188.646C72.9104 189.075 72.5491 189.455 72.1357 189.774C71.7205 190.097 71.3943 190.521 71.1878 191.006C70.9508 191.736 71.1878 192.579 70.875 193.262C70.5621 193.945 69.453 194.276 68.7705 194.836C68.2249 195.406 67.7535 196.043 67.3676 196.731C66.5953 197.682 65.575 198.401 64.4195 198.807C61.206 200.04 57.945 199.755 54.6083 199.338C47.5082 198.504 44.6454 195.717 39.7351 193.575C36.8533 192.143 42.8538 182.057 42.8538 182.057Z" fill="#FFBDA7"/>
<path d="M25.1376 127.93C19.45 129.2 14.4827 129.437 11.6389 134.689C8.79507 139.94 8.15997 143.22 7.09828 146.585C4.54832 154.7 3.771 158.615 1.99835 165.544C1.11911 168.874 0.485447 172.264 0.102467 175.687C-0.39994 179.886 0.936661 182.199 4.31133 183.726C8.83611 185.52 13.508 186.919 18.2745 187.906C28.3606 190.266 34.1336 190.409 39.8023 193.48C39.8178 191.353 40.2758 189.252 41.1473 187.312C42.0188 185.371 43.2846 183.633 44.8643 182.209C40.5696 181.339 36.3741 180.037 32.3419 178.322C24.1517 174.976 21.27 173.583 17.7057 171.298C17.7057 171.298 21.4975 160.188 22.8436 154.064C22.8436 154.064 26.9766 150.86 28.2847 142.803C29.9057 132.755 25.1376 127.93 25.1376 127.93Z" fill="#FFBDA7"/>
<path d="M11.6394 169.146C7.25989 170.094 6.89967 171.914 6.89967 171.914C8.55297 171.038 10.3754 170.528 12.2433 170.419C14.1112 170.309 15.9808 170.603 17.7252 171.279L18.2939 169.573C16.1508 168.854 13.8569 168.707 11.6394 169.146Z" fill="#F0997A"/>
<path d="M35.4242 119.105C33.9644 117.295 31.8599 115.749 28.381 111.673C23.556 105.986 18.3233 92.3731 28.2862 84.5621C28.0102 82.2351 28.5641 79.8853 29.8503 77.9265C31.4472 75.3537 33.9118 73.4372 36.7987 72.5233C40.0596 71.4426 43.5007 71.5753 47.3777 72.5233C53.3498 74.0115 61.4452 71.8407 66.0901 76.9407C67.1714 77.9809 68.0266 79.233 68.6021 80.6187C69.7112 83.69 67.4741 86.5054 68.2419 89.5483C68.5074 90.5815 69.4553 91.4442 70.0146 92.3921C70.7062 93.3491 71.1699 94.4515 71.3701 95.6151C71.5787 97.9281 69.7681 99.0182 68.8676 100.867C68.5547 101.511 68.2514 102.44 68.9245 102.962C69.2055 103.148 69.5352 103.247 69.8724 103.247C70.2096 103.247 70.5393 103.148 70.8203 102.962C70.9436 104.763 67.9765 105.616 66.6968 105.805C65.4816 105.942 64.2517 105.859 63.0662 105.559C62.4898 105.339 61.8971 105.165 61.2935 105.038C60.435 105.049 59.579 105.132 58.7341 105.284C56.8536 105.382 54.9801 105.584 53.1223 105.891C51.918 106.028 50.7417 106.347 49.6338 106.839C48.4015 107.389 35.3199 118.963 35.4242 119.105Z" fill="#37474F"/>
<path d="M28.1516 102.639C28.4261 101.989 28.8676 101.423 29.4314 100.999C29.859 100.675 30.364 100.469 30.8962 100.4C31.4284 100.332 31.9692 100.405 32.4648 100.61C33.6073 101.1 34.6367 101.819 35.4887 102.724C35.7753 102.974 36.1371 103.121 36.5166 103.141C36.8961 103.162 37.2717 103.055 37.5836 102.838C38.3714 102.25 38.9469 101.421 39.2236 100.478C39.6992 99.0928 40.0172 97.6587 40.1715 96.2026C44.8544 93.226 47.8309 89.9841 47.537 83.6423C49.5277 86.8085 57.8696 90.951 63.652 91.3586C64.8654 95.0745 64.9412 99.1601 64.8085 103.028C64.8085 103.141 64.8085 103.246 64.8085 103.36C64.4009 114.024 61.7088 118.451 58.6943 119.911C56.8458 120.802 54.6276 121.077 51.1108 120.726V126.793C51.1108 126.793 63.2255 140.064 50.9117 141.012C38.598 141.96 35.6499 126.793 35.6499 126.793L35.3844 110.602C34.1711 112.327 31.8675 112.156 30.2371 110.886C29.039 109.937 28.2161 108.593 27.9147 107.094C27.63 105.92 27.63 104.695 27.9147 103.521C27.9699 103.221 28.0491 102.926 28.1516 102.639Z" fill="#FFBDA7"/>
<path d="M38.3885 95.3496C38.3885 95.9563 38.3126 96.5345 38.2463 97.1412C38.2022 98.8548 38.6889 100.54 39.6397 101.966C40.2613 102.898 40.6723 103.954 40.8442 105.06C41.0161 106.167 40.9447 107.298 40.6351 108.374C40.218 109.578 38.9762 111.986 37.6396 112.337C37.6396 111.901 37.9619 111.512 38.123 111.114C38.5186 110.293 38.7136 109.39 38.6918 108.479C38.5686 106.924 36.9571 105.587 36.0281 104.431C35.2447 103.521 34.6948 102.435 34.4261 101.265C34.2934 100.525 33.9521 98.8854 34.5019 98.2787" fill="#37474F"/>
<path d="M49.6628 100.61C49.6976 100.989 49.5834 101.366 49.3444 101.662C49.1054 101.957 48.7605 102.148 48.3831 102.193C48.2007 102.22 48.0149 102.209 47.8368 102.162C47.6587 102.115 47.4919 102.032 47.3467 101.919C47.2014 101.805 47.0806 101.664 46.9915 101.502C46.9025 101.341 46.847 101.163 46.8284 100.98C46.7935 100.603 46.9064 100.227 47.1435 99.9315C47.3805 99.6361 47.723 99.4444 48.0987 99.3968C48.2816 99.3703 48.4679 99.3809 48.6466 99.428C48.8253 99.4751 48.9927 99.5578 49.1387 99.671C49.2847 99.7843 49.4064 99.9259 49.4964 100.087C49.5865 100.249 49.6431 100.426 49.6628 100.61Z" fill="#2B50A5"/>
<path d="M62.8649 95.0455L59.3101 93.7942C59.3809 93.559 59.4985 93.3406 59.6559 93.1521C59.8132 92.9636 60.0071 92.8089 60.2259 92.6973C60.4447 92.5857 60.6837 92.5195 60.9287 92.5028C61.1737 92.486 61.4196 92.519 61.6515 92.5998C62.1288 92.7741 62.5209 93.1251 62.7467 93.5803C62.9725 94.0354 63.0148 94.56 62.8649 95.0455Z" fill="#37474F"/>
<path d="M48.4849 94.6664L44.9775 96.0503C44.8772 95.8258 44.8234 95.5832 44.8194 95.3373C44.8154 95.0913 44.8613 94.8471 44.9543 94.6195C45.0474 94.3918 45.1856 94.1853 45.3606 94.0125C45.5357 93.8397 45.7439 93.7042 45.9728 93.6141C46.4467 93.4351 46.9711 93.4445 47.4383 93.6402C47.9055 93.8359 48.28 94.2031 48.4849 94.6664Z" fill="#37474F"/>
<path d="M49.1195 110.023L55.2622 112.062C55.1136 112.485 54.8788 112.874 54.5726 113.203C54.2664 113.531 53.8954 113.793 53.4831 113.971C53.0707 114.149 52.6259 114.24 52.1767 114.238C51.7276 114.235 51.2837 114.14 50.8732 113.957C50.4996 113.815 50.1577 113.599 49.8673 113.324C49.5768 113.049 49.3435 112.719 49.1806 112.354C49.0177 111.989 48.9285 111.595 48.918 111.195C48.9075 110.795 48.976 110.397 49.1195 110.023Z" fill="#B16668"/>
<path d="M52.6743 114.166C52.5896 113.328 52.1963 112.551 51.5708 111.987C50.9454 111.423 50.1325 111.111 49.2902 111.113C49.1859 111.113 49.0816 111.113 48.9774 111.113C48.9424 111.729 49.1085 112.339 49.4504 112.852C49.7923 113.365 50.2917 113.753 50.8732 113.957C51.4463 114.178 52.066 114.25 52.6743 114.166Z" fill="#F28F8F"/>
<path d="M62.1563 99.7952C62.1886 100.173 62.0735 100.549 61.8349 100.844C61.5964 101.139 61.253 101.331 60.8765 101.378C60.6937 101.403 60.5076 101.391 60.3294 101.343C60.1513 101.295 59.9847 101.211 59.8396 101.097C59.6945 100.983 59.5739 100.841 59.485 100.679C59.396 100.517 59.3406 100.339 59.3219 100.155C59.2894 99.7789 59.4032 99.4042 59.6398 99.1094C59.8763 98.8145 60.2174 98.6222 60.5922 98.5724C60.7756 98.5473 60.9622 98.5591 61.1409 98.6074C61.3196 98.6556 61.4868 98.7392 61.6327 98.8532C61.7785 98.9673 61.9 99.1094 61.9899 99.2712C62.0799 99.433 62.1364 99.6112 62.1563 99.7952Z" fill="#2B50A5"/>
<path d="M51.0164 120.725C47.2246 120.176 39.2714 118.204 37.8874 115.256C38.4598 116.941 39.5351 118.41 40.9682 119.465C43.376 121.275 51.0259 122.868 51.0259 122.868L51.0164 120.725Z" fill="#F0997A"/>
<path d="M42.8239 96.9041L32.2828 100.554C33.144 100.822 33.9299 101.29 34.5768 101.919L42.8618 99.1791L42.8239 96.9041Z" fill="#2B50A5"/>
<path d="M67.2456 95.9939C67.2062 96.5364 67.0121 97.0562 66.6863 97.4917C66.5679 97.6472 66.4897 97.8295 66.4588 98.0225C66.3372 99.3674 66.1154 100.701 65.7953 102.013C65.5245 102.882 64.9886 103.645 64.2627 104.194C63.5369 104.743 62.6574 105.051 61.7476 105.075C61.2659 105.133 60.7789 105.133 60.2972 105.075H60.1835C59.769 105.008 59.3666 104.88 58.989 104.696H58.9132L58.8089 104.639L58.6762 104.563L58.5625 104.487L58.4203 104.393L58.297 104.288C58.2136 104.221 58.1344 104.148 58.0601 104.07C57.6365 103.654 57.2842 103.17 57.0173 102.639C56.3253 101.312 56.3538 99.3781 55.3395 99.2169H55.0835C53.728 99.3307 54.0124 101.416 53.3393 102.952C52.9755 103.927 52.3217 104.768 51.466 105.361C50.6102 105.954 49.5934 106.271 48.5522 106.27H48.173C48.069 106.279 47.9643 106.279 47.8602 106.27C47.6203 106.285 47.3797 106.285 47.1398 106.27H46.9217H46.7037H46.5615C46.2765 106.19 46.0002 106.082 45.7368 105.947L45.4524 105.777C44.8108 105.359 44.3012 104.767 43.9831 104.07C43.5271 102.837 43.172 101.569 42.9214 100.279C42.8702 100.08 42.78 99.8927 42.656 99.7288C42.2778 99.3571 42.0174 98.8824 41.9072 98.3638C41.87 98.0973 41.9225 97.8261 42.0564 97.5927C42.1902 97.3594 42.3978 97.1771 42.6465 97.0746L43.367 96.9324C45.7324 96.4189 48.1657 96.294 50.5713 96.5627C52.9033 97.0367 53.7374 97.7192 55.0077 97.6149C56.2779 97.5106 56.9036 96.667 59.0364 95.8612C61.2171 95.2104 63.4952 94.9473 65.7668 95.0839H66.4398C66.6449 95.1468 66.8285 95.2651 66.9707 95.4256C67.1128 95.5862 67.208 95.7828 67.2456 95.9939ZM52.3155 98.3827C52.1194 98.1771 51.8841 98.0127 51.6236 97.8993L51.5098 97.8424H51.4434L51.1117 97.7097L50.7988 97.6054C50.4876 97.5061 50.1711 97.4238 49.8509 97.359L49.4622 97.2926C49.121 97.2926 48.7892 97.2168 48.4479 97.1978H48.173C45.9643 97.1978 44.6277 97.7666 44.1538 98.25C43.6798 98.7335 44.0305 100.772 44.3054 101.786V101.862V101.938C44.3054 102.061 44.3718 102.203 44.4192 102.355C44.4666 102.506 44.4761 102.516 44.514 102.601C44.5618 102.748 44.6221 102.891 44.6941 103.028C44.7122 103.077 44.7344 103.124 44.7604 103.17C44.7726 103.2 44.7885 103.229 44.8079 103.255C44.8178 103.289 44.8338 103.321 44.8552 103.35L44.9216 103.473L45.0069 103.606L45.1017 103.748C45.1388 103.79 45.1735 103.835 45.206 103.881C45.5799 104.346 46.0684 104.706 46.6235 104.925C47.1786 105.145 47.7812 105.216 48.3721 105.132C48.9731 105.13 49.5669 105 50.1142 104.752C50.6616 104.503 51.1501 104.142 51.5477 103.691C52.0394 103.065 52.3654 102.325 52.4956 101.539C52.7137 100.345 52.78 98.9989 52.3155 98.3827ZM65.1791 96.4869C65.0075 96.3605 64.8193 96.2584 64.6198 96.1835H64.5724L64.326 96.1077H64.1838H64.0605H63.9468H63.8236C63.6531 96.0974 63.4821 96.0974 63.3117 96.1077H62.7429H62.3922H62.1457C61.8329 96.1077 61.4916 96.193 61.1314 96.2688C59.5768 96.6006 57.9937 97.4253 57.6051 98.0984C57.2164 98.7714 57.3965 100.108 57.6809 101.236C57.7427 101.495 57.8251 101.749 57.9274 101.994V102.051V102.127C57.9315 102.146 57.9315 102.165 57.9274 102.184L57.9747 102.269C57.9747 102.336 58.0411 102.393 58.0695 102.459L58.1643 102.611V102.667L58.2307 102.772C58.255 102.802 58.2772 102.833 58.297 102.867C58.6854 103.37 59.2049 103.756 59.7986 103.984C60.3922 104.211 61.037 104.271 61.6622 104.156C62.2327 104.108 62.7859 103.937 63.2832 103.653C63.8371 103.246 64.2943 102.721 64.622 102.116C64.9497 101.512 65.1399 100.842 65.1791 100.155C65.4919 98.9989 65.672 96.8945 65.1791 96.4774V96.4869Z" fill="#2B50A5"/>
<path d="M54.8723 99.1789L55.5928 108.554L60.8159 106.895L55.4601 99.1694C55.2668 99.1205 55.064 99.1238 54.8723 99.1789Z" fill="#F0997A"/>
<path d="M194.413 37.4487V119.389C194.446 119.999 194.623 120.593 194.929 121.122C195.236 121.65 195.663 122.099 196.176 122.432L255.441 156.662C255.619 156.79 255.828 156.869 256.047 156.889C256.265 156.909 256.485 156.87 256.683 156.776L259.982 154.88C260.161 154.753 260.304 154.581 260.394 154.381C260.484 154.181 260.518 153.96 260.494 153.742V54.7487C260.462 54.1379 260.286 53.5434 259.981 53.0131C259.677 52.4828 259.251 52.0317 258.74 51.6963L214.234 26.0071L194.413 37.4487Z" fill="#F0F0F0"/>
<path d="M253.896 56.5314L260.039 53.1567C260.323 53.6514 260.482 54.2077 260.503 54.7777V153.733C260.527 153.952 260.491 154.174 260.399 154.374C260.307 154.574 260.163 154.746 259.982 154.871L256.683 156.767C256.483 156.861 256.261 156.9 256.04 156.878C255.82 156.857 255.61 156.775 255.432 156.644L253.896 155.752V56.5314Z" fill="#E0E0E0"/>
<path d="M256.218 156.482C256.73 156.482 256.787 155.885 256.787 155.629V56.664C256.753 56.1245 256.595 55.6001 256.325 55.1315C256.056 54.663 255.682 54.2629 255.232 53.9623L210.935 28.3679L194.82 37.6767V119.38C194.852 119.92 195.011 120.444 195.282 120.912C195.554 121.379 195.931 121.777 196.384 122.072L255.64 156.293C255.813 156.405 256.012 156.47 256.218 156.482Z" fill="#FAFAFA"/>
<path d="M210.936 28.842L195.229 37.9233V119.389C195.262 119.857 195.402 120.311 195.637 120.716C195.872 121.122 196.196 121.469 196.584 121.731L255.84 155.951C255.955 156.024 256.085 156.07 256.219 156.084C256.381 156.084 256.381 155.658 256.381 155.639V56.6641C256.347 56.1965 256.207 55.7428 255.973 55.3371C255.738 54.9315 255.414 54.5846 255.025 54.3227L220.444 34.34L210.965 28.842M210.965 27.894L220.88 33.5817L255.433 53.6117C255.944 53.9483 256.369 54.3995 256.675 54.9293C256.981 55.4592 257.16 56.0532 257.196 56.6641V155.639C257.196 156.435 256.798 156.899 256.248 156.899C255.968 156.89 255.696 156.805 255.461 156.653L196.205 122.442C195.693 122.107 195.266 121.656 194.96 121.126C194.653 120.596 194.476 120.001 194.442 119.389V37.4493L210.936 27.9035L210.965 27.894Z" fill="#E0E0E0"/>
<path d="M210.38 52.6065L207.659 51.033V55.4978L210.38 57.0619V52.6065Z" fill="#FAFAFA"/>
<path d="M243.954 71.992L241.233 70.4185V74.8833L243.954 76.4474V71.992Z" fill="#FAFAFA"/>
<path d="M210.936 44.9477V27.8848L194.413 37.4495L209.163 45.981C210.139 46.5213 210.936 46.0758 210.936 44.9477Z" fill="#E0E0E0"/>
<path d="M137.82 48.824V130.764C137.854 131.377 138.032 131.973 138.34 132.503C138.648 133.034 139.078 133.484 139.593 133.816L198.858 168.037C199.035 168.166 199.244 168.246 199.462 168.267C199.681 168.289 199.901 168.252 200.1 168.16L203.399 166.264C203.578 166.138 203.721 165.966 203.811 165.766C203.901 165.566 203.935 165.345 203.911 165.127V66.1334C203.881 65.5221 203.706 64.9267 203.401 64.3961C203.096 63.8655 202.67 63.4148 202.157 63.081L157.661 37.3823L137.82 48.824Z" fill="#F0F0F0"/>
<path d="M197.314 67.9151L203.467 64.4741C203.75 64.9726 203.909 65.5318 203.931 66.1046V165.108C203.954 165.328 203.918 165.55 203.827 165.752C203.735 165.954 203.591 166.127 203.41 166.255L200.111 168.15C199.91 168.242 199.688 168.279 199.469 168.257C199.249 168.236 199.039 168.156 198.86 168.027L197.314 167.136V67.9151Z" fill="#E0E0E0"/>
<path d="M199.646 167.866C200.158 167.866 200.215 167.278 200.215 167.023V68.048C200.182 67.5081 200.025 66.9832 199.755 66.5145C199.485 66.0457 199.111 65.6458 198.66 65.3464L154.363 39.752L138.248 49.0607V130.764C138.281 131.304 138.438 131.829 138.708 132.297C138.977 132.766 139.352 133.166 139.803 133.465L199.068 167.686C199.243 167.792 199.442 167.854 199.646 167.866Z" fill="#FAFAFA"/>
<path d="M154.365 40.226L138.658 49.3073V130.773C138.691 131.242 138.831 131.697 139.065 132.105C139.3 132.512 139.624 132.86 140.013 133.124L199.269 167.345C199.383 167.417 199.513 167.46 199.648 167.468C199.809 167.468 199.809 167.042 199.809 167.032V68.0481C199.78 67.5825 199.647 67.1294 199.418 66.7225C199.19 66.3155 198.874 65.9651 198.492 65.6972L163.911 45.7146L154.431 40.226M154.431 39.2781L164.347 44.9657L198.861 64.9957C199.374 65.3307 199.801 65.7814 200.107 66.3117C200.413 66.8419 200.59 67.4367 200.625 68.0481V167.023C200.625 167.819 200.226 168.274 199.677 168.274C199.398 168.264 199.127 168.183 198.89 168.037L139.634 133.816C139.12 133.483 138.692 133.033 138.385 132.502C138.079 131.971 137.903 131.376 137.871 130.764V48.8333L154.365 39.2876L154.431 39.2781Z" fill="#E0E0E0"/>
<path d="M154.351 56.3317V39.2688L137.819 48.824L152.578 57.3555C153.564 57.9053 154.351 57.4503 154.351 56.3317Z" fill="#E0E0E0"/>
<path d="M155.631 79.4406L150.826 76.2373V65.5273L155.631 68.7306V70.3356L152.498 68.2472V70.9772L155.431 72.9325V74.5375L152.498 72.5822V75.7322L155.631 77.8206V79.4406ZM158.657 77.303L156.573 71.9385L158.457 73.1949L159.755 76.8202L161.053 74.9256L162.925 76.1737L160.816 78.7425L163.025 84.3702L161.153 83.1221L159.755 79.2352L158.345 81.25L156.473 80.002L158.657 77.303ZM166.562 86.8784C165.938 86.4623 165.398 85.9568 164.94 85.3617C164.491 84.7622 164.141 84.0742 163.892 83.2978C163.65 82.5169 163.53 81.6465 163.53 80.6865C163.53 79.6865 163.663 78.9652 163.929 78.5227C164.204 78.0758 164.578 77.8654 165.052 77.8916C165.535 77.9133 166.08 78.1266 166.687 78.5316C167.07 78.7867 167.428 79.0753 167.761 79.3971C168.102 79.7246 168.385 80.0332 168.609 80.3229L168.11 81.4451C167.885 81.1853 167.661 80.9406 167.436 80.7108C167.211 80.481 166.987 80.2913 166.762 80.1415C166.421 79.9141 166.138 79.8255 165.913 79.8757C165.689 79.9259 165.514 80.1094 165.389 80.4262C165.273 80.7386 165.214 81.1948 165.214 81.7948C165.214 82.3748 165.273 82.8986 165.389 83.3662C165.514 83.8394 165.689 84.2509 165.913 84.6007C166.138 84.9405 166.413 85.2185 166.737 85.4349C167.062 85.6512 167.361 85.7959 167.636 85.8689C167.919 85.9475 168.185 85.975 168.435 85.9514V87.5864C168.177 87.6045 167.902 87.5564 167.611 87.4423C167.32 87.3381 166.97 87.1502 166.562 86.8784ZM172.584 82.4627C173.166 82.851 173.666 83.3339 174.082 83.9112C174.506 84.4841 174.835 85.1232 175.068 85.8285C175.301 86.5238 175.417 87.2615 175.417 88.0415V89.0015L171.273 86.2391C171.29 86.9902 171.44 87.665 171.723 88.2636C172.014 88.8578 172.422 89.3296 172.946 89.679C173.362 89.9564 173.732 90.1532 174.057 90.2696C174.381 90.3759 174.718 90.4456 175.068 90.4785V91.9935C174.751 91.9727 174.423 91.8936 174.082 91.7562C173.741 91.6188 173.32 91.3837 172.821 91.0508C172.189 90.6293 171.627 90.1048 171.136 89.4776C170.654 88.8458 170.275 88.1285 170 87.3254C169.726 86.5224 169.589 85.6608 169.589 84.7408C169.589 83.8108 169.713 83.114 169.963 82.6504C170.213 82.1769 170.562 81.9298 171.011 81.9094C171.469 81.8845 171.993 82.0689 172.584 82.4627ZM172.609 83.8744C172.235 83.6248 171.931 83.5873 171.698 83.762C171.473 83.9322 171.34 84.3235 171.298 84.9357L173.845 86.6331C173.845 86.2531 173.799 85.8876 173.707 85.5366C173.616 85.1856 173.478 84.8691 173.295 84.587C173.121 84.3005 172.892 84.063 172.609 83.8744ZM178.559 94.7259L176.899 93.6192V82.2192L178.559 83.3259V94.7259Z" fill="#455A64"/>
<path d="M87.4297 84.3909V166.302C87.4633 166.915 87.6414 167.511 87.9495 168.042C88.2576 168.572 88.687 169.022 89.2024 169.355L148.458 203.576C148.636 203.707 148.846 203.789 149.067 203.81C149.287 203.832 149.509 203.793 149.709 203.699L153.008 201.803C153.189 201.675 153.331 201.501 153.421 201.299C153.511 201.098 153.546 200.875 153.52 200.656V101.691C153.49 101.08 153.316 100.484 153.011 99.9535C152.706 99.4229 152.279 98.9722 151.766 98.6384L107.261 72.9492L87.4297 84.3909Z" fill="#F0F0F0"/>
<path d="M146.914 103.473L153.066 100.07C153.35 100.564 153.51 101.121 153.531 101.691V200.675C153.553 200.894 153.517 201.115 153.425 201.315C153.333 201.515 153.19 201.687 153.009 201.812L149.71 203.708C149.51 203.803 149.288 203.841 149.068 203.82C148.847 203.798 148.637 203.717 148.459 203.585L146.914 202.694V103.473Z" fill="#E0E0E0"/>
<path d="M149.244 203.424C149.756 203.424 149.813 202.836 149.813 202.58V103.606C149.779 103.065 149.621 102.539 149.351 102.069C149.082 101.599 148.708 101.197 148.258 100.895L103.961 75.3003L87.8461 84.6091V166.303C87.8787 166.841 88.0361 167.365 88.306 167.832C88.5758 168.299 88.9505 168.697 89.4007 168.995L148.656 203.272C148.835 203.374 149.038 203.427 149.244 203.424Z" fill="#FAFAFA"/>
<path d="M103.965 75.7836L88.2572 84.8554V166.378C88.2887 166.846 88.4273 167.301 88.6623 167.707C88.8974 168.113 89.2225 168.459 89.6127 168.72L148.869 202.94C148.983 203.013 149.113 203.059 149.248 203.073C149.399 203.073 149.409 202.647 149.409 202.628V103.606C149.375 103.137 149.236 102.682 149.001 102.275C148.766 101.867 148.442 101.519 148.053 101.255L113.472 81.2817L103.993 75.7836M103.993 74.8357L113.908 80.5233L148.461 100.553C148.974 100.888 149.4 101.339 149.706 101.869C150.013 102.4 150.19 102.994 150.224 103.606V202.58C150.224 203.377 149.826 203.832 149.276 203.832C148.998 203.822 148.727 203.74 148.489 203.595L89.2336 169.374C88.7206 169.042 88.2936 168.593 87.9871 168.064C87.6807 167.535 87.5037 166.941 87.4704 166.331V84.3909L103.965 74.8452L103.993 74.8357Z" fill="#E0E0E0"/>
<path d="M103.95 91.8891V74.8262L87.4271 84.3719L102.187 92.9034C103.153 93.4627 103.95 93.0077 103.95 91.8891Z" fill="#E0E0E0"/>
<path d="M111.699 114.864C111.35 114.631 111.034 114.51 110.751 114.501C110.468 114.493 110.227 114.592 110.027 114.799C109.835 115.011 109.69 115.324 109.59 115.737C109.49 116.151 109.44 116.658 109.44 117.258C109.44 118.068 109.523 118.818 109.69 119.509C109.856 120.19 110.11 120.799 110.451 121.336C110.792 121.874 111.221 122.315 111.737 122.659C112.094 122.897 112.444 123.085 112.785 123.222C113.126 123.35 113.472 123.45 113.821 123.523V125.158C113.48 125.111 113.126 125.005 112.76 124.841C112.402 124.682 111.999 124.453 111.549 124.154C110.676 123.571 109.956 122.866 109.39 122.039C108.825 121.202 108.4 120.279 108.117 119.271C107.843 118.258 107.705 117.196 107.705 116.086C107.705 115.276 107.793 114.594 107.968 114.041C108.142 113.487 108.4 113.079 108.741 112.817C109.082 112.554 109.503 112.454 110.002 112.517C110.501 112.58 111.071 112.825 111.712 113.252C112.136 113.535 112.565 113.885 112.997 114.304C113.438 114.718 113.825 115.146 114.158 115.588L113.596 116.788C113.305 116.424 113.001 116.072 112.685 115.731C112.377 115.386 112.049 115.097 111.699 114.864ZM119.944 127.245C119.944 127.785 119.844 128.179 119.645 128.425C119.445 128.662 119.15 128.745 118.758 128.675C118.367 128.604 117.877 128.372 117.286 127.978C116.836 127.678 116.445 127.378 116.113 127.076C115.78 126.774 115.459 126.435 115.152 126.06V124.455C115.484 124.867 115.842 125.265 116.225 125.651C116.616 126.041 116.97 126.342 117.286 126.553C117.66 126.802 117.931 126.903 118.097 126.854C118.263 126.805 118.347 126.645 118.347 126.375C118.347 126.215 118.309 126.045 118.234 125.865C118.168 125.691 118.026 125.462 117.81 125.177C117.602 124.889 117.298 124.501 116.899 124.015C116.508 123.544 116.183 123.118 115.925 122.736C115.667 122.354 115.472 121.974 115.339 121.595C115.206 121.206 115.139 120.787 115.139 120.337C115.139 119.607 115.368 119.209 115.826 119.144C116.291 119.075 116.899 119.29 117.648 119.789C118.055 120.061 118.434 120.363 118.783 120.696C119.141 121.025 119.499 121.413 119.857 121.862L119.37 122.932C119.17 122.689 118.967 122.458 118.758 122.24C118.559 122.017 118.363 121.816 118.172 121.639C117.989 121.467 117.806 121.32 117.623 121.198C117.332 121.003 117.111 120.921 116.961 120.952C116.812 120.972 116.737 121.097 116.737 121.327C116.737 121.487 116.774 121.657 116.849 121.837C116.924 122.007 117.065 122.226 117.273 122.495C117.481 122.763 117.777 123.125 118.159 123.58C118.542 124.015 118.867 124.427 119.133 124.814C119.399 125.192 119.599 125.575 119.732 125.964C119.873 126.358 119.944 126.785 119.944 127.245ZM122.924 131.587L120.49 121.834L122.225 122.991L123.436 128.493C123.494 128.722 123.54 128.962 123.573 129.215C123.615 129.462 123.652 129.707 123.686 129.949C123.719 130.182 123.735 130.378 123.735 130.538L123.785 130.571C123.802 130.412 123.823 130.236 123.848 130.043C123.881 129.845 123.923 129.653 123.973 129.466C124.023 129.279 124.068 129.105 124.11 128.942L125.333 125.063L127.068 126.219L124.634 132.727L122.924 131.587Z" fill="#455A64"/>
<path d="M226.751 288.238L229.669 289.97L229.917 294.682C229.531 294.612 229.116 294.488 228.673 294.309C228.238 294.135 227.756 293.89 227.227 293.577C226.474 293.13 225.82 292.561 225.263 291.871C224.715 291.185 224.28 290.403 223.959 289.525C223.639 288.647 223.452 287.698 223.398 286.676C223.347 285.707 223.456 284.958 223.724 284.43C223.992 283.901 224.407 283.615 224.968 283.571C225.529 283.526 226.23 283.754 227.073 284.253C227.497 284.505 227.906 284.798 228.299 285.132C228.699 285.462 229.064 285.808 229.394 286.171L228.962 287.236C228.694 286.934 228.404 286.645 228.094 286.368C227.79 286.088 227.467 285.846 227.124 285.642C226.617 285.341 226.196 285.226 225.86 285.295C225.532 285.368 225.288 285.605 225.128 286.005C224.976 286.401 224.918 286.941 224.953 287.624C224.988 288.282 225.097 288.913 225.28 289.516C225.463 290.111 225.719 290.644 226.047 291.116C226.382 291.583 226.803 291.967 227.31 292.267C227.466 292.36 227.611 292.438 227.744 292.5C227.878 292.562 227.999 292.614 228.11 292.654C228.228 292.699 228.331 292.735 228.419 292.762L228.301 290.529L226.826 289.653L226.751 288.238ZM237.586 296.427C237.62 297.068 237.535 297.579 237.331 297.961C237.134 298.339 236.813 298.543 236.366 298.572C235.927 298.596 235.365 298.405 234.679 297.998C233.695 297.414 232.926 296.656 232.371 295.723C231.824 294.786 231.523 293.803 231.469 292.773L231.155 286.801L232.653 287.69L232.958 293.493C232.998 294.246 233.157 294.877 233.437 295.387C233.716 295.888 234.116 296.293 234.638 296.603C235.003 296.82 235.293 296.912 235.508 296.88C235.731 296.853 235.886 296.706 235.973 296.439C236.059 296.163 236.09 295.792 236.066 295.324L235.761 289.534L237.271 290.43L237.586 296.427ZM243.931 303.361L239.626 300.808L239.139 291.538L243.444 294.092L243.517 295.481L240.71 293.816L240.835 296.179L243.462 297.738L243.535 299.127L240.908 297.568L241.051 300.294L243.857 301.959L243.931 303.361ZM249.896 304.448C249.925 304.993 249.842 305.401 249.646 305.671C249.459 305.945 249.162 306.067 248.756 306.035C248.357 306.009 247.856 305.816 247.252 305.458C246.954 305.281 246.677 305.096 246.421 304.902C246.166 304.717 245.925 304.519 245.697 304.309C245.477 304.103 245.263 303.884 245.056 303.652L244.974 302.094C245.319 302.466 245.688 302.84 246.084 303.218C246.486 303.59 246.874 303.887 247.246 304.109C247.529 304.277 247.758 304.366 247.932 304.377C248.105 304.379 248.228 304.318 248.301 304.194C248.381 304.065 248.415 303.884 248.403 303.65C248.389 303.391 248.322 303.137 248.2 302.889C248.086 302.645 247.914 302.379 247.682 302.09C247.45 301.802 247.151 301.469 246.784 301.093C246.524 300.813 246.275 300.53 246.036 300.246C245.804 299.958 245.597 299.654 245.414 299.336C245.239 299.023 245.095 298.69 244.982 298.338C244.877 297.991 244.815 297.618 244.794 297.22C244.766 296.692 244.85 296.302 245.046 296.049C245.242 295.797 245.529 295.686 245.906 295.717C246.283 295.748 246.729 295.916 247.243 296.221C247.676 296.477 248.073 296.764 248.437 297.08C248.807 297.4 249.158 297.751 249.488 298.131L249.089 299.19C248.775 298.844 248.466 298.535 248.163 298.263C247.867 297.996 247.57 297.773 247.272 297.596C247.041 297.459 246.85 297.392 246.698 297.394C246.546 297.388 246.434 297.443 246.36 297.558C246.294 297.679 246.267 297.847 246.279 298.063C246.292 298.314 246.355 298.557 246.469 298.792C246.582 299.027 246.755 299.289 246.986 299.578C247.218 299.857 247.518 300.203 247.886 300.614C248.292 301.056 248.639 301.476 248.927 301.873C249.222 302.275 249.45 302.682 249.608 303.095C249.775 303.513 249.871 303.964 249.896 304.448ZM254.282 309.503L252.773 308.608L252.359 300.741L250.28 299.507L250.206 298.105L255.863 301.461L255.937 302.863L253.869 301.636L254.282 309.503ZM266.256 312.029C266.311 313.068 266.196 313.842 265.912 314.353C265.636 314.869 265.209 315.127 264.632 315.128C264.054 315.129 263.348 314.882 262.513 314.387L260.322 313.086L259.834 303.817L262.249 305.25C263.025 305.71 263.704 306.281 264.289 306.963C264.874 307.646 265.333 308.413 265.667 309.265C266.007 310.112 266.204 311.034 266.256 312.029ZM264.693 311.152C264.655 310.417 264.537 309.76 264.341 309.182C264.152 308.609 263.884 308.11 263.536 307.686C263.196 307.258 262.784 306.9 262.299 306.613L261.405 306.082L261.747 312.586L262.474 313.017C263.279 313.495 263.864 313.578 264.231 313.267C264.596 312.948 264.751 312.243 264.693 311.152ZM272.529 320.329L271.785 317.511L269.057 315.892L268.571 317.981L266.961 317.026L269.155 309.31L270.955 310.377L274.139 321.284L272.529 320.329ZM270.589 313.104C270.552 312.947 270.503 312.759 270.44 312.537C270.385 312.312 270.33 312.082 270.274 311.847C270.226 311.618 270.178 311.401 270.132 311.197C270.113 311.387 270.086 311.573 270.053 311.754C270.018 311.926 269.984 312.09 269.948 312.245C269.921 312.405 269.892 312.547 269.863 312.672L269.362 314.69L271.352 315.87L270.589 313.104ZM277.227 323.116L275.717 322.221L275.304 314.354L273.224 313.12L273.151 311.718L278.808 315.074L278.882 316.476L276.813 315.249L277.227 323.116ZM284.367 327.353L283.623 324.534L280.895 322.916L280.409 325.004L278.799 324.049L280.993 316.333L282.793 317.401L285.977 328.308L284.367 327.353ZM282.427 320.127C282.39 319.971 282.341 319.782 282.278 319.561C282.223 319.335 282.168 319.105 282.112 318.871C282.064 318.641 282.016 318.424 281.97 318.221C281.951 318.411 281.924 318.596 281.891 318.777C281.856 318.95 281.822 319.114 281.786 319.269C281.759 319.429 281.73 319.571 281.701 319.696L281.2 321.713L283.19 322.894L282.427 320.127Z" fill="white"/>
<path d="M213.435 65.3393L215.173 66.4975V69.4015C214.937 69.346 214.687 69.2562 214.42 69.132C214.159 69.0108 213.87 68.8452 213.555 68.6351C213.107 68.3363 212.723 67.9658 212.404 67.5234C212.088 67.084 211.847 66.5895 211.678 66.0397C211.509 65.49 211.425 64.9004 211.425 64.2711C211.425 63.6738 211.516 63.2171 211.698 62.901C211.88 62.585 212.144 62.4224 212.49 62.4131C212.836 62.4039 213.26 62.5664 213.761 62.9007C214.014 63.0693 214.256 63.2626 214.487 63.4804C214.722 63.6959 214.935 63.9205 215.126 64.1544L214.826 64.7947C214.671 64.6005 214.503 64.4134 214.321 64.2335C214.143 64.0511 213.952 63.8919 213.748 63.7558C213.446 63.5546 213.191 63.4699 212.983 63.5015C212.779 63.5361 212.621 63.6737 212.51 63.9144C212.404 64.1528 212.35 64.4826 212.35 64.9039C212.35 65.3093 212.397 65.7003 212.49 66.0771C212.583 66.4486 212.723 66.7844 212.909 67.0847C213.1 67.3826 213.347 67.6321 213.648 67.8333C213.741 67.8954 213.828 67.9477 213.908 67.9903C213.988 68.0329 214.061 68.0684 214.128 68.0968C214.199 68.1281 214.261 68.1535 214.314 68.173V66.797L213.435 66.2113V65.3393ZM219.25 70.1757C219.25 70.5384 219.212 70.8332 219.137 71.0603C219.061 71.2873 218.95 71.4507 218.804 71.5504C218.662 71.6477 218.489 71.679 218.285 71.6443C218.081 71.6042 217.852 71.4998 217.599 71.3312C217.364 71.1744 217.144 70.9799 216.94 70.7479C216.741 70.5134 216.567 70.2514 216.421 69.9617C216.279 69.6697 216.168 69.3584 216.088 69.0278C216.008 68.6973 215.968 68.3506 215.968 67.988C215.968 67.508 216.033 67.1455 216.161 66.9007C216.295 66.6534 216.485 66.5273 216.734 66.5223C216.982 66.512 217.277 66.6207 217.619 66.8485C217.939 67.0615 218.22 67.3374 218.465 67.6761C218.709 68.0094 218.899 68.39 219.037 68.8177C219.179 69.243 219.25 69.6957 219.25 70.1757ZM216.867 68.587C216.867 68.891 216.894 69.1701 216.947 69.4243C217 69.6731 217.08 69.889 217.186 70.072C217.297 70.258 217.439 70.4087 217.612 70.5241C217.786 70.6394 217.925 70.6766 218.032 70.6356C218.143 70.5976 218.223 70.4882 218.271 70.3074C218.325 70.1242 218.351 69.8806 218.351 69.5766C218.351 69.2673 218.325 68.9909 218.271 68.7474C218.218 68.4985 218.136 68.2838 218.025 68.1032C217.919 67.9202 217.779 67.771 217.606 67.6556C217.344 67.4811 217.155 67.478 217.04 67.6464C216.925 67.8148 216.867 68.1284 216.867 68.587ZM223.157 72.7807C223.157 73.1434 223.12 73.4382 223.044 73.6653C222.969 73.8923 222.858 74.0557 222.712 74.1554C222.57 74.2527 222.396 74.284 222.192 74.2493C221.988 74.2092 221.76 74.1048 221.507 73.9362C221.272 73.7794 221.052 73.585 220.848 73.3529C220.648 73.1184 220.475 72.8564 220.329 72.5667C220.187 72.2747 220.076 71.9634 219.996 71.6329C219.916 71.3023 219.876 70.9556 219.876 70.593C219.876 70.113 219.94 69.7505 220.069 69.5057C220.202 69.2584 220.393 69.1323 220.641 69.1273C220.89 69.117 221.185 69.2257 221.527 69.4535C221.846 69.6665 222.128 69.9424 222.372 70.2811C222.616 70.6145 222.807 70.995 222.944 71.4227C223.086 71.848 223.157 72.3007 223.157 72.7807ZM220.774 71.1921C220.774 71.4961 220.801 71.7751 220.854 72.0293C220.908 72.2781 220.987 72.4941 221.094 72.6771C221.205 72.863 221.347 73.0137 221.52 73.1291C221.693 73.2444 221.833 73.2816 221.939 73.2406C222.05 73.2026 222.13 73.0932 222.179 72.9124C222.232 72.7292 222.259 72.4856 222.259 72.1816C222.259 71.8723 222.232 71.5959 222.179 71.3524C222.126 71.1036 222.044 70.8888 221.933 70.7082C221.826 70.5252 221.686 70.376 221.513 70.2606C221.252 70.0861 221.063 70.083 220.948 70.2514C220.832 70.4198 220.774 70.7334 220.774 71.1921ZM225.101 71.8366C225.323 71.9846 225.516 72.1666 225.68 72.3827C225.845 72.5988 225.982 72.8505 226.093 73.1378L226.12 73.1556L226.2 72.6488L226.945 73.1458V77.5138C226.945 77.9245 226.883 78.2271 226.759 78.4216C226.635 78.6214 226.448 78.7105 226.2 78.6888C225.956 78.6701 225.645 78.535 225.268 78.2836C225.015 78.1149 224.784 77.9398 224.576 77.7581C224.371 77.5846 224.176 77.3878 223.99 77.1676V76.3356C224.118 76.4907 224.249 76.6366 224.382 76.7734C224.52 76.9184 224.662 77.0531 224.808 77.1774C224.955 77.3017 225.11 77.4185 225.274 77.528C225.532 77.6996 225.727 77.7364 225.86 77.6385C225.998 77.5436 226.067 77.3228 226.067 76.9761V76.8641C226.067 76.7841 226.069 76.6922 226.073 76.5885C226.082 76.4878 226.089 76.4069 226.093 76.3458L226.067 76.3281C225.96 76.4811 225.827 76.5577 225.667 76.5578C225.507 76.5527 225.314 76.4746 225.088 76.3238C224.684 76.0545 224.365 75.6442 224.13 75.0927C223.899 74.5442 223.783 73.918 223.783 73.214C223.783 72.7393 223.837 72.3695 223.943 72.1045C224.05 71.8395 224.201 71.6841 224.396 71.6382C224.595 71.59 224.831 71.6562 225.101 71.8366ZM225.368 72.8381C225.217 72.7376 225.09 72.7092 224.988 72.7532C224.891 72.7948 224.815 72.9045 224.762 73.0823C224.709 73.2601 224.682 73.5091 224.682 73.8291C224.682 74.2984 224.74 74.6915 224.855 75.0084C224.97 75.3254 225.144 75.5607 225.374 75.7146C225.507 75.8033 225.621 75.8574 225.714 75.8769C225.807 75.891 225.882 75.8666 225.94 75.8038C225.998 75.7356 226.042 75.6318 226.073 75.4925C226.104 75.3479 226.12 75.1609 226.12 74.9316V74.7796C226.12 74.4329 226.093 74.1378 226.04 73.8943C225.991 73.6485 225.911 73.4405 225.8 73.2706C225.689 73.1006 225.545 72.9565 225.368 72.8381ZM228.821 78.7324L227.936 78.1421V72.0621L228.821 72.6524V78.7324ZM231.233 75.9243C231.543 76.1314 231.81 76.3889 232.032 76.6968C232.258 77.0023 232.433 77.3432 232.557 77.7194C232.682 78.0902 232.744 78.4836 232.744 78.8996V79.4116L230.534 77.9383C230.543 78.3389 230.623 78.6988 230.774 79.0181C230.929 79.335 231.146 79.5866 231.426 79.773C231.648 79.9209 231.845 80.0259 232.018 80.0879C232.191 80.1446 232.371 80.1818 232.557 80.1994V81.0074C232.389 80.9963 232.214 80.9541 232.032 80.8808C231.85 80.8075 231.626 80.6821 231.359 80.5046C231.022 80.2798 230.723 80.0001 230.461 79.6655C230.203 79.3286 230.001 78.946 229.855 78.5177C229.709 78.0894 229.635 77.6299 229.635 77.1393C229.635 76.6433 229.702 76.2716 229.835 76.0244C229.968 75.7718 230.155 75.6401 230.394 75.6292C230.638 75.6159 230.918 75.7142 231.233 75.9243ZM231.246 76.6772C231.046 76.544 230.884 76.5241 230.76 76.6172C230.64 76.708 230.569 76.9167 230.547 77.2432L231.905 78.1485C231.905 77.9458 231.881 77.7509 231.832 77.5637C231.783 77.3765 231.71 77.2076 231.612 77.0572C231.519 76.9044 231.397 76.7777 231.246 76.6772ZM237.955 83.2616C237.955 83.5976 237.89 83.8454 237.762 84.0049C237.638 84.1674 237.451 84.2325 237.203 84.2002C236.959 84.1708 236.657 84.0363 236.297 83.7966C236.12 83.6783 235.956 83.5555 235.805 83.4283C235.654 83.3063 235.512 83.177 235.379 83.0403C235.25 82.9065 235.126 82.765 235.006 82.6157V81.6557C235.206 81.8955 235.421 82.1377 235.652 82.3822C235.887 82.6243 236.115 82.8194 236.337 82.9673C236.506 83.0797 236.644 83.1421 236.75 83.1544C236.857 83.1614 236.934 83.1278 236.983 83.0537C237.036 82.9772 237.063 82.867 237.063 82.723C237.063 82.563 237.03 82.4048 236.963 82.2484C236.901 82.095 236.803 81.9259 236.67 81.7412C236.537 81.5564 236.364 81.3424 236.151 81.099C236 80.9184 235.856 80.737 235.718 80.5546C235.585 80.3698 235.468 80.1768 235.365 79.9754C235.268 79.777 235.19 79.5679 235.133 79.3481C235.079 79.1312 235.053 78.9001 235.053 78.6548C235.053 78.3295 235.117 78.0924 235.246 77.9435C235.374 77.7946 235.554 77.7358 235.785 77.7669C236.016 77.7981 236.284 77.9158 236.59 78.1199C236.848 78.2915 237.083 78.4803 237.296 78.6863C237.513 78.8952 237.717 79.122 237.908 79.3665L237.629 80.0042C237.447 79.7815 237.267 79.5817 237.089 79.4047C236.916 79.2307 236.741 79.0845 236.564 78.9661C236.426 78.8744 236.311 78.8269 236.218 78.8234C236.124 78.8146 236.053 78.8446 236.004 78.9134C235.96 78.9851 235.938 79.0877 235.938 79.221C235.938 79.3757 235.969 79.5271 236.031 79.6751C236.093 79.8232 236.191 79.9896 236.324 80.1744C236.457 80.3538 236.63 80.5759 236.843 80.8405C237.078 81.1253 237.278 81.3945 237.442 81.6479C237.611 81.9043 237.737 82.162 237.822 82.4209C237.91 82.6827 237.955 82.9629 237.955 83.2616ZM239.602 81.2875C239.602 81.4582 239.595 81.6218 239.582 81.7782C239.573 81.9323 239.564 82.0464 239.555 82.1205L239.608 82.156C239.679 82.054 239.764 81.9902 239.861 81.9646C239.963 81.9366 240.077 81.9401 240.201 81.9749C240.329 82.0127 240.463 82.0775 240.6 82.1692C240.853 82.3378 241.071 82.5388 241.252 82.7721C241.434 83.0054 241.576 83.2734 241.679 83.5761C241.781 83.8734 241.832 84.2088 241.832 84.5821V87.4061L240.946 86.8159V84.1919C240.946 83.8613 240.9 83.5849 240.807 83.3627C240.713 83.1406 240.567 82.963 240.367 82.8299C240.176 82.7026 240.023 82.6592 239.908 82.6997C239.793 82.7347 239.713 82.8495 239.668 83.0439C239.624 83.233 239.602 83.4875 239.602 83.8075V85.9195L238.716 85.3293V79.2493L239.602 79.8395V81.2875ZM244.224 84.5849C244.534 84.792 244.801 85.0495 245.023 85.3574C245.249 85.6629 245.424 86.0038 245.548 86.38C245.673 86.7508 245.735 87.1442 245.735 87.5602V88.0722L243.525 86.5989C243.534 86.9995 243.614 87.3594 243.764 87.6787C243.92 87.9956 244.137 88.2472 244.417 88.4336C244.639 88.5815 244.836 88.6865 245.009 88.7485C245.182 88.8052 245.362 88.8424 245.548 88.86V89.668C245.38 89.6569 245.204 89.6147 245.023 89.5414C244.841 89.4681 244.616 89.3427 244.35 89.1652C244.013 88.9404 243.713 88.6607 243.452 88.3261C243.194 87.9892 242.992 87.6066 242.846 87.1783C242.699 86.75 242.626 86.2905 242.626 85.7999C242.626 85.3039 242.693 84.9322 242.826 84.685C242.959 84.4324 243.145 84.3007 243.385 84.2898C243.629 84.2765 243.909 84.3748 244.224 84.5849ZM244.237 85.3378C244.037 85.2046 243.875 85.1847 243.751 85.2778C243.631 85.3686 243.56 85.5773 243.538 85.9038L244.896 86.8091C244.896 86.6064 244.872 86.4115 244.823 86.2243C244.774 86.0371 244.701 85.8683 244.603 85.7178C244.51 85.565 244.388 85.4384 244.237 85.3378ZM247.943 87.0642C248.253 87.2713 248.52 87.5288 248.742 87.8367C248.968 88.1423 249.143 88.4831 249.267 88.8593C249.392 89.2301 249.454 89.6236 249.454 90.0396V90.5516L247.244 89.0783C247.253 89.4789 247.333 89.8388 247.483 90.158C247.639 90.4749 247.856 90.7265 248.136 90.9129C248.358 91.0608 248.555 91.1658 248.728 91.2279C248.901 91.2846 249.081 91.3217 249.267 91.3393V92.1473C249.099 92.1362 248.923 92.094 248.742 92.0207C248.56 91.9474 248.335 91.822 248.069 91.6445C247.732 91.4197 247.432 91.14 247.171 90.8055C246.913 90.4685 246.711 90.0859 246.565 89.6576C246.418 89.2294 246.345 88.7699 246.345 88.2792C246.345 87.7832 246.412 87.4116 246.545 87.1643C246.678 86.9118 246.864 86.78 247.104 86.7691C247.348 86.7558 247.628 86.8542 247.943 87.0642ZM247.956 87.8171C247.756 87.684 247.594 87.664 247.47 87.7572C247.35 87.8479 247.279 88.0566 247.257 88.3832L248.615 89.2884C248.615 89.0858 248.591 88.8908 248.542 88.7036C248.493 88.5164 248.42 88.3476 248.322 88.1972C248.229 88.0444 248.107 87.9177 247.956 87.8171ZM251.655 93.2271C251.753 93.2922 251.846 93.3437 251.935 93.3815C252.028 93.417 252.114 93.4453 252.194 93.4666V94.2186C252.101 94.2044 251.988 94.169 251.855 94.1123C251.722 94.0608 251.573 93.9804 251.409 93.8709C251.205 93.7348 251.023 93.5736 250.863 93.3871C250.703 93.1952 250.577 92.9669 250.484 92.7021C250.395 92.4403 250.35 92.128 250.35 91.7654V89.5094L249.898 89.2076V88.7676L250.404 88.7529L250.67 88.0104L251.229 88.3831V89.3351L252.161 89.9564V90.7164L251.229 90.0951V92.3431C251.229 92.5458 251.267 92.7229 251.342 92.8746C251.422 93.0238 251.526 93.1413 251.655 93.2271Z" fill="#455A64"/>
<path d="M103.64 134.908L138.106 156.077" stroke="#2B50A5" stroke-width="2" stroke-linecap="round"/>
<path d="M103.64 148.878L138.106 170.047" stroke="#2B50A5" stroke-width="2" stroke-linecap="round"/>
<path d="M103.64 165.437L138.106 186.605" stroke="#2B50A5" stroke-width="2" stroke-linecap="round"/>
<path d="M152.721 93.2803L187.187 114.449" stroke="#2B50A5" stroke-width="2" stroke-linecap="round"/>
<path d="M152.721 107.25L187.187 128.419" stroke="#2B50A5" stroke-width="2" stroke-linecap="round"/>
<path d="M152.721 123.809L187.187 144.977" stroke="#2B50A5" stroke-width="2" stroke-linecap="round"/>
<path d="M213.391 81.9055L247.857 103.074" stroke="#2B50A5" stroke-width="2" stroke-linecap="round"/>
<path d="M213.391 95.875L247.856 117.044" stroke="#2B50A5" stroke-width="2" stroke-linecap="round"/>
<path d="M213.391 112.433L247.856 133.602" stroke="#2B50A5" stroke-width="2" stroke-linecap="round"/>
</svg>
