<svg width="348" height="340" viewBox="0 0 348 340" fill="none" xmlns="http://www.w3.org/2000/svg">
<path d="M294.72 336.613C313.711 336.613 329.107 327.723 329.107 316.757C329.107 305.791 313.711 296.901 294.72 296.901C275.728 296.901 260.333 305.791 260.333 316.757C260.333 327.723 275.728 336.613 294.72 336.613Z" fill="#E0E0E0"/>
<path d="M9.18916 333.136L1.75675 328.82C-0.585584 327.469 -0.585584 325.271 1.75675 323.919L224.071 195.596C225.387 194.929 226.84 194.582 228.315 194.582C229.789 194.582 231.243 194.929 232.558 195.596L239.99 199.893C242.333 201.244 242.333 203.433 239.99 204.785L17.6756 333.136C16.3605 333.802 14.9068 334.149 13.4324 334.149C11.958 334.149 10.5043 333.802 9.18916 333.136Z" fill="#E0E0E0"/>
<path d="M11.1986 154.343L241.991 21.1001V7.58663C241.988 7.30254 241.961 7.01919 241.91 6.73979C241.91 6.73979 241.91 6.66771 241.91 6.64069C241.859 6.41596 241.79 6.19594 241.702 5.98303L241.648 5.8479C241.564 5.675 241.462 5.51185 241.342 5.36141L241.189 5.27132C241.075 5.14366 240.945 5.03159 240.802 4.93799C240.711 4.87521 240.614 4.82093 240.513 4.77583L240.63 4.82988L237.18 2.82088L232.892 0.334398L232.784 0.271336C232.689 0.217384 232.589 0.172154 232.486 0.136201C232.032 0.00251465 231.554 -0.0280368 231.086 0.0467771C230.618 0.121591 230.173 0.299881 229.784 0.568632L25.1985 118.694L7.47787 128.92C7.18035 129.095 6.89719 129.294 6.63103 129.514C5.63473 130.349 4.82014 131.38 4.23754 132.542C3.65493 133.704 3.31668 134.973 3.24365 136.271V149.784L11.1986 154.379V154.343Z" fill="#2B50A5"/>
<path d="M15.442 133.514L237.748 5.16328C240.09 3.81194 241.991 4.91103 241.991 7.61373V195.379C241.911 196.85 241.485 198.282 240.748 199.558C240.01 200.833 238.982 201.917 237.748 202.721L15.442 331.072C13.0996 332.424 11.1987 331.325 11.1987 328.622V140.866C11.2782 139.393 11.7038 137.96 12.4411 136.682C13.1783 135.405 14.2065 134.32 15.442 133.514Z" fill="#F0F0F0"/>
<path d="M237.748 5.16346L15.442 133.514C14.2065 134.32 13.1783 135.405 12.4411 136.683C11.7038 137.96 11.2782 139.393 11.1987 140.866V154.379L241.991 21.1004V7.58688C241.991 4.91121 240.09 3.81211 237.748 5.16346Z" fill="#2B50A5"/>
<path opacity="0.1" d="M4.47859 132.091C3.7161 133.356 3.28826 134.795 3.23535 136.271V149.785L11.1993 154.379V140.866C11.251 139.389 11.6789 137.95 12.4425 136.686L4.47859 132.091Z" fill="#2B50A5"/>
<path opacity="0.4" d="M232.784 0.27154C232.302 0.0510212 231.771 -0.0376539 231.243 0.0145805C230.716 0.066815 230.213 0.258085 229.784 0.568837L7.47802 128.92C6.2251 129.705 5.19269 130.796 4.47803 132.091L12.442 136.686C13.1566 135.391 14.189 134.3 15.442 133.514L237.748 5.16342C238.164 4.86142 238.652 4.67207 239.163 4.61367C239.675 4.55528 240.192 4.62982 240.667 4.83009C239.522 4.1454 233.531 0.694962 232.784 0.27154Z" fill="white"/>
<path d="M12.3613 331.325C11.2712 330.703 5.15407 327.207 4.42435 326.739C4.01221 326.428 3.68714 326.016 3.48044 325.542C3.27375 325.069 3.19238 324.55 3.24417 324.036V149.749L11.2081 154.343V328.631C11.1583 329.141 11.2378 329.655 11.4394 330.126C11.6409 330.596 11.958 331.009 12.3613 331.325Z" fill="#E6E6E6"/>
<path d="M214.665 23.7941C213.286 24.5959 212.16 26.9653 212.16 29.1004C212.16 31.2355 213.259 32.2986 214.665 31.5238C216.07 30.7491 217.169 28.3527 217.169 26.2266C217.169 24.1004 216.043 23.0013 214.665 23.7941Z" fill="#455A64"/>
<path d="M223.675 18.5868C222.297 19.3796 221.17 21.758 221.17 23.8841C221.17 26.0102 222.297 27.0913 223.675 26.2895C225.053 25.4877 226.179 23.1183 226.179 20.9922C226.179 18.8661 225.062 17.785 223.675 18.5868Z" fill="#455A64"/>
<path opacity="0.15" d="M23.1367 165.83L130.578 103.803V246.235L23.1367 308.271V165.83Z" fill="#2B50A5"/>
<path d="M23.1367 167.181V165.83L24.3079 165.154" stroke="#2B50A5" stroke-width="1.5" stroke-linecap="round" stroke-linejoin="round"/>
<path d="M28.2622 162.875L127.433 105.614" stroke="#2B50A5" stroke-width="1.5" stroke-linecap="round" stroke-linejoin="round" stroke-dasharray="3.04 5.06"/>
<path d="M129.406 104.478L130.577 103.803V105.154" stroke="#2B50A5" stroke-width="1.5" stroke-linecap="round" stroke-linejoin="round"/>
<path d="M130.578 109.604V242.658" stroke="#2B50A5" stroke-width="1.5" stroke-linecap="round" stroke-linejoin="round" stroke-dasharray="2.96 4.94"/>
<path d="M130.577 244.883V246.235L129.406 246.91" stroke="#2B50A5" stroke-width="1.5" stroke-linecap="round" stroke-linejoin="round"/>
<path d="M125.45 249.199L26.2793 306.451" stroke="#2B50A5" stroke-width="1.5" stroke-linecap="round" stroke-linejoin="round" stroke-dasharray="3.04 5.06"/>
<path d="M24.3079 307.595L23.1367 308.271V306.919" stroke="#2B50A5" stroke-width="1.5" stroke-linecap="round" stroke-linejoin="round"/>
<path d="M23.1367 302.469V169.406" stroke="#2B50A5" stroke-width="1.5" stroke-linecap="round" stroke-linejoin="round" stroke-dasharray="2.96 4.94"/>
<path d="M84.3605 189.902V198.307L69.3516 206.974V198.568" stroke="#2B50A5" stroke-width="2" stroke-linecap="round" stroke-linejoin="round"/>
<path d="M81.1176 185.974L76.6222 179.496L72.1177 191.172" stroke="#2B50A5" stroke-width="2" stroke-linecap="round" stroke-linejoin="round"/>
<path d="M76.6216 180.847V197.118" stroke="#2B50A5" stroke-width="2" stroke-linecap="round" stroke-linejoin="round"/>
<path d="M57.0898 238.118L96.6212 215.307C97.7923 214.631 98.7383 215.181 98.7383 216.532V227.694C98.6987 228.43 98.4864 229.147 98.1186 229.785C97.7508 230.424 97.2378 230.967 96.6212 231.37L57.0898 254.181C55.9186 254.857 54.9727 254.307 54.9727 252.956V241.794C55.0122 241.058 55.2245 240.341 55.5923 239.703C55.9601 239.064 56.4731 238.521 57.0898 238.118Z" fill="#2B50A5"/>
<path d="M63.4967 239.631C63.4948 239.528 63.5196 239.425 63.5688 239.334C63.6028 239.251 63.6589 239.18 63.7309 239.127L64.4066 238.739C64.4293 238.72 64.458 238.71 64.4877 238.71C64.5173 238.71 64.546 238.72 64.5688 238.739C64.5944 238.769 64.614 238.803 64.6263 238.84C64.6387 238.877 64.6436 238.917 64.6408 238.956V242.406C64.6102 242.809 64.688 243.214 64.8661 243.577C65.0192 243.811 65.2625 243.838 65.6048 243.64C65.9387 243.431 66.1901 243.113 66.3165 242.739C66.4863 242.275 66.5688 241.783 66.5598 241.289V237.829C66.5622 237.726 66.5868 237.625 66.6318 237.532C66.6665 237.447 66.7262 237.375 66.803 237.325L67.4697 236.938C67.4938 236.918 67.524 236.907 67.5552 236.907C67.5864 236.907 67.6167 236.918 67.6408 236.938C67.6665 236.967 67.686 237.001 67.6984 237.038C67.7108 237.076 67.7157 237.115 67.7129 237.154V243.46C67.7116 243.563 67.687 243.665 67.6408 243.757C67.6062 243.842 67.5465 243.915 67.4697 243.965L66.803 244.352C66.7788 244.372 66.7486 244.383 66.7174 244.383C66.6862 244.383 66.656 244.372 66.6318 244.352C66.6062 244.322 66.5866 244.288 66.5742 244.251C66.5619 244.214 66.557 244.175 66.5598 244.136V243.82C66.4185 244.119 66.2528 244.405 66.0643 244.676C65.8736 244.95 65.6243 245.178 65.3345 245.343C65.0735 245.531 64.7543 245.62 64.4336 245.595C64.3196 245.58 64.2104 245.54 64.1137 245.478C64.0171 245.416 63.9356 245.333 63.8751 245.235C63.7141 244.982 63.6125 244.695 63.5778 244.397C63.5136 244.013 63.4835 243.624 63.4877 243.235L63.4967 239.631Z" fill="#FAFAFA"/>
<path d="M71.4054 241.865C71.2506 241.957 71.0839 242.027 70.9099 242.073C70.7848 242.095 70.6567 242.095 70.5315 242.073C70.4323 242.06 70.337 242.026 70.2523 241.973C70.1863 241.926 70.1259 241.872 70.0721 241.811V244.703C70.0807 244.817 70.0622 244.931 70.018 245.036C69.9862 245.123 69.9258 245.196 69.8469 245.244L69.1802 245.631C69.1561 245.651 69.1258 245.662 69.0946 245.662C69.0634 245.662 69.0332 245.651 69.009 245.631C68.9605 245.57 68.9378 245.492 68.946 245.415V236.505C68.945 236.402 68.9666 236.301 69.009 236.208C69.0492 236.126 69.1079 236.055 69.1802 236L69.8469 235.622C69.8702 235.601 69.9007 235.589 69.9324 235.589C69.9642 235.589 69.9947 235.601 70.018 235.622C70.0437 235.652 70.0632 235.686 70.0756 235.723C70.088 235.76 70.0929 235.799 70.0901 235.838V236.145L70.2703 235.775C70.356 235.629 70.4492 235.488 70.5496 235.352C70.6632 235.2 70.7898 235.058 70.9279 234.928C71.076 234.786 71.2427 234.665 71.4234 234.568C71.6566 234.412 71.937 234.342 72.2162 234.37C72.4558 234.41 72.6731 234.535 72.8288 234.721C73.0104 234.958 73.145 235.227 73.2252 235.514C73.3252 235.875 73.3796 236.247 73.3874 236.622C73.3874 236.757 73.3874 236.91 73.3874 237.091C73.3874 237.271 73.3874 237.433 73.3874 237.568C73.3723 238.004 73.318 238.439 73.2252 238.865C73.1298 239.291 72.9972 239.707 72.8288 240.109C72.6701 240.487 72.4642 240.844 72.2162 241.172C71.9973 241.457 71.7211 241.693 71.4054 241.865ZM72.2252 238.109C72.2432 237.857 72.2432 237.604 72.2252 237.352C72.2252 236.784 72.0721 236.451 71.8739 236.289C71.7659 236.212 71.6368 236.171 71.5045 236.171C71.3722 236.171 71.2432 236.212 71.1351 236.289C70.8173 236.479 70.5657 236.762 70.4144 237.1C70.2059 237.511 70.0891 237.963 70.0721 238.424C70.0721 238.568 70.0721 238.739 70.0721 238.946C70.0721 239.154 70.0721 239.325 70.0721 239.451C70.0658 239.616 70.0929 239.781 70.1517 239.936C70.2105 240.091 70.2999 240.232 70.4144 240.352C70.5186 240.429 70.645 240.471 70.7748 240.471C70.9046 240.471 71.031 240.429 71.1351 240.352C71.4489 240.152 71.7039 239.872 71.8739 239.541C72.0885 239.093 72.2081 238.605 72.2252 238.109Z" fill="#FAFAFA"/>
<path d="M75.5323 238.983C75.5299 239.086 75.5053 239.187 75.4603 239.28C75.4256 239.365 75.3659 239.437 75.2891 239.487L74.6224 239.875C74.5983 239.894 74.568 239.905 74.5368 239.905C74.5056 239.905 74.4754 239.894 74.4513 239.875C74.4256 239.845 74.406 239.811 74.3937 239.774C74.3813 239.737 74.3764 239.698 74.3792 239.658V230.749C74.3817 230.646 74.4062 230.544 74.4513 230.451C74.4885 230.368 74.5477 230.296 74.6224 230.244L75.2891 229.857C75.3132 229.837 75.3435 229.826 75.3747 229.826C75.4059 229.826 75.4361 229.837 75.4603 229.857C75.4859 229.886 75.5055 229.921 75.5178 229.958C75.5302 229.995 75.5351 230.034 75.5323 230.073V238.983Z" fill="#FAFAFA"/>
<path d="M78.7665 230.289C79.0366 230.118 79.3476 230.021 79.6673 230.01C79.9151 230.013 80.1541 230.102 80.343 230.262C80.5559 230.444 80.7148 230.681 80.8025 230.947C80.9259 231.285 80.9929 231.641 81.0007 232.001C81.0061 232.103 81.0061 232.205 81.0007 232.307V233.055C81.0007 233.181 81.0007 233.28 81.0007 233.37C80.9794 233.803 80.913 234.231 80.8025 234.65C80.6981 235.069 80.5439 235.474 80.343 235.857C80.1604 236.225 79.9335 236.57 79.6673 236.884C79.4121 237.18 79.1073 237.43 78.7665 237.623C78.4942 237.788 78.184 237.881 77.8656 237.893C77.6198 237.897 77.3805 237.814 77.1899 237.659C76.9826 237.474 76.8274 237.238 76.7394 236.974C76.6178 236.638 76.5479 236.286 76.5322 235.929C76.5322 235.848 76.5322 235.749 76.5322 235.623C76.5322 235.496 76.5322 235.379 76.5322 235.253C76.5322 235.127 76.5322 235.001 76.5322 234.875C76.5322 234.749 76.5322 234.641 76.5322 234.551C76.5504 234.118 76.6168 233.689 76.7304 233.271C76.8458 232.853 76.9996 232.445 77.1899 232.055C77.3726 231.687 77.5994 231.342 77.8656 231.028C78.1213 230.732 78.426 230.482 78.7665 230.289ZM79.8295 232.731C79.8211 232.515 79.7786 232.302 79.7034 232.1C79.6518 231.977 79.5637 231.874 79.4511 231.803C79.3454 231.771 79.2325 231.771 79.1268 231.803C78.9994 231.834 78.8777 231.886 78.7665 231.956C78.6365 232.032 78.5155 232.123 78.4061 232.226C78.2794 232.348 78.1675 232.484 78.0728 232.632C77.967 232.819 77.8853 233.019 77.8295 233.226C77.753 233.475 77.7076 233.732 77.6944 233.992C77.6944 234.073 77.6944 234.163 77.6944 234.271C77.6944 234.379 77.6944 234.496 77.6944 234.614C77.6944 234.731 77.6944 234.848 77.6944 234.956C77.6944 235.064 77.6944 235.154 77.6944 235.217C77.6995 235.431 77.7454 235.642 77.8295 235.839C77.8699 235.965 77.9569 236.071 78.0728 236.136C78.1803 236.176 78.2986 236.176 78.4061 236.136C78.5327 236.106 78.6542 236.058 78.7665 235.992C78.8949 235.914 79.0156 235.823 79.1268 235.722C79.2552 235.601 79.3646 235.461 79.4511 235.307C79.558 235.123 79.6427 234.926 79.7034 234.722C79.7731 234.469 79.8154 234.209 79.8295 233.947C79.835 233.857 79.835 233.767 79.8295 233.677V232.992C79.8349 232.905 79.8349 232.818 79.8295 232.731Z" fill="#FAFAFA"/>
<path d="M81.99 230.298C82.0217 230.059 82.076 229.824 82.1521 229.595C82.2434 229.31 82.3642 229.035 82.5125 228.776C82.6739 228.487 82.8673 228.218 83.0891 227.974C83.3168 227.722 83.581 227.507 83.8728 227.334C84.12 227.184 84.3965 227.089 84.6837 227.055C84.9049 227.033 85.1263 227.094 85.3053 227.226C85.5036 227.399 85.6449 227.629 85.7107 227.884C85.8099 228.26 85.8553 228.648 85.8458 229.037V233.028C85.8467 233.13 85.8252 233.232 85.7828 233.325C85.7425 233.406 85.6839 233.477 85.6116 233.532L84.9449 233.92C84.9208 233.939 84.8905 233.95 84.8593 233.95C84.8281 233.95 84.7979 233.939 84.7737 233.92C84.7481 233.89 84.7285 233.856 84.7162 233.819C84.7038 233.782 84.6989 233.742 84.7017 233.703V233.253C84.5747 233.605 84.3955 233.936 84.1701 234.235C83.9315 234.562 83.624 234.833 83.2692 235.028C83.0627 235.159 82.8281 235.239 82.5846 235.262C82.4959 235.271 82.4064 235.262 82.3213 235.236C82.2362 235.209 82.1572 235.166 82.0891 235.109C81.939 234.981 81.8295 234.812 81.7738 234.622C81.6963 234.369 81.6598 234.104 81.6657 233.839C81.659 233.237 81.808 232.645 82.0981 232.118C82.394 231.588 82.7849 231.118 83.2512 230.73L84.6837 229.523C84.6837 229.154 84.6026 228.938 84.4494 228.875C84.3486 228.847 84.2427 228.842 84.1397 228.861C84.0368 228.879 83.9394 228.921 83.8548 228.983C83.7236 229.06 83.6076 229.161 83.5125 229.28C83.4214 229.404 83.3429 229.537 83.2783 229.676C83.2372 229.759 83.1889 229.837 83.1341 229.911C83.0894 229.957 83.0377 229.997 82.981 230.028L82.1611 230.505C82.14 230.52 82.1148 230.528 82.0891 230.528C82.0633 230.528 82.0381 230.52 82.017 230.505C82.017 230.505 81.981 230.397 81.99 230.298ZM83.4584 233.28C83.6607 233.166 83.8408 233.017 83.99 232.839C84.1481 232.669 84.2815 232.478 84.3864 232.271C84.5819 231.888 84.6896 231.466 84.7017 231.037V230.902L83.5305 231.92C83.3267 232.083 83.1503 232.277 83.008 232.496C82.9091 232.679 82.8565 232.883 82.8548 233.091C82.8548 233.28 82.9179 233.379 83.044 233.397C83.1863 233.417 83.3311 233.391 83.4584 233.325V233.28Z" fill="#FAFAFA"/>
<path d="M88.7843 224.505C88.9391 224.414 89.1058 224.344 89.2798 224.298C89.4049 224.276 89.533 224.276 89.6581 224.298C89.7561 224.315 89.8504 224.349 89.9374 224.397C90.0034 224.444 90.0638 224.499 90.1176 224.559V221.667C90.1201 221.564 90.1446 221.463 90.1897 221.37C90.2243 221.285 90.284 221.213 90.3608 221.163L91.0275 220.775C91.0517 220.756 91.0819 220.745 91.1131 220.745C91.1443 220.745 91.1745 220.756 91.1987 220.775C91.2472 220.836 91.2699 220.914 91.2617 220.992V229.902C91.2627 230.004 91.2411 230.106 91.1987 230.199C91.1585 230.28 91.0999 230.351 91.0275 230.406L90.3608 230.793C90.3367 230.813 90.3065 230.824 90.2753 230.824C90.2441 230.824 90.2138 230.813 90.1897 230.793C90.164 230.764 90.1445 230.73 90.1321 230.692C90.1197 230.655 90.1148 230.616 90.1176 230.577V230.271C90.1176 230.379 90.0095 230.496 89.9374 230.64C89.8517 230.786 89.7585 230.927 89.6581 231.064C89.5445 231.216 89.4179 231.357 89.2798 231.487C89.1317 231.629 88.965 231.75 88.7843 231.847C88.5511 232.004 88.2707 232.074 87.9915 232.046C87.7505 232.009 87.5319 231.884 87.3789 231.694C87.1973 231.458 87.0627 231.189 86.9825 230.902C86.8825 230.54 86.8281 230.168 86.8203 229.793C86.8203 229.667 86.8203 229.505 86.8203 229.325C86.8203 229.145 86.8203 228.983 86.8203 228.847C86.8354 228.411 86.8897 227.977 86.9825 227.55C87.0792 227.122 87.2118 226.703 87.3789 226.298C87.5518 225.911 87.7728 225.548 88.0365 225.217C88.2352 224.932 88.4896 224.69 88.7843 224.505ZM87.9645 228.262C87.9464 228.514 87.9464 228.767 87.9645 229.019C87.9645 229.586 88.1176 229.92 88.3248 230.082C88.4309 230.159 88.5586 230.2 88.6897 230.2C88.8207 230.2 88.9484 230.159 89.0545 230.082C89.3724 229.892 89.624 229.609 89.7753 229.271C89.9849 228.86 90.1018 228.408 90.1176 227.947C90.1279 227.773 90.1279 227.598 90.1176 227.424C90.1282 227.256 90.1282 227.088 90.1176 226.92C90.1234 226.754 90.0961 226.589 90.0373 226.435C89.9785 226.28 89.8894 226.138 89.7753 226.019C89.6717 225.94 89.5451 225.897 89.4149 225.897C89.2847 225.897 89.1581 225.94 89.0545 226.019C88.7396 226.211 88.4864 226.489 88.3248 226.82C88.1025 227.269 87.9796 227.761 87.9645 228.262Z" fill="#FAFAFA"/>
<path d="M138.532 99.5773L170.361 81.199V108.766L138.532 127.136V99.5773Z" stroke="#2B50A5" stroke-linecap="round" stroke-linejoin="round"/>
<path d="M138.532 121.632L149.145 100.803L160.631 108.154" stroke="#2B50A5" stroke-linecap="round" stroke-linejoin="round"/>
<path d="M157.197 105.956L162.81 97.3613L170.359 102.028" stroke="#2B50A5" stroke-linecap="round" stroke-linejoin="round"/>
<path d="M157.045 93.4876C158.288 92.7669 159.306 93.3525 159.306 94.7939C159.262 95.5786 159.035 96.342 158.642 97.0227C158.249 97.7034 157.702 98.2823 157.045 98.7128C155.792 99.4426 154.774 98.857 154.774 97.4065C154.818 96.6207 155.046 95.8563 155.44 95.1753C155.835 94.4943 156.385 93.9161 157.045 93.4876Z" stroke="#2B50A5" stroke-linecap="round" stroke-linejoin="round"/>
<path d="M230.848 58.9475L229.703 57.8394L230.974 55.1367C231.007 55.0676 231.026 54.9926 231.03 54.916C231.034 54.8394 231.023 54.7628 230.997 54.6906C230.971 54.6185 230.931 54.5522 230.879 54.4958C230.827 54.4393 230.764 54.3938 230.694 54.3619C230.555 54.2971 230.395 54.29 230.25 54.3423C230.105 54.3946 229.986 54.502 229.92 54.6412L228.812 56.9835L227.911 56.1457C227.855 56.0924 227.79 56.0507 227.718 56.0228C227.646 55.9948 227.569 55.9813 227.493 55.983C227.416 55.9847 227.34 56.0015 227.269 56.0325C227.199 56.0635 227.135 56.1081 227.082 56.1637C227.029 56.2193 226.987 56.2848 226.959 56.3566C226.931 56.4283 226.918 56.5049 226.919 56.5818C226.921 56.6588 226.938 56.7347 226.969 56.8051C227 56.8756 227.044 56.9393 227.1 56.9925L228.253 58.1006L226.974 60.8033C226.909 60.9445 226.901 61.1057 226.953 61.2522C227.006 61.3987 227.113 61.5189 227.253 61.5871C227.332 61.6231 227.418 61.6415 227.505 61.6411C227.615 61.64 227.722 61.6082 227.814 61.5493C227.907 61.4904 227.981 61.4067 228.028 61.3078L229.136 58.9655L230.037 59.7943C230.091 59.8499 230.155 59.8941 230.226 59.9243C230.297 59.9544 230.374 59.97 230.451 59.97C230.529 59.97 230.605 59.9544 230.676 59.9243C230.747 59.8941 230.812 59.8499 230.866 59.7943C230.922 59.7384 230.966 59.6717 230.995 59.5983C231.025 59.5249 231.039 59.4462 231.038 59.367C231.036 59.2879 231.018 59.2099 230.986 59.1378C230.953 59.0656 230.906 59.0009 230.848 58.9475Z" fill="#455A64"/>
<path d="M175.801 98.9017C175.801 100.172 176.747 100.649 177.918 99.9738L225.405 72.5595C226.012 72.1823 226.52 71.6662 226.888 71.0537C227.257 70.4412 227.474 69.7499 227.522 69.0369C227.522 67.7667 226.576 67.2892 225.405 67.9649L177.918 95.3792C177.311 95.7563 176.803 96.2725 176.435 96.885C176.067 97.4974 175.849 98.1887 175.801 98.9017Z" fill="#E0E0E0"/>
<path d="M175.801 98.9018C175.801 100.172 176.747 100.65 177.918 99.9739L204.432 84.6766C205.039 84.2995 205.547 83.7834 205.916 83.1709C206.284 82.5584 206.501 81.8671 206.549 81.1541C206.549 79.8839 205.603 79.4064 204.432 80.0821L177.918 95.3973C177.314 95.7727 176.807 96.286 176.439 96.8951C176.071 97.5043 175.852 98.192 175.801 98.9018Z" fill="#2B50A5"/>
<path d="M176.486 84.0099C176.494 84.002 176.503 83.9957 176.513 83.9914C176.523 83.9871 176.534 83.9849 176.545 83.9849C176.556 83.9849 176.567 83.9871 176.577 83.9914C176.587 83.9957 176.596 84.002 176.604 84.0099C176.623 84.0298 176.638 84.0539 176.648 84.0803C176.657 84.1068 176.66 84.1351 176.658 84.163V84.9288C176.657 85.0041 176.638 85.0782 176.604 85.145C176.579 85.2034 176.539 85.2535 176.486 85.2891L175.937 85.6045C175.929 85.6124 175.92 85.6186 175.91 85.6229C175.9 85.6272 175.889 85.6295 175.878 85.6295C175.867 85.6295 175.857 85.6272 175.846 85.6229C175.836 85.6186 175.827 85.6124 175.82 85.6045C175.8 85.5845 175.785 85.5605 175.775 85.534C175.766 85.5075 175.763 85.4792 175.766 85.4513V84.6765C175.766 84.6012 175.785 84.5271 175.82 84.4603C175.844 84.4019 175.885 84.3518 175.937 84.3162L176.486 84.0099ZM176.622 90.6134C176.62 90.6876 176.604 90.7609 176.576 90.8297C176.552 90.893 176.508 90.9467 176.45 90.9828L175.973 91.2621C175.955 91.2753 175.932 91.2824 175.91 91.2824C175.887 91.2824 175.865 91.2753 175.847 91.2621C175.815 91.2142 175.799 91.1574 175.802 91.0999V86.5324C175.804 86.4582 175.819 86.385 175.847 86.3162C175.871 86.2529 175.915 86.1992 175.973 86.163L176.45 85.8837C176.469 85.8705 176.491 85.8634 176.513 85.8634C176.536 85.8634 176.558 85.8705 176.576 85.8837C176.608 85.9316 176.624 85.9884 176.622 86.0459V90.6134Z" fill="#455A64"/>
<path d="M178.333 85.2893C178.427 85.0577 178.551 84.8396 178.702 84.6407C178.824 84.4774 178.977 84.3396 179.153 84.2353C179.245 84.1645 179.352 84.1142 179.465 84.0878C179.578 84.0614 179.696 84.0595 179.81 84.0821C179.986 84.1481 180.128 84.2809 180.207 84.4515C180.263 84.2898 180.332 84.1332 180.414 83.983C180.489 83.8394 180.573 83.7009 180.666 83.5686C180.751 83.4506 180.847 83.3418 180.955 83.2443C181.039 83.1612 181.132 83.0885 181.234 83.028C181.412 82.9016 181.629 82.844 181.846 82.8659C181.926 82.881 182.002 82.913 182.069 82.9595C182.136 83.0061 182.192 83.0663 182.234 83.1362C182.347 83.3226 182.418 83.5318 182.441 83.7488C182.486 84.0257 182.508 84.306 182.504 84.5866V87.2262C182.503 87.3016 182.485 87.3757 182.45 87.4425C182.429 87.5025 182.387 87.5533 182.333 87.5866L181.846 87.8659C181.839 87.8738 181.83 87.8801 181.82 87.8844C181.81 87.8887 181.799 87.8909 181.788 87.8909C181.777 87.8909 181.766 87.8887 181.756 87.8844C181.746 87.8801 181.737 87.8738 181.729 87.8659C181.709 87.846 181.694 87.8219 181.685 87.7954C181.676 87.7689 181.672 87.7407 181.675 87.7127V85.1181C181.714 84.8287 181.657 84.5345 181.513 84.2803C181.396 84.1632 181.243 84.1722 181.045 84.2803C180.854 84.4028 180.704 84.5781 180.612 84.7848C180.476 85.1035 180.408 85.4473 180.414 85.7938V88.4244C180.427 88.496 180.427 88.5691 180.414 88.6406C180.387 88.7022 180.343 88.7552 180.288 88.7938L179.801 89.0731C179.785 89.087 179.764 89.0947 179.743 89.0947C179.721 89.0947 179.701 89.087 179.684 89.0731C179.666 89.0504 179.653 89.0244 179.645 88.9966C179.638 88.9687 179.635 88.9396 179.639 88.9109V86.3163C179.675 86.0287 179.615 85.7374 179.468 85.4875C179.36 85.3674 179.207 85.3674 179.009 85.4875C178.81 85.6133 178.653 85.7952 178.558 86.01C178.422 86.3376 178.36 86.6916 178.378 87.0461V89.6316C178.377 89.707 178.359 89.7811 178.324 89.8478C178.302 89.9079 178.261 89.9587 178.207 89.992L177.72 90.2803C177.701 90.2914 177.679 90.2972 177.657 90.2972C177.635 90.2972 177.613 90.2914 177.594 90.2803C177.562 90.2324 177.546 90.1756 177.549 90.1181V85.5776C177.552 85.5064 177.567 85.4363 177.594 85.3704C177.621 85.3088 177.665 85.2558 177.72 85.2172L178.207 84.938C178.214 84.9301 178.223 84.9238 178.233 84.9195C178.244 84.9152 178.254 84.913 178.265 84.913C178.276 84.913 178.287 84.9152 178.297 84.9195C178.307 84.9238 178.316 84.9301 178.324 84.938C178.361 84.98 178.381 85.035 178.378 85.0911L178.333 85.2893Z" fill="#455A64"/>
<path d="M183.352 83.163C183.373 82.9882 183.413 82.8162 183.469 82.6495C183.537 82.4432 183.624 82.2441 183.73 82.0549C183.848 81.8488 183.987 81.6556 184.145 81.4783C184.309 81.2965 184.5 81.1415 184.712 81.0188C184.891 80.9093 185.09 80.8387 185.298 80.8116C185.46 80.7996 185.62 80.8477 185.748 80.9468C185.891 81.069 185.992 81.2328 186.037 81.4152C186.107 81.6857 186.141 81.9646 186.136 82.2441V85.1269C186.148 85.1984 186.148 85.2716 186.136 85.3431C186.108 85.4022 186.065 85.4522 186.01 85.4873L185.523 85.7666C185.516 85.7745 185.507 85.7808 185.497 85.7851C185.486 85.7894 185.476 85.7916 185.465 85.7916C185.454 85.7916 185.443 85.7894 185.433 85.7851C185.423 85.7808 185.414 85.7745 185.406 85.7666C185.377 85.7451 185.355 85.7159 185.343 85.6824C185.33 85.6489 185.327 85.6125 185.334 85.5774V85.2531C185.243 85.5047 185.116 85.7415 184.956 85.9558C184.783 86.1886 184.565 86.3846 184.316 86.5323C184.165 86.6237 183.996 86.682 183.821 86.7035C183.691 86.7118 183.563 86.6734 183.46 86.5954C183.357 86.4949 183.28 86.3714 183.235 86.235C183.176 86.0517 183.149 85.8599 183.154 85.6675C183.15 85.2357 183.259 84.8103 183.469 84.4332C183.681 84.0513 183.962 83.7122 184.298 83.4332L185.334 82.5323C185.334 82.2621 185.28 82.1089 185.163 82.0639C185.091 82.0446 185.015 82.0419 184.942 82.0559C184.869 82.07 184.799 82.1004 184.739 82.145C184.643 82.1968 184.557 82.2672 184.487 82.3522C184.427 82.4449 184.373 82.5411 184.325 82.6404L184.217 82.8116L184.109 82.9017L183.514 83.235C183.498 83.2455 183.479 83.2511 183.46 83.2511C183.441 83.2511 183.422 83.2455 183.406 83.235C183.381 83.217 183.362 83.1919 183.352 83.163ZM184.433 85.3071C184.578 85.2228 184.709 85.1164 184.821 84.9918C184.932 84.8669 185.026 84.7275 185.1 84.5774C185.178 84.436 185.235 84.2844 185.271 84.1269C185.306 83.9853 185.324 83.8402 185.325 83.6945V83.5954L184.424 84.3251C184.278 84.4443 184.153 84.5875 184.055 84.7486C183.975 84.8752 183.935 85.0224 183.938 85.172C183.938 85.3071 183.983 85.3792 184.073 85.3972C184.2 85.4092 184.327 85.3774 184.433 85.3071Z" fill="#455A64"/>
<path d="M188.424 85.0459C188.647 84.9056 188.831 84.7101 188.956 84.4783C189.037 84.3331 189.1 84.1789 189.145 84.0189C189.193 83.8458 189.217 83.667 189.217 83.4873V83.118C189.181 83.2021 189.136 83.2922 189.082 83.3882C189.026 83.4963 188.959 83.5989 188.884 83.6946C188.801 83.803 188.711 83.9053 188.614 84.0009C188.505 84.1025 188.384 84.1903 188.253 84.2621C188.085 84.3782 187.88 84.4294 187.677 84.4063C187.508 84.3751 187.355 84.2859 187.244 84.154C187.108 83.9849 187.009 83.7882 186.956 83.5774C186.882 83.3196 186.842 83.053 186.839 82.7846C186.839 82.6855 186.839 82.5684 186.839 82.4423C186.839 82.3162 186.839 82.1991 186.839 82.1C186.85 81.7967 186.889 81.495 186.956 81.1991C187.022 80.89 187.119 80.5882 187.244 80.2982C187.359 80.0275 187.504 79.7707 187.677 79.5324C187.837 79.3256 188.032 79.1487 188.253 79.0099C188.365 78.9434 188.487 78.8948 188.614 78.8657C188.703 78.848 188.795 78.848 188.884 78.8657C188.955 78.873 189.023 78.8978 189.082 78.9378C189.133 78.9696 189.179 79.0091 189.217 79.0549V78.8297C189.218 78.7544 189.236 78.6803 189.271 78.6135C189.296 78.5527 189.336 78.4998 189.388 78.4603L189.875 78.1811C189.891 78.1671 189.912 78.1594 189.933 78.1594C189.955 78.1594 189.976 78.1671 189.992 78.1811C190.012 78.203 190.026 78.2287 190.036 78.2566C190.045 78.2844 190.049 78.3139 190.046 78.3432V82.8747C190.063 83.5779 189.915 84.2752 189.614 84.9108C189.354 85.449 188.94 85.8976 188.424 86.1991C188.244 86.3114 188.041 86.3821 187.83 86.4063C187.667 86.4319 187.5 86.4067 187.352 86.3342C187.211 86.2666 187.094 86.1563 187.019 86.0189C186.936 85.8668 186.893 85.6965 186.893 85.5234C186.887 85.4514 186.903 85.3792 186.938 85.3162C186.965 85.2546 187.009 85.2016 187.064 85.163L187.497 84.9108C187.519 84.894 187.545 84.8849 187.573 84.8849C187.601 84.8849 187.628 84.894 187.65 84.9108L187.758 85.0189C187.783 85.0575 187.816 85.0904 187.855 85.1152C187.894 85.1401 187.937 85.1564 187.983 85.163C188.139 85.1698 188.293 85.1289 188.424 85.0459ZM187.668 81.6855C187.65 81.8683 187.65 82.0524 187.668 82.2351C187.668 82.6495 187.776 82.9018 187.92 83.0009C187.998 83.0559 188.09 83.0855 188.186 83.0855C188.281 83.0855 188.374 83.0559 188.451 83.0009C188.678 82.8557 188.859 82.6496 188.974 82.4063C189.125 82.1101 189.209 81.7838 189.217 81.4513C189.217 81.3522 189.217 81.2261 189.217 81.0729C189.217 80.9198 189.217 80.8027 189.217 80.7126C189.224 80.5908 189.206 80.4689 189.164 80.3543C189.122 80.2397 189.058 80.1348 188.974 80.0459C188.898 79.9903 188.807 79.9603 188.713 79.9603C188.619 79.9603 188.527 79.9903 188.451 80.0459C188.222 80.1866 188.038 80.3897 187.92 80.6315C187.763 80.9612 187.677 81.3204 187.668 81.6855Z" fill="#455A64"/>
<path d="M190.74 80.1721C190.74 79.8061 190.776 79.441 190.848 79.082C190.912 78.7285 191.018 78.3837 191.163 78.055C191.291 77.7542 191.454 77.4699 191.65 77.2082C191.829 76.9784 192.049 76.783 192.298 76.6316C192.49 76.5042 192.718 76.444 192.947 76.4604C193.135 76.4808 193.309 76.5708 193.434 76.7127C193.586 76.8886 193.694 77.0987 193.749 77.3253C193.833 77.618 193.873 77.9217 193.866 78.2262V78.6676C193.865 78.743 193.847 78.817 193.812 78.8838C193.788 78.9423 193.747 78.9924 193.695 79.028L191.569 80.2532C191.564 80.3756 191.582 80.4979 191.623 80.6136C191.654 80.6979 191.715 80.7682 191.794 80.8118C191.869 80.8401 191.953 80.8401 192.028 80.8118C192.123 80.7934 192.214 80.76 192.298 80.7127C192.422 80.6426 192.534 80.5545 192.632 80.4514C192.711 80.3667 192.781 80.273 192.839 80.1721C192.87 80.1101 192.91 80.0526 192.956 80.001C192.989 79.9611 193.028 79.9275 193.073 79.9019L193.587 79.6046C193.594 79.5967 193.603 79.5904 193.613 79.5861C193.623 79.5818 193.634 79.5796 193.645 79.5796C193.656 79.5796 193.667 79.5818 193.677 79.5861C193.687 79.5904 193.696 79.5967 193.704 79.6046C193.724 79.6245 193.739 79.6486 193.748 79.675C193.757 79.7015 193.761 79.7298 193.758 79.7577C193.741 79.8993 193.708 80.0384 193.659 80.1721C193.586 80.3736 193.493 80.5669 193.379 80.7487C193.249 80.9718 193.095 81.1802 192.92 81.3703C192.742 81.5718 192.532 81.7423 192.298 81.8748C192.106 82.0002 191.879 82.0631 191.65 82.055C191.556 82.0487 191.464 82.0231 191.38 81.9797C191.296 81.9363 191.223 81.876 191.163 81.8028C191.007 81.6117 190.899 81.3863 190.848 81.1451C190.774 80.8261 190.738 80.4996 190.74 80.1721ZM192.298 77.8028C192.178 77.8729 192.071 77.9645 191.983 78.073C191.894 78.1758 191.822 78.2912 191.767 78.4154C191.706 78.533 191.657 78.6568 191.623 78.7847C191.598 78.8977 191.58 79.012 191.569 79.1271L193.001 78.2983C192.994 78.204 192.979 78.1106 192.956 78.019C192.942 77.9335 192.901 77.8547 192.839 77.7938C192.813 77.7639 192.781 77.7397 192.746 77.7227C192.71 77.7056 192.671 77.6961 192.632 77.6947C192.52 77.7065 192.412 77.7435 192.316 77.8028H192.298Z" fill="#455A64"/>
<path d="M194.62 81.0732C194.604 81.0871 194.583 81.0948 194.562 81.0948C194.54 81.0948 194.519 81.0871 194.503 81.0732C194.484 81.0512 194.469 81.0255 194.459 80.9976C194.45 80.9698 194.447 80.9403 194.449 80.911V80.2623C194.449 80.1897 194.467 80.1183 194.503 80.0551C194.527 79.9944 194.568 79.9414 194.62 79.902L198.341 77.7578C198.359 77.7446 198.381 77.7375 198.404 77.7375C198.427 77.7375 198.449 77.7446 198.467 77.7578C198.487 77.7798 198.501 77.8055 198.511 77.8334C198.52 77.8612 198.524 77.8907 198.521 77.92V78.5687C198.522 78.6413 198.503 78.7127 198.467 78.7759C198.443 78.8392 198.398 78.8929 198.341 78.929L194.62 81.0732Z" fill="#455A64"/>
<path d="M199 73.3255C198.987 73.2971 198.981 73.2664 198.981 73.2354C198.981 73.2044 198.987 73.1737 199 73.1453C199.004 73.0693 199.025 72.9954 199.063 72.9291L200.441 70.4606L200.549 70.2894C200.576 70.2376 200.617 70.194 200.666 70.1633L201.162 69.875C201.18 69.8618 201.202 69.8547 201.225 69.8547C201.248 69.8547 201.27 69.8618 201.288 69.875C201.32 69.9229 201.336 69.9797 201.333 70.0372V76.3435C201.331 76.4177 201.316 76.4909 201.288 76.5597C201.264 76.6207 201.219 76.6716 201.162 76.7038L200.648 77.0101C200.632 77.0241 200.611 77.0318 200.59 77.0318C200.568 77.0318 200.548 77.0241 200.531 77.0101C200.512 76.9882 200.497 76.9625 200.488 76.9346C200.478 76.9068 200.475 76.8773 200.477 76.848V72.0642L199.576 73.6768C199.547 73.7295 199.503 73.7731 199.45 73.8029C199.432 73.8132 199.412 73.8186 199.392 73.8186C199.371 73.8186 199.351 73.8132 199.333 73.8029L199 73.3255Z" fill="#455A64"/>
<path d="M138.532 137.65L170.361 119.271V146.83L138.532 165.208V137.65Z" stroke="#2B50A5" stroke-linecap="round" stroke-linejoin="round"/>
<path d="M138.532 159.704L149.145 138.875L160.631 146.226" stroke="#2B50A5" stroke-linecap="round" stroke-linejoin="round"/>
<path d="M157.197 144.028L162.81 135.433L170.359 140.1" stroke="#2B50A5" stroke-linecap="round" stroke-linejoin="round"/>
<path d="M157.045 131.524C158.288 130.803 159.306 131.38 159.306 132.83C159.262 133.615 159.035 134.378 158.642 135.059C158.249 135.74 157.702 136.319 157.045 136.749C155.792 137.47 154.774 136.884 154.774 135.443C154.818 134.657 155.046 133.893 155.44 133.212C155.835 132.531 156.385 131.952 157.045 131.524Z" stroke="#2B50A5" stroke-linecap="round" stroke-linejoin="round"/>
<path d="M230.847 97.01L229.703 95.9019L230.973 93.1992C231.013 93.1293 231.037 93.0521 231.045 92.9724C231.054 92.8926 231.046 92.812 231.021 92.7355C230.997 92.6591 230.958 92.5884 230.905 92.5278C230.853 92.4673 230.788 92.4182 230.716 92.3836C230.643 92.3489 230.565 92.3295 230.485 92.3266C230.405 92.3236 230.325 92.3371 230.25 92.3663C230.175 92.3955 230.107 92.4397 230.05 92.4962C229.994 92.5526 229.949 92.6202 229.919 92.6947L228.811 95.037L227.91 94.2082C227.856 94.1537 227.791 94.1105 227.72 94.081C227.649 94.0515 227.573 94.0363 227.496 94.0363C227.419 94.0363 227.342 94.0515 227.271 94.081C227.2 94.1105 227.136 94.1537 227.081 94.2082C227.027 94.2618 226.984 94.3257 226.955 94.396C226.925 94.4664 226.91 94.5419 226.91 94.6181C226.91 94.6944 226.925 94.7698 226.955 94.8402C226.984 94.9106 227.027 94.9744 227.081 95.028L228.234 96.1361L226.955 98.8388C226.89 98.9787 226.883 99.1385 226.936 99.2836C226.988 99.4287 227.095 99.5472 227.234 99.6136C227.314 99.6496 227.4 99.668 227.487 99.6676C227.597 99.6687 227.705 99.6378 227.797 99.5786C227.89 99.5194 227.964 99.4345 228.009 99.3343L229.117 96.992L230.018 97.8298C230.128 97.9333 230.273 97.9913 230.424 97.992C230.503 97.9932 230.581 97.9778 230.654 97.9467C230.727 97.9157 230.793 97.8697 230.847 97.8118C230.949 97.7032 231.006 97.5599 231.006 97.4109C231.006 97.2619 230.949 97.1186 230.847 97.01Z" fill="#455A64"/>
<path d="M175.801 136.974C175.801 138.244 176.747 138.721 177.918 138.046L225.405 110.631C226.012 110.254 226.52 109.738 226.888 109.126C227.257 108.513 227.474 107.822 227.522 107.109C227.522 105.839 226.576 105.361 225.405 106.037L177.918 133.451C177.311 133.828 176.803 134.344 176.435 134.957C176.067 135.569 175.849 136.261 175.801 136.974Z" fill="#E0E0E0"/>
<path d="M175.801 136.974C175.801 138.244 176.747 138.722 177.918 138.046L213.657 117.415C214.264 117.038 214.773 116.522 215.141 115.91C215.509 115.297 215.726 114.606 215.774 113.893C215.774 112.623 214.828 112.145 213.657 112.821L177.918 133.451C177.311 133.829 176.803 134.345 176.435 134.957C176.067 135.57 175.849 136.261 175.801 136.974Z" fill="#2B50A5"/>
<path d="M176.486 122.073C176.502 122.059 176.523 122.051 176.545 122.051C176.566 122.051 176.587 122.059 176.603 122.073C176.623 122.095 176.638 122.121 176.647 122.148C176.656 122.176 176.66 122.206 176.657 122.235V122.992C176.656 123.067 176.638 123.141 176.603 123.208C176.579 123.269 176.538 123.322 176.486 123.361L175.937 123.676C175.929 123.684 175.92 123.691 175.91 123.695C175.9 123.699 175.889 123.701 175.878 123.701C175.867 123.701 175.856 123.699 175.846 123.695C175.836 123.691 175.827 123.684 175.819 123.676C175.8 123.656 175.785 123.632 175.776 123.606C175.767 123.579 175.763 123.551 175.765 123.523V122.758C175.766 122.682 175.785 122.608 175.819 122.541C175.844 122.481 175.884 122.428 175.937 122.388L176.486 122.073ZM176.621 128.685C176.619 128.76 176.604 128.833 176.576 128.902C176.552 128.963 176.507 129.014 176.45 129.046L175.973 129.325C175.918 129.325 175.882 129.325 175.846 129.325C175.813 129.281 175.797 129.227 175.801 129.172V124.604C175.803 124.53 175.819 124.457 175.846 124.388C175.871 124.327 175.915 124.276 175.973 124.244L176.45 123.965C176.504 123.965 176.54 123.965 176.576 123.965C176.609 124.009 176.625 124.063 176.621 124.118V128.685Z" fill="#455A64"/>
<path d="M178.333 123.361C178.423 123.128 178.548 122.909 178.703 122.713C178.825 122.547 178.978 122.406 179.153 122.298C179.247 122.231 179.354 122.183 179.467 122.158C179.58 122.133 179.697 122.132 179.811 122.154C179.986 122.22 180.129 122.353 180.207 122.524C180.263 122.362 180.332 122.205 180.414 122.055C180.489 121.911 180.573 121.773 180.667 121.641C180.751 121.523 180.848 121.414 180.955 121.316C181.039 121.231 181.133 121.155 181.234 121.091C181.415 120.971 181.63 120.915 181.847 120.929C181.927 120.948 182.002 120.982 182.068 121.03C182.135 121.078 182.191 121.138 182.234 121.208C182.346 121.392 182.417 121.598 182.441 121.812C182.486 122.092 182.508 122.375 182.504 122.659V125.289C182.504 125.365 182.485 125.439 182.45 125.506C182.429 125.568 182.388 125.622 182.333 125.659L181.847 125.938C181.83 125.952 181.81 125.96 181.788 125.96C181.767 125.96 181.746 125.952 181.73 125.938C181.71 125.916 181.695 125.89 181.686 125.862C181.677 125.835 181.673 125.805 181.676 125.776V123.19C181.711 122.901 181.654 122.608 181.513 122.352C181.396 122.244 181.243 122.244 181.045 122.352C180.855 122.475 180.705 122.65 180.613 122.857C180.476 123.176 180.409 123.519 180.414 123.866V126.497C180.427 126.568 180.427 126.641 180.414 126.713C180.387 126.772 180.343 126.822 180.288 126.857L179.802 127.136C179.794 127.144 179.785 127.15 179.775 127.155C179.765 127.159 179.754 127.161 179.743 127.161C179.732 127.161 179.721 127.159 179.711 127.155C179.701 127.15 179.692 127.144 179.685 127.136C179.685 127.136 179.64 127.055 179.64 126.983V124.397C179.673 124.107 179.613 123.813 179.468 123.56C179.36 123.451 179.207 123.451 179.009 123.56C178.809 123.683 178.651 123.866 178.558 124.082C178.421 124.409 178.359 124.764 178.378 125.118V127.704C178.378 127.779 178.359 127.853 178.324 127.92C178.3 127.978 178.259 128.028 178.207 128.064L177.721 128.343C177.703 128.358 177.681 128.366 177.658 128.366C177.635 128.366 177.612 128.358 177.595 128.343C177.561 128.3 177.545 128.245 177.549 128.19V123.623C177.551 123.548 177.567 123.475 177.595 123.406C177.622 123.347 177.666 123.297 177.721 123.262L178.207 122.983C178.215 122.975 178.224 122.969 178.234 122.965C178.244 122.96 178.255 122.958 178.266 122.958C178.277 122.958 178.287 122.96 178.298 122.965C178.308 122.969 178.317 122.975 178.324 122.983C178.344 123.003 178.359 123.027 178.369 123.053C178.378 123.08 178.381 123.108 178.378 123.136L178.333 123.361Z" fill="#455A64"/>
<path d="M183.352 121.226C183.375 121.055 183.414 120.886 183.47 120.722C183.534 120.514 183.621 120.315 183.731 120.127C183.846 119.92 183.985 119.726 184.145 119.551C184.309 119.369 184.501 119.214 184.713 119.091C184.902 118.982 185.116 118.92 185.334 118.911C185.495 118.895 185.656 118.94 185.785 119.037C185.925 119.165 186.025 119.331 186.073 119.515C186.144 119.785 186.178 120.064 186.172 120.343V123.217C186.185 123.289 186.185 123.362 186.172 123.433C186.145 123.495 186.101 123.548 186.046 123.587L185.56 123.866C185.543 123.88 185.523 123.888 185.501 123.888C185.48 123.888 185.459 123.88 185.443 123.866C185.405 123.824 185.386 123.769 185.388 123.713V123.388C185.294 123.639 185.167 123.875 185.01 124.091C184.839 124.323 184.621 124.517 184.37 124.659C184.221 124.754 184.051 124.813 183.875 124.83C183.745 124.843 183.616 124.804 183.515 124.722C183.408 124.628 183.33 124.506 183.289 124.37C183.232 124.187 183.205 123.995 183.208 123.803C183.204 123.371 183.313 122.946 183.524 122.569C183.737 122.185 184.018 121.844 184.352 121.56L185.388 120.659C185.388 120.388 185.334 120.235 185.217 120.19C185.146 120.169 185.071 120.164 184.997 120.177C184.924 120.189 184.854 120.219 184.794 120.262C184.697 120.318 184.612 120.391 184.542 120.479C184.482 120.568 184.428 120.661 184.379 120.758C184.347 120.817 184.311 120.874 184.271 120.929C184.24 120.964 184.204 120.995 184.163 121.019L183.569 121.361C183.553 121.372 183.534 121.377 183.515 121.377C183.495 121.377 183.477 121.372 183.461 121.361C183.432 121.35 183.407 121.332 183.388 121.308C183.369 121.285 183.357 121.256 183.352 121.226ZM184.434 123.415C184.578 123.331 184.709 123.225 184.821 123.1C184.93 122.974 185.024 122.835 185.1 122.686C185.177 122.544 185.235 122.392 185.271 122.235C185.306 122.091 185.325 121.943 185.325 121.794V121.704L184.425 122.433C184.279 122.55 184.154 122.69 184.055 122.848C183.978 122.976 183.937 123.122 183.938 123.271C183.938 123.415 183.983 123.487 184.073 123.497C184.136 123.508 184.2 123.506 184.261 123.492C184.323 123.478 184.382 123.452 184.434 123.415Z" fill="#455A64"/>
<path d="M188.423 123.118C188.525 123.055 188.619 122.979 188.703 122.893C188.797 122.778 188.876 122.65 188.937 122.514C189.109 122.209 189.199 121.865 189.198 121.514V121.154C189.162 121.238 189.117 121.328 189.063 121.424C189.005 121.531 188.938 121.633 188.865 121.731C188.784 121.83 188.694 121.938 188.595 122.037C188.484 122.136 188.363 122.224 188.234 122.298C188.064 122.41 187.861 122.461 187.658 122.442C187.488 122.407 187.335 122.315 187.225 122.181C187.09 122.014 186.992 121.821 186.937 121.614C186.863 121.353 186.823 121.083 186.82 120.812C186.82 120.722 186.82 120.604 186.82 120.478C186.82 120.352 186.82 120.226 186.82 120.127C186.831 119.824 186.87 119.522 186.937 119.226C187.002 118.917 187.099 118.615 187.225 118.325C187.338 118.054 187.483 117.797 187.658 117.559C187.815 117.35 188.011 117.173 188.234 117.037C188.344 116.967 188.466 116.918 188.595 116.893C188.684 116.876 188.776 116.876 188.865 116.893C188.935 116.907 189.003 116.935 189.063 116.974L189.198 117.082V116.857C189.199 116.781 189.217 116.707 189.252 116.641C189.279 116.584 189.319 116.534 189.369 116.496L189.838 116.208C189.845 116.2 189.854 116.194 189.865 116.19C189.875 116.185 189.885 116.183 189.896 116.183C189.907 116.183 189.918 116.185 189.928 116.19C189.938 116.194 189.947 116.2 189.955 116.208C189.974 116.228 189.989 116.252 189.998 116.279C190.008 116.305 190.011 116.333 190.009 116.361V120.956C190.028 121.659 189.88 122.357 189.577 122.992C189.32 123.532 188.905 123.981 188.387 124.28C188.208 124.395 188.004 124.469 187.793 124.496C187.63 124.516 187.465 124.491 187.315 124.424C187.174 124.357 187.057 124.246 186.982 124.109C186.9 123.957 186.857 123.786 186.856 123.613C186.849 123.539 186.865 123.463 186.901 123.397C186.928 123.338 186.972 123.288 187.027 123.253L187.459 123.001C187.481 122.984 187.508 122.975 187.536 122.975C187.564 122.975 187.591 122.984 187.613 123.001L187.721 123.118C187.746 123.155 187.78 123.187 187.819 123.21C187.857 123.233 187.901 123.248 187.946 123.253C188.116 123.264 188.285 123.217 188.423 123.118ZM187.667 119.758C187.649 119.94 187.649 120.124 187.667 120.307C187.667 120.713 187.775 120.974 187.919 121.073C187.997 121.128 188.089 121.158 188.185 121.158C188.28 121.158 188.373 121.128 188.45 121.073C188.677 120.932 188.858 120.729 188.973 120.487C189.124 120.191 189.208 119.865 189.216 119.532C189.216 119.433 189.216 119.307 189.216 119.154C189.216 119.001 189.216 118.884 189.216 118.785C189.222 118.664 189.203 118.544 189.161 118.431C189.119 118.318 189.055 118.215 188.973 118.127C188.898 118.07 188.806 118.039 188.712 118.039C188.617 118.039 188.526 118.07 188.45 118.127C188.219 118.265 188.034 118.469 187.919 118.713C187.763 119.04 187.677 119.396 187.667 119.758Z" fill="#455A64"/>
<path d="M190.739 118.244C190.74 117.875 190.776 117.507 190.848 117.145C190.913 116.795 191.019 116.453 191.163 116.127C191.288 115.835 191.448 115.56 191.64 115.307C191.818 115.075 192.038 114.88 192.289 114.731C192.478 114.599 192.708 114.539 192.938 114.56C193.127 114.576 193.302 114.667 193.424 114.812C193.577 114.988 193.685 115.198 193.739 115.425C193.824 115.717 193.864 116.021 193.857 116.325V116.767C193.856 116.842 193.837 116.916 193.803 116.983C193.778 117.044 193.738 117.097 193.685 117.136L191.559 118.361C191.555 118.484 191.573 118.606 191.613 118.722C191.65 118.803 191.71 118.872 191.785 118.92C191.86 118.948 191.943 118.948 192.019 118.92C192.115 118.906 192.207 118.872 192.289 118.821C192.412 118.754 192.524 118.669 192.622 118.569C192.7 118.482 192.769 118.389 192.83 118.289C192.861 118.225 192.901 118.164 192.947 118.109C192.982 118.072 193.021 118.039 193.064 118.01L193.577 117.722C193.594 117.708 193.614 117.7 193.636 117.7C193.657 117.7 193.678 117.708 193.694 117.722C193.714 117.744 193.729 117.769 193.738 117.797C193.747 117.825 193.751 117.855 193.748 117.884C193.731 118.025 193.698 118.165 193.649 118.298C193.575 118.499 193.482 118.692 193.37 118.875C193.24 119.095 193.086 119.301 192.911 119.488C192.733 119.692 192.523 119.865 192.289 120.001C192.096 120.126 191.87 120.189 191.64 120.181C191.546 120.173 191.454 120.146 191.37 120.101C191.286 120.056 191.213 119.995 191.154 119.92C190.996 119.73 190.888 119.504 190.839 119.262C190.763 118.929 190.73 118.587 190.739 118.244ZM192.298 115.875C192.177 115.945 192.07 116.037 191.983 116.145C191.894 116.245 191.821 116.357 191.767 116.479C191.707 116.6 191.659 116.727 191.622 116.857C191.598 116.97 191.58 117.084 191.568 117.199L193.001 116.37C192.995 116.276 192.98 116.183 192.956 116.091C192.939 116.004 192.899 115.923 192.839 115.857C192.783 115.802 192.709 115.77 192.631 115.767C192.518 115.771 192.408 115.808 192.316 115.875H192.298Z" fill="#455A64"/>
<path d="M194.62 119.145C194.613 119.153 194.604 119.159 194.594 119.163C194.584 119.168 194.573 119.17 194.562 119.17C194.551 119.17 194.54 119.168 194.53 119.163C194.52 119.159 194.511 119.153 194.503 119.145C194.484 119.125 194.468 119.101 194.459 119.074C194.45 119.048 194.446 119.02 194.449 118.992V118.343C194.45 118.268 194.469 118.194 194.503 118.127C194.527 118.068 194.568 118.018 194.62 117.983L198.341 115.83C198.395 115.83 198.431 115.83 198.467 115.83C198.505 115.872 198.524 115.927 198.521 115.983V116.631C198.521 116.707 198.502 116.781 198.467 116.848C198.443 116.911 198.399 116.965 198.341 117.001L194.62 119.145Z" fill="#455A64"/>
<path d="M201.189 110.929C201.302 110.736 201.385 110.526 201.432 110.307C201.465 110.15 201.483 109.99 201.486 109.83C201.504 109.619 201.446 109.408 201.324 109.235C201.216 109.118 201.045 109.127 200.792 109.235C200.571 109.366 200.395 109.56 200.288 109.794C200.174 110.052 200.095 110.325 200.054 110.604C200.043 110.687 200.015 110.767 199.972 110.839C199.948 110.892 199.911 110.938 199.864 110.974L199.36 111.262C199.342 111.275 199.319 111.282 199.297 111.282C199.274 111.282 199.252 111.275 199.234 111.262C199.213 111.241 199.198 111.215 199.19 111.187C199.182 111.158 199.182 111.129 199.189 111.1C199.203 110.795 199.251 110.493 199.333 110.199C199.412 109.886 199.527 109.584 199.675 109.298C199.812 109.028 199.978 108.774 200.171 108.541C200.344 108.331 200.555 108.154 200.792 108.019C200.996 107.878 201.239 107.809 201.486 107.821C201.669 107.836 201.839 107.919 201.963 108.055C202.098 108.212 202.196 108.396 202.252 108.595C202.315 108.83 202.345 109.073 202.342 109.316C202.342 109.478 202.342 109.64 202.342 109.794C202.323 109.958 202.293 110.12 202.252 110.28C202.199 110.478 202.129 110.67 202.045 110.857C201.944 111.105 201.827 111.346 201.693 111.577L200.513 113.92L202.315 112.893C202.331 112.879 202.352 112.871 202.373 112.871C202.395 112.871 202.416 112.879 202.432 112.893C202.451 112.915 202.466 112.94 202.476 112.968C202.485 112.996 202.488 113.026 202.486 113.055V113.749C202.485 113.824 202.467 113.898 202.432 113.965C202.408 114.023 202.367 114.073 202.315 114.109L199.342 115.83C199.323 115.843 199.301 115.85 199.279 115.85C199.256 115.85 199.234 115.843 199.216 115.83C199.184 115.782 199.168 115.725 199.171 115.667V115.073C199.17 114.962 199.191 114.851 199.234 114.749C199.261 114.667 199.297 114.588 199.342 114.514L201.189 110.929Z" fill="#455A64"/>
<path d="M138.532 176.694L170.361 158.316V185.884L138.532 204.253V176.694Z" stroke="#2B50A5" stroke-linecap="round" stroke-linejoin="round"/>
<path d="M138.532 198.748L149.145 177.92L160.631 185.271" stroke="#2B50A5" stroke-linecap="round" stroke-linejoin="round"/>
<path d="M157.197 183.073L162.81 174.478L170.359 179.145" stroke="#2B50A5" stroke-linecap="round" stroke-linejoin="round"/>
<path d="M157.045 170.604C158.288 169.884 159.306 170.469 159.306 171.911C159.262 172.695 159.035 173.459 158.642 174.139C158.249 174.82 157.702 175.399 157.045 175.83C155.792 176.55 154.774 175.965 154.774 174.523C154.818 173.737 155.046 172.973 155.44 172.292C155.835 171.611 156.385 171.033 157.045 170.604Z" stroke="#2B50A5" stroke-linecap="round" stroke-linejoin="round"/>
<path d="M230.848 136.028L229.703 134.92L230.974 132.217C231.016 132.147 231.044 132.068 231.054 131.987C231.064 131.906 231.057 131.823 231.033 131.744C231.01 131.666 230.97 131.593 230.916 131.531C230.862 131.469 230.796 131.419 230.722 131.384C230.648 131.349 230.567 131.33 230.485 131.328C230.403 131.327 230.321 131.342 230.246 131.374C230.17 131.406 230.102 131.453 230.046 131.513C229.99 131.573 229.947 131.644 229.92 131.722L228.812 134.064L227.911 133.226C227.855 133.173 227.79 133.131 227.718 133.103C227.646 133.075 227.569 133.062 227.493 133.063C227.416 133.065 227.34 133.082 227.269 133.113C227.199 133.144 227.135 133.188 227.082 133.244C227.029 133.3 226.987 133.365 226.959 133.437C226.931 133.509 226.918 133.585 226.919 133.662C226.921 133.739 226.938 133.815 226.969 133.886C227 133.956 227.044 134.02 227.1 134.073L228.253 135.181L226.974 137.884C226.909 138.025 226.901 138.186 226.953 138.333C227.006 138.479 227.113 138.599 227.253 138.667C227.332 138.703 227.418 138.722 227.505 138.722C227.615 138.72 227.722 138.689 227.814 138.63C227.907 138.571 227.981 138.487 228.028 138.388L229.136 136.046L230.037 136.875C230.146 136.978 230.291 137.036 230.442 137.037C230.522 137.04 230.601 137.025 230.674 136.994C230.747 136.963 230.813 136.916 230.866 136.857C230.92 136.802 230.963 136.736 230.992 136.665C231.02 136.593 231.034 136.516 231.032 136.438C231.031 136.361 231.013 136.285 230.982 136.214C230.95 136.144 230.904 136.08 230.848 136.028Z" fill="#455A64"/>
<path d="M175.801 176.019C175.801 177.289 176.747 177.766 177.918 177.091L225.405 149.676C226.012 149.299 226.52 148.783 226.888 148.171C227.257 147.558 227.474 146.867 227.522 146.154C227.522 144.884 226.576 144.406 225.405 145.082L177.918 172.496C177.311 172.873 176.803 173.389 176.435 174.002C176.067 174.614 175.849 175.306 175.801 176.019Z" fill="#E0E0E0"/>
<path d="M175.801 176.019C175.801 177.289 176.747 177.767 177.918 177.091L192.765 168.523C193.372 168.146 193.881 167.63 194.249 167.018C194.617 166.405 194.834 165.714 194.882 165.001C194.882 163.731 193.981 163.253 192.765 163.929L177.918 172.496C177.311 172.873 176.803 173.39 176.435 174.002C176.067 174.615 175.849 175.306 175.801 176.019Z" fill="#2B50A5"/>
<path d="M176.486 161.127C176.494 161.119 176.503 161.113 176.513 161.108C176.523 161.104 176.534 161.102 176.545 161.102C176.556 161.102 176.567 161.104 176.577 161.108C176.587 161.113 176.596 161.119 176.604 161.127C176.623 161.147 176.638 161.171 176.648 161.197C176.657 161.224 176.66 161.252 176.658 161.28V162.046C176.657 162.121 176.638 162.195 176.604 162.262C176.579 162.32 176.539 162.37 176.486 162.406L175.937 162.721C175.929 162.729 175.92 162.736 175.91 162.74C175.9 162.744 175.889 162.746 175.878 162.746C175.867 162.746 175.857 162.744 175.846 162.74C175.836 162.736 175.827 162.729 175.82 162.721C175.8 162.701 175.785 162.677 175.775 162.651C175.766 162.624 175.763 162.596 175.766 162.568V161.802C175.766 161.727 175.785 161.653 175.82 161.586C175.844 161.528 175.885 161.478 175.937 161.442L176.486 161.127ZM176.622 167.739C176.619 167.811 176.604 167.881 176.576 167.947C176.552 168.01 176.508 168.064 176.45 168.1L175.973 168.379C175.919 168.379 175.883 168.379 175.847 168.379C175.816 168.334 175.8 168.28 175.802 168.226V163.658C175.804 163.584 175.819 163.511 175.847 163.442C175.871 163.379 175.915 163.325 175.973 163.289L176.45 163.01C176.469 162.996 176.491 162.989 176.513 162.989C176.536 162.989 176.558 162.996 176.576 163.01C176.608 163.058 176.624 163.114 176.622 163.172V167.739Z" fill="#455A64"/>
<path d="M178.333 162.415C178.423 162.181 178.547 161.963 178.702 161.766C178.822 161.598 178.975 161.457 179.153 161.352C179.344 161.218 179.58 161.163 179.81 161.199C179.986 161.265 180.128 161.398 180.207 161.568C180.263 161.407 180.332 161.25 180.414 161.1C180.489 160.956 180.573 160.818 180.666 160.685C180.755 160.571 180.852 160.463 180.955 160.361C181.039 160.278 181.132 160.205 181.234 160.145C181.412 160.018 181.629 159.961 181.846 159.983C181.926 159.998 182.002 160.03 182.069 160.076C182.136 160.123 182.192 160.183 182.234 160.253C182.346 160.44 182.416 160.649 182.441 160.865C182.486 161.142 182.508 161.423 182.504 161.703V164.343C182.503 164.418 182.485 164.492 182.45 164.559C182.429 164.619 182.387 164.67 182.333 164.703L181.846 164.983C181.839 164.99 181.83 164.997 181.82 165.001C181.81 165.005 181.799 165.008 181.788 165.008C181.777 165.008 181.766 165.005 181.756 165.001C181.746 164.997 181.737 164.99 181.729 164.983C181.709 164.963 181.694 164.939 181.685 164.912C181.676 164.886 181.672 164.857 181.675 164.829V162.244C181.712 161.954 181.655 161.661 181.513 161.406C181.396 161.289 181.243 161.298 181.045 161.406C180.852 161.53 180.701 161.709 180.612 161.92C180.475 162.235 180.407 162.576 180.414 162.92V165.559C180.426 165.628 180.426 165.698 180.414 165.766C180.387 165.828 180.343 165.881 180.288 165.92L179.801 166.199C179.794 166.207 179.785 166.213 179.775 166.217C179.765 166.222 179.754 166.224 179.743 166.224C179.732 166.224 179.721 166.222 179.711 166.217C179.701 166.213 179.692 166.207 179.684 166.199C179.667 166.178 179.654 166.153 179.646 166.127C179.639 166.1 179.636 166.073 179.639 166.046V163.451C179.675 163.163 179.615 162.872 179.468 162.622C179.36 162.508 179.207 162.508 179.009 162.622C178.808 162.75 178.651 162.935 178.558 163.154C178.42 163.478 178.359 163.829 178.378 164.181V166.766C178.377 166.842 178.359 166.916 178.324 166.983C178.299 167.043 178.259 167.096 178.207 167.136L177.72 167.415C177.702 167.428 177.68 167.435 177.657 167.435C177.635 167.435 177.613 167.428 177.594 167.415C177.562 167.367 177.546 167.31 177.549 167.253V162.694C177.551 162.62 177.566 162.547 177.594 162.478C177.621 162.416 177.665 162.364 177.72 162.325L178.207 162.046C178.223 162.032 178.244 162.024 178.265 162.024C178.287 162.024 178.308 162.032 178.324 162.046C178.343 162.068 178.358 162.093 178.368 162.121C178.377 162.149 178.38 162.179 178.378 162.208L178.333 162.415Z" fill="#455A64"/>
<path d="M183.351 160.28C183.372 160.105 183.411 159.933 183.468 159.766C183.535 159.56 183.623 159.361 183.729 159.172C183.847 158.966 183.986 158.773 184.143 158.595C184.308 158.413 184.499 158.258 184.711 158.136C184.889 158.026 185.089 157.956 185.297 157.929C185.458 157.917 185.619 157.965 185.747 158.064C185.887 158.188 185.987 158.351 186.035 158.532C186.106 158.803 186.139 159.081 186.134 159.361V162.244C186.147 162.315 186.147 162.389 186.134 162.46C186.107 162.519 186.063 162.569 186.008 162.604L185.522 162.884C185.514 162.891 185.505 162.898 185.495 162.902C185.485 162.906 185.474 162.909 185.463 162.909C185.452 162.909 185.441 162.906 185.431 162.902C185.421 162.898 185.412 162.891 185.405 162.884C185.385 162.864 185.37 162.84 185.36 162.813C185.351 162.787 185.348 162.758 185.351 162.73V162.406C185.26 162.658 185.132 162.895 184.972 163.109C184.8 163.342 184.582 163.538 184.333 163.685C184.181 163.777 184.013 163.835 183.837 163.856C183.707 163.869 183.578 163.83 183.477 163.748C183.369 163.652 183.291 163.527 183.252 163.388C183.193 163.205 183.166 163.013 183.17 162.82C183.167 162.389 183.275 161.963 183.486 161.586C183.698 161.204 183.979 160.865 184.315 160.586L185.351 159.685C185.351 159.415 185.297 159.262 185.179 159.217C185.107 159.198 185.032 159.195 184.958 159.209C184.885 159.223 184.816 159.253 184.756 159.298C184.659 159.35 184.573 159.42 184.504 159.505C184.444 159.598 184.39 159.694 184.342 159.793L184.234 159.965L184.125 160.055L183.531 160.397C183.514 160.406 183.496 160.41 183.477 160.41C183.458 160.41 183.439 160.406 183.423 160.397C183.423 160.397 183.342 160.352 183.351 160.28ZM184.432 162.424C184.576 162.34 184.707 162.233 184.819 162.109C184.93 161.984 185.024 161.844 185.098 161.694C185.176 161.553 185.234 161.401 185.27 161.244C185.304 161.102 185.322 160.957 185.324 160.811V160.712L184.423 161.451C184.275 161.565 184.15 161.706 184.053 161.865C183.975 161.993 183.935 162.14 183.936 162.289C183.936 162.424 183.981 162.496 184.071 162.514C184.198 162.526 184.325 162.494 184.432 162.424Z" fill="#455A64"/>
<path d="M188.424 162.154C188.524 162.091 188.618 162.019 188.704 161.938C188.802 161.831 188.886 161.713 188.956 161.586C189.037 161.441 189.1 161.287 189.145 161.127C189.193 160.954 189.217 160.775 189.217 160.596V160.235L189.082 160.496C189.026 160.604 188.959 160.707 188.884 160.803C188.801 160.911 188.711 161.013 188.614 161.109C188.505 161.211 188.384 161.298 188.253 161.37C188.085 161.486 187.88 161.538 187.677 161.514C187.508 161.483 187.355 161.394 187.244 161.262C187.108 161.093 187.009 160.896 186.956 160.686C186.882 160.428 186.842 160.161 186.839 159.893C186.839 159.794 186.839 159.686 186.839 159.55C186.839 159.415 186.839 159.307 186.839 159.208C186.85 158.905 186.889 158.603 186.956 158.307C187.022 157.998 187.119 157.696 187.244 157.406C187.359 157.136 187.504 156.879 187.677 156.641C187.837 156.434 188.032 156.257 188.253 156.118C188.365 156.052 188.487 156.003 188.614 155.974C188.703 155.956 188.795 155.956 188.884 155.974C188.955 155.981 189.023 156.006 189.082 156.046C189.131 156.08 189.176 156.12 189.217 156.163V155.938C189.218 155.863 189.236 155.788 189.271 155.722C189.296 155.661 189.336 155.608 189.388 155.568L189.875 155.289C189.891 155.275 189.912 155.268 189.933 155.268C189.955 155.268 189.976 155.275 189.992 155.289C190.012 155.311 190.026 155.337 190.036 155.365C190.045 155.393 190.049 155.422 190.046 155.451V160.046C190.063 160.749 189.915 161.446 189.614 162.082C189.354 162.62 188.94 163.069 188.424 163.37C188.245 163.485 188.042 163.559 187.83 163.586C187.666 163.609 187.499 163.581 187.352 163.505C187.212 163.441 187.095 163.334 187.019 163.199C186.938 163.046 186.895 162.876 186.893 162.704C186.886 162.629 186.902 162.553 186.938 162.487C186.965 162.426 187.009 162.373 187.064 162.334L187.497 162.082C187.519 162.066 187.546 162.058 187.573 162.058C187.6 162.058 187.627 162.066 187.65 162.082L187.758 162.19C187.783 162.229 187.816 162.262 187.855 162.286C187.894 162.311 187.937 162.328 187.983 162.334C188.146 162.323 188.3 162.26 188.424 162.154ZM187.668 158.794C187.65 158.976 187.65 159.161 187.668 159.343C187.668 159.758 187.776 160.01 187.92 160.118C187.999 160.171 188.091 160.199 188.186 160.199C188.28 160.199 188.373 160.171 188.451 160.118C188.676 159.974 188.857 159.772 188.974 159.532C189.123 159.235 189.206 158.91 189.217 158.577C189.217 158.469 189.217 158.343 189.217 158.19C189.217 158.037 189.217 157.92 189.217 157.83C189.224 157.708 189.206 157.586 189.164 157.471C189.122 157.357 189.058 157.252 188.974 157.163C188.898 157.107 188.807 157.077 188.713 157.077C188.619 157.077 188.527 157.107 188.451 157.163C188.222 157.304 188.038 157.507 187.92 157.749C187.764 158.079 187.678 158.438 187.668 158.803V158.794Z" fill="#455A64"/>
<path d="M190.74 157.298C190.74 156.929 190.776 156.561 190.848 156.199C190.913 155.846 191.019 155.501 191.163 155.172C191.291 154.871 191.454 154.587 191.65 154.325C191.829 154.095 192.049 153.9 192.298 153.749C192.49 153.621 192.718 153.561 192.947 153.577C193.135 153.598 193.309 153.688 193.433 153.83C193.586 154.006 193.694 154.216 193.749 154.442C193.833 154.735 193.873 155.039 193.866 155.343V155.785C193.865 155.86 193.847 155.934 193.812 156.001C193.788 156.059 193.747 156.109 193.695 156.145L191.569 157.37C191.565 157.496 191.583 157.621 191.623 157.74C191.657 157.82 191.717 157.886 191.794 157.929C191.869 157.957 191.953 157.957 192.028 157.929C192.123 157.91 192.214 157.877 192.298 157.83C192.422 157.76 192.534 157.671 192.632 157.568C192.711 157.484 192.781 157.39 192.839 157.289C192.87 157.227 192.91 157.17 192.956 157.118C192.989 157.078 193.028 157.044 193.073 157.019L193.587 156.722C193.594 156.714 193.603 156.707 193.613 156.703C193.623 156.699 193.634 156.697 193.645 156.697C193.656 156.697 193.667 156.699 193.677 156.703C193.687 156.707 193.696 156.714 193.704 156.722C193.724 156.741 193.739 156.765 193.748 156.792C193.757 156.818 193.761 156.847 193.758 156.875C193.741 157.016 193.708 157.155 193.659 157.289C193.586 157.491 193.493 157.684 193.379 157.866C193.249 158.089 193.095 158.297 192.92 158.487C192.742 158.689 192.532 158.859 192.298 158.992C192.106 159.117 191.879 159.18 191.65 159.172C191.556 159.166 191.464 159.14 191.38 159.097C191.296 159.053 191.223 158.993 191.163 158.92C191.007 158.729 190.899 158.503 190.848 158.262C190.774 157.946 190.738 157.623 190.74 157.298ZM192.298 154.929C192.176 154.993 192.069 155.082 191.983 155.19C191.894 155.293 191.822 155.408 191.767 155.532C191.707 155.651 191.659 155.774 191.623 155.902C191.598 156.015 191.58 156.129 191.569 156.244L193.001 155.415C192.994 155.321 192.979 155.228 192.956 155.136C192.939 155.051 192.899 154.973 192.839 154.911C192.813 154.881 192.781 154.857 192.746 154.84C192.71 154.823 192.671 154.813 192.632 154.812C192.517 154.829 192.408 154.875 192.316 154.947L192.298 154.929Z" fill="#455A64"/>
<path d="M194.62 158.199C194.604 158.213 194.583 158.22 194.562 158.22C194.54 158.22 194.519 158.213 194.503 158.199C194.484 158.177 194.469 158.151 194.459 158.123C194.45 158.095 194.447 158.066 194.449 158.037V157.388C194.45 157.316 194.468 157.244 194.503 157.181C194.527 157.12 194.568 157.067 194.62 157.028L198.341 154.884C198.395 154.884 198.431 154.884 198.467 154.884C198.487 154.903 198.502 154.928 198.511 154.954C198.521 154.981 198.524 155.009 198.521 155.037V155.685C198.52 155.761 198.502 155.835 198.467 155.902C198.443 155.963 198.398 156.013 198.341 156.046L194.62 158.199Z" fill="#455A64"/>
<path d="M202.225 146.361C202.279 146.361 202.315 146.361 202.351 146.361C202.369 146.382 202.382 146.407 202.39 146.433C202.398 146.459 202.4 146.487 202.397 146.514V147.208C202.398 147.288 202.383 147.368 202.351 147.442C202.351 147.523 202.288 147.595 202.261 147.658L201.36 149.703C201.523 149.637 201.698 149.606 201.874 149.613C202.022 149.63 202.161 149.693 202.27 149.794C202.396 149.914 202.486 150.067 202.532 150.235C202.594 150.47 202.624 150.712 202.622 150.956C202.623 151.285 202.577 151.612 202.487 151.929C202.403 152.242 202.282 152.545 202.126 152.83C201.977 153.099 201.792 153.348 201.577 153.568C201.376 153.781 201.145 153.963 200.892 154.109C200.658 154.26 200.393 154.358 200.117 154.397C199.931 154.421 199.742 154.387 199.577 154.298C199.425 154.21 199.308 154.073 199.243 153.911C199.162 153.735 199.116 153.545 199.108 153.352C199.1 153.277 199.115 153.201 199.153 153.136C199.181 153.074 199.224 153.021 199.279 152.983L199.784 152.694C199.797 152.682 199.815 152.675 199.833 152.675C199.852 152.675 199.87 152.682 199.883 152.694C199.921 152.73 199.951 152.773 199.973 152.821C199.995 152.881 200.029 152.936 200.072 152.983C200.12 153.028 200.179 153.059 200.243 153.073C200.329 153.094 200.419 153.094 200.505 153.073C200.641 153.031 200.772 152.97 200.892 152.893C201.147 152.749 201.364 152.545 201.523 152.298C201.674 152.051 201.755 151.768 201.757 151.478C201.757 151.181 201.676 151.019 201.523 150.983C201.298 150.959 201.073 151.02 200.892 151.154L200.37 151.46C200.351 151.473 200.329 151.48 200.306 151.48C200.284 151.48 200.262 151.473 200.243 151.46C200.211 151.412 200.196 151.355 200.198 151.298V150.604C200.197 150.527 200.212 150.45 200.243 150.379C200.243 150.298 200.306 150.226 200.333 150.163L201.234 148.208L199.433 149.217C199.425 149.225 199.416 149.231 199.406 149.235C199.396 149.24 199.385 149.242 199.374 149.242C199.363 149.242 199.352 149.24 199.342 149.235C199.332 149.231 199.323 149.225 199.315 149.217C199.296 149.197 199.281 149.173 199.271 149.146C199.262 149.12 199.258 149.092 199.261 149.064V148.37C199.262 148.295 199.281 148.221 199.315 148.154C199.339 148.093 199.38 148.04 199.433 148.001L202.225 146.361Z" fill="#455A64"/>
<path d="M138.532 214.767L170.361 196.388V223.947L138.532 242.325V214.767Z" stroke="#2B50A5" stroke-linecap="round" stroke-linejoin="round"/>
<path d="M138.532 236.811L149.145 215.983L160.631 223.334" stroke="#2B50A5" stroke-linecap="round" stroke-linejoin="round"/>
<path d="M157.197 221.136L162.81 212.55L170.359 217.217" stroke="#2B50A5" stroke-linecap="round" stroke-linejoin="round"/>
<path d="M157.045 208.667C158.288 207.947 159.306 208.532 159.306 209.983C159.262 210.767 159.035 211.531 158.642 212.211C158.249 212.892 157.702 213.471 157.045 213.902C155.792 214.622 154.774 214.037 154.774 212.595C154.818 211.808 155.046 211.042 155.44 210.36C155.835 209.678 156.384 209.098 157.045 208.667Z" stroke="#2B50A5" stroke-linecap="round" stroke-linejoin="round"/>
<path d="M230.847 174.127L229.703 173.019L230.973 170.316C231.013 170.246 231.037 170.169 231.045 170.089C231.054 170.01 231.046 169.929 231.021 169.852C230.997 169.776 230.958 169.705 230.905 169.645C230.853 169.584 230.788 169.535 230.716 169.5C230.643 169.466 230.565 169.446 230.485 169.444C230.405 169.441 230.325 169.454 230.25 169.483C230.175 169.512 230.107 169.557 230.05 169.613C229.994 169.67 229.949 169.737 229.919 169.812L228.811 172.154L227.91 171.325C227.799 171.217 227.65 171.157 227.496 171.157C227.341 171.157 227.192 171.217 227.081 171.325C227.027 171.38 226.984 171.444 226.954 171.515C226.925 171.586 226.909 171.663 226.909 171.74C226.909 171.817 226.925 171.893 226.954 171.964C226.984 172.035 227.027 172.1 227.081 172.154L228.234 173.262L226.955 175.965C226.89 176.105 226.883 176.264 226.936 176.41C226.988 176.555 227.095 176.673 227.234 176.74C227.314 176.776 227.4 176.794 227.487 176.794C227.597 176.795 227.705 176.764 227.797 176.705C227.89 176.645 227.964 176.561 228.009 176.46L229.117 174.118L230.018 174.956C230.128 175.059 230.273 175.117 230.424 175.118C230.503 175.119 230.581 175.104 230.654 175.073C230.727 175.042 230.793 174.996 230.847 174.938C230.952 174.829 231.01 174.683 231.01 174.532C231.01 174.381 230.952 174.236 230.847 174.127Z" fill="#455A64"/>
<path d="M175.801 214.091C175.801 215.352 176.747 215.839 177.918 215.163L225.405 187.74C226.011 187.363 226.518 186.849 226.886 186.238C227.255 185.627 227.472 184.937 227.522 184.226C227.522 182.956 226.576 182.469 225.405 183.145L177.918 210.568C177.311 210.945 176.803 211.462 176.435 212.074C176.067 212.687 175.849 213.378 175.801 214.091Z" fill="#E0E0E0"/>
<path d="M175.801 214.091C175.801 215.352 176.747 215.838 177.918 215.163L219.252 191.298C219.858 190.919 220.366 190.403 220.736 189.791C221.105 189.179 221.325 188.488 221.378 187.775C221.378 186.505 220.423 186.028 219.252 186.703L177.918 210.568C177.311 210.945 176.803 211.461 176.435 212.074C176.067 212.686 175.849 213.378 175.801 214.091Z" fill="#2B50A5"/>
<path d="M176.486 199.19C176.502 199.176 176.523 199.168 176.545 199.168C176.566 199.168 176.587 199.176 176.603 199.19C176.623 199.212 176.638 199.238 176.647 199.266C176.656 199.293 176.66 199.323 176.657 199.352V200.118C176.656 200.19 176.638 200.262 176.603 200.325C176.579 200.386 176.538 200.439 176.486 200.478L175.937 200.794C175.929 200.802 175.92 200.808 175.91 200.812C175.9 200.816 175.889 200.819 175.878 200.819C175.867 200.819 175.856 200.816 175.846 200.812C175.836 200.808 175.827 200.802 175.819 200.794C175.8 200.773 175.785 200.749 175.776 200.723C175.767 200.696 175.763 200.668 175.765 200.641V199.875C175.766 199.799 175.785 199.725 175.819 199.659C175.846 199.599 175.886 199.547 175.937 199.505L176.486 199.19ZM176.621 205.803C176.619 205.877 176.604 205.95 176.576 206.019C176.552 206.082 176.507 206.136 176.45 206.172L175.973 206.451C175.954 206.465 175.932 206.472 175.909 206.472C175.887 206.472 175.865 206.465 175.846 206.451C175.813 206.407 175.797 206.353 175.801 206.298V201.731C175.803 201.659 175.819 201.589 175.846 201.523C175.871 201.46 175.915 201.406 175.973 201.37L176.45 201.091C176.504 201.091 176.54 201.091 176.576 201.091C176.609 201.135 176.625 201.189 176.621 201.244V205.803Z" fill="#455A64"/>
<path d="M178.333 200.478C178.427 200.246 178.551 200.028 178.703 199.829C178.825 199.664 178.978 199.523 179.153 199.415C179.247 199.347 179.354 199.3 179.467 199.275C179.58 199.25 179.697 199.249 179.811 199.271C179.986 199.337 180.129 199.47 180.207 199.64C180.263 199.479 180.332 199.322 180.414 199.172C180.489 199.028 180.573 198.89 180.667 198.757C180.751 198.639 180.848 198.531 180.955 198.433C181.039 198.35 181.133 198.277 181.234 198.217C181.413 198.091 181.629 198.031 181.847 198.046C181.927 198.064 182.002 198.099 182.068 198.147C182.135 198.194 182.191 198.255 182.234 198.325C182.346 198.509 182.417 198.715 182.441 198.928C182.486 199.208 182.508 199.492 182.504 199.775V202.406C182.504 202.481 182.485 202.555 182.45 202.622C182.429 202.684 182.388 202.738 182.333 202.775L181.847 203.055C181.83 203.069 181.81 203.076 181.788 203.076C181.767 203.076 181.746 203.069 181.73 203.055C181.71 203.033 181.695 203.007 181.686 202.979C181.677 202.951 181.673 202.922 181.676 202.892V200.307C181.713 200.02 181.656 199.729 181.513 199.478C181.396 199.361 181.243 199.361 181.045 199.478C180.855 199.601 180.705 199.776 180.613 199.983C180.476 200.301 180.409 200.645 180.414 200.992V203.595C180.427 203.667 180.427 203.74 180.414 203.811C180.387 203.87 180.343 203.92 180.288 203.955L179.802 204.235C179.785 204.249 179.765 204.256 179.743 204.256C179.722 204.256 179.701 204.249 179.685 204.235C179.667 204.212 179.653 204.186 179.646 204.158C179.638 204.13 179.636 204.101 179.64 204.073V201.487C179.673 201.197 179.613 200.903 179.468 200.649C179.36 200.541 179.207 200.541 179.009 200.649C178.809 200.773 178.651 200.955 178.558 201.172C178.421 201.499 178.359 201.853 178.378 202.208V204.793C178.378 204.869 178.359 204.943 178.324 205.01C178.3 205.068 178.259 205.118 178.207 205.154L177.721 205.433C177.703 205.448 177.681 205.456 177.658 205.456C177.635 205.456 177.612 205.448 177.595 205.433C177.561 205.389 177.545 205.335 177.549 205.28V200.712C177.551 200.638 177.567 200.565 177.595 200.496C177.622 200.437 177.666 200.387 177.721 200.352L178.207 200.073C178.215 200.065 178.224 200.058 178.234 200.054C178.244 200.05 178.255 200.048 178.266 200.048C178.277 200.048 178.287 200.05 178.298 200.054C178.308 200.058 178.317 200.065 178.324 200.073C178.344 200.093 178.359 200.117 178.369 200.143C178.378 200.17 178.381 200.198 178.378 200.226L178.333 200.478Z" fill="#455A64"/>
<path d="M183.351 198.343C183.373 198.172 183.412 198.003 183.468 197.839C183.608 197.405 183.839 197.006 184.143 196.667C184.308 196.486 184.499 196.331 184.711 196.208C184.887 196.094 185.088 196.023 185.297 196.001C185.457 195.985 185.618 196.03 185.747 196.127C185.887 196.255 185.987 196.421 186.035 196.604C186.107 196.875 186.14 197.154 186.134 197.433V200.316C186.148 200.384 186.148 200.455 186.134 200.523C186.11 200.587 186.066 200.64 186.008 200.676L185.522 200.956C185.514 200.964 185.505 200.97 185.495 200.974C185.485 200.978 185.474 200.981 185.463 200.981C185.452 200.981 185.441 200.978 185.431 200.974C185.421 200.97 185.412 200.964 185.405 200.956C185.385 200.935 185.371 200.911 185.361 200.885C185.352 200.859 185.348 200.83 185.351 200.803V200.478C185.258 200.729 185.131 200.966 184.972 201.181C184.802 201.413 184.584 201.607 184.333 201.749C184.183 201.844 184.013 201.902 183.837 201.92C183.707 201.932 183.578 201.894 183.477 201.812C183.371 201.718 183.293 201.596 183.252 201.46C183.193 201.277 183.166 201.085 183.17 200.893C183.167 200.461 183.275 200.035 183.486 199.658C183.7 199.275 183.98 198.934 184.315 198.649L185.351 197.749C185.351 197.478 185.297 197.325 185.179 197.28C185.107 197.261 185.032 197.258 184.958 197.272C184.885 197.286 184.816 197.317 184.756 197.361C184.657 197.41 184.571 197.481 184.504 197.568C184.442 197.66 184.388 197.756 184.342 197.857L184.234 198.019C184.202 198.054 184.166 198.084 184.125 198.109L183.531 198.451C183.515 198.462 183.496 198.467 183.477 198.467C183.458 198.467 183.439 198.462 183.423 198.451C183.385 198.426 183.36 198.387 183.351 198.343ZM184.414 200.496C184.558 200.412 184.689 200.306 184.801 200.181C184.91 200.054 185.004 199.915 185.08 199.767C185.157 199.625 185.215 199.473 185.252 199.316C185.286 199.175 185.304 199.029 185.306 198.884V198.785L184.405 199.514C184.259 199.631 184.134 199.771 184.035 199.929C183.957 200.059 183.916 200.209 183.918 200.361C183.918 200.493 183.963 200.565 184.053 200.577C184.119 200.591 184.186 200.591 184.251 200.577C184.316 200.563 184.378 200.535 184.432 200.496H184.414Z" fill="#455A64"/>
<path d="M188.424 200.235C188.526 200.172 188.62 200.096 188.704 200.01C188.802 199.907 188.887 199.792 188.956 199.667C189.128 199.362 189.218 199.018 189.217 198.667V198.307C189.181 198.385 189.136 198.475 189.082 198.577C189.024 198.684 188.957 198.786 188.884 198.884C188.803 198.983 188.713 199.091 188.614 199.19C188.503 199.289 188.382 199.377 188.253 199.451C188.083 199.563 187.88 199.614 187.677 199.595C187.505 199.564 187.352 199.471 187.244 199.334C187.109 199.167 187.011 198.974 186.956 198.766C186.882 198.505 186.842 198.236 186.839 197.965C186.839 197.875 186.839 197.757 186.839 197.631C186.839 197.505 186.839 197.388 186.839 197.28C186.849 196.977 186.888 196.675 186.956 196.379C187.021 196.07 187.117 195.768 187.244 195.478C187.357 195.207 187.503 194.949 187.677 194.712C187.834 194.503 188.03 194.326 188.253 194.19C188.363 194.12 188.486 194.071 188.614 194.046C188.703 194.028 188.795 194.028 188.884 194.046C188.955 194.06 189.022 194.087 189.082 194.127L189.217 194.235V194.01C189.219 193.937 189.238 193.867 189.271 193.802C189.296 193.742 189.336 193.689 189.388 193.649L189.875 193.37C189.891 193.356 189.912 193.348 189.933 193.348C189.955 193.348 189.976 193.356 189.992 193.37C190.012 193.392 190.027 193.417 190.037 193.445C190.046 193.473 190.049 193.503 190.046 193.532V198.118C190.065 198.821 189.917 199.519 189.614 200.154C189.357 200.694 188.942 201.143 188.424 201.442C188.245 201.557 188.042 201.631 187.83 201.658C187.667 201.678 187.502 201.653 187.352 201.586C187.211 201.519 187.094 201.408 187.019 201.271C186.937 201.118 186.894 200.948 186.893 200.775C186.887 200.7 186.902 200.625 186.938 200.559C186.965 200.5 187.009 200.45 187.064 200.415L187.497 200.163C187.519 200.146 187.545 200.137 187.573 200.137C187.601 200.137 187.628 200.146 187.65 200.163L187.758 200.28C187.783 200.319 187.816 200.351 187.855 200.376C187.894 200.401 187.937 200.417 187.983 200.424C188.145 200.405 188.299 200.34 188.424 200.235ZM187.668 196.875C187.65 197.057 187.65 197.241 187.668 197.424C187.668 197.829 187.776 198.091 187.92 198.19C187.998 198.245 188.09 198.274 188.186 198.274C188.281 198.274 188.374 198.245 188.451 198.19C188.678 198.049 188.859 197.845 188.974 197.604C189.125 197.308 189.209 196.982 189.217 196.649C189.217 196.55 189.217 196.424 189.217 196.271C189.217 196.118 189.217 196.001 189.217 195.902C189.223 195.781 189.204 195.661 189.162 195.548C189.12 195.435 189.056 195.332 188.974 195.244C188.899 195.187 188.807 195.156 188.713 195.156C188.618 195.156 188.527 195.187 188.451 195.244C188.22 195.382 188.035 195.586 187.92 195.829C187.764 196.156 187.678 196.512 187.668 196.875Z" fill="#455A64"/>
<path d="M190.74 195.361C190.74 194.992 190.776 194.624 190.848 194.262C190.914 193.912 191.019 193.57 191.163 193.244C191.289 192.942 191.452 192.658 191.65 192.397C191.827 192.165 192.047 191.969 192.298 191.821C192.488 191.689 192.718 191.629 192.947 191.65C193.136 191.666 193.311 191.757 193.434 191.902C193.586 192.078 193.695 192.288 193.749 192.514C193.833 192.807 193.873 193.111 193.866 193.415V193.857C193.864 193.929 193.845 194 193.812 194.064C193.788 194.125 193.747 194.178 193.695 194.217L191.569 195.442C191.564 195.565 191.582 195.687 191.623 195.803C191.657 195.886 191.717 195.955 191.794 196.001C191.869 196.029 191.953 196.029 192.028 196.001C192.124 195.987 192.216 195.953 192.298 195.902C192.422 195.835 192.534 195.75 192.632 195.65C192.709 195.563 192.779 195.47 192.839 195.37C192.871 195.306 192.91 195.245 192.956 195.19C192.991 195.153 193.031 195.119 193.073 195.091L193.587 194.803C193.594 194.795 193.603 194.788 193.614 194.784C193.624 194.78 193.634 194.778 193.645 194.778C193.656 194.778 193.667 194.78 193.677 194.784C193.687 194.788 193.696 194.795 193.704 194.803C193.724 194.823 193.739 194.847 193.748 194.873C193.758 194.9 193.761 194.928 193.758 194.956C193.741 195.097 193.708 195.237 193.659 195.37C193.585 195.571 193.491 195.764 193.38 195.947C193.249 196.167 193.095 196.373 192.92 196.559C192.745 196.766 192.535 196.94 192.298 197.073C192.106 197.198 191.879 197.261 191.65 197.253C191.555 197.245 191.463 197.218 191.379 197.173C191.296 197.128 191.222 197.066 191.163 196.992C191.004 196.803 190.895 196.577 190.848 196.334C190.773 196.015 190.737 195.689 190.74 195.361ZM192.298 192.992C192.178 193.062 192.071 193.154 191.983 193.262C191.893 193.363 191.82 193.479 191.767 193.604C191.706 193.722 191.657 193.846 191.623 193.974C191.598 194.087 191.58 194.201 191.569 194.316L193.001 193.487C192.995 193.393 192.98 193.3 192.956 193.208C192.94 193.121 192.899 193.039 192.839 192.974C192.783 192.919 192.71 192.887 192.632 192.884C192.518 192.887 192.408 192.925 192.317 192.992H192.298Z" fill="#455A64"/>
<path d="M194.62 196.262C194.613 196.27 194.604 196.276 194.594 196.28C194.584 196.285 194.573 196.287 194.562 196.287C194.551 196.287 194.54 196.285 194.53 196.28C194.52 196.276 194.511 196.27 194.503 196.262C194.484 196.242 194.468 196.218 194.459 196.191C194.45 196.165 194.446 196.137 194.449 196.109V195.487C194.45 195.412 194.469 195.338 194.503 195.271C194.527 195.213 194.568 195.162 194.62 195.127L198.341 192.974C198.36 192.96 198.382 192.953 198.404 192.953C198.427 192.953 198.449 192.96 198.467 192.974C198.487 192.996 198.502 193.021 198.511 193.049C198.52 193.077 198.524 193.107 198.521 193.136V193.775C198.521 193.851 198.502 193.925 198.467 193.992C198.443 194.055 198.399 194.109 198.341 194.145L194.62 196.262Z" fill="#455A64"/>
<path d="M201.341 191.793C201.334 191.801 201.325 191.808 201.315 191.812C201.305 191.816 201.294 191.818 201.283 191.818C201.272 191.818 201.261 191.816 201.251 191.812C201.241 191.808 201.232 191.801 201.224 191.793C201.204 191.774 201.189 191.749 201.18 191.723C201.171 191.697 201.167 191.668 201.17 191.64V190.442L199.197 191.586C199.181 191.6 199.16 191.608 199.139 191.608C199.117 191.608 199.096 191.6 199.08 191.586C199.043 191.544 199.024 191.489 199.026 191.433V190.73C199.027 190.642 199.042 190.553 199.071 190.469C199.099 190.374 199.132 190.281 199.17 190.19L201.116 185.325C201.159 185.169 201.251 185.03 201.377 184.929L201.855 184.649C201.873 184.635 201.895 184.627 201.918 184.627C201.941 184.627 201.963 184.635 201.981 184.649C201.998 184.671 202.011 184.695 202.019 184.721C202.027 184.748 202.029 184.775 202.026 184.803V188.721L202.576 188.406C202.594 188.393 202.616 188.386 202.639 188.386C202.661 188.386 202.683 188.393 202.702 188.406C202.734 188.454 202.749 188.511 202.747 188.568V189.262C202.745 189.336 202.73 189.409 202.702 189.478C202.674 189.537 202.631 189.587 202.576 189.622L202.026 189.938V191.127C202.029 191.201 202.013 191.276 201.981 191.343C201.954 191.402 201.91 191.452 201.855 191.487L201.341 191.793ZM201.17 189.217V187.127L200.08 189.83L201.17 189.217Z" fill="#455A64"/>
<path d="M45.9945 329.595L55.607 324.046C55.607 324.046 64.3818 305.748 60.9404 287.577C57.1836 267.694 48.6791 262.992 43.0846 265.235C37.49 267.478 35.2467 274.343 42.9494 288.217C49.2377 299.496 49.3008 314.487 45.9945 329.595Z" fill="#37474F"/>
<path d="M50.6335 327.388C50.7248 327.387 50.8137 327.358 50.888 327.305C50.9622 327.252 51.0181 327.177 51.0479 327.09C57.2551 308.081 57.5163 281.388 45.7686 269.352C45.6849 269.272 45.5736 269.227 45.4578 269.227C45.3421 269.227 45.2308 269.272 45.147 269.352C45.065 269.434 45.019 269.546 45.019 269.663C45.019 269.779 45.065 269.891 45.147 269.973C56.2371 281.334 56.4353 307.811 50.2191 326.82C50.1844 326.931 50.1941 327.051 50.2462 327.156C50.2983 327.26 50.3886 327.34 50.4983 327.379L50.6335 327.388Z" fill="white"/>
<path d="M28.6785 339.631C27.6785 340.208 25.6244 338.955 24.8316 338.424C23.4886 337.511 22.4003 336.271 21.6695 334.82C20.8522 333.16 20.575 331.286 20.8767 329.46C21.0346 328.496 21.2604 327.545 21.5524 326.613C21.8136 325.712 22.0839 324.766 22.3452 323.838C22.6705 322.948 22.8085 322 22.7506 321.054C22.5073 319.163 20.8317 317.829 19.3001 316.685C17.6155 315.424 15.8587 313.757 15.8677 311.478C15.992 309.708 16.6984 308.029 17.8767 306.703C18.9668 305.325 20.2551 304.109 21.2371 302.649C22.0125 301.634 22.4192 300.385 22.3902 299.109C22.2865 298.327 22.0227 297.576 21.6154 296.901C20.6925 295.487 19.8821 294.002 19.192 292.46C18.6425 290.865 18.7236 288.856 19.9668 287.748C20.5217 287.332 21.1542 287.03 21.8271 286.862C22.5001 286.693 23.2 286.661 23.8857 286.766C25.1799 286.931 26.424 287.37 27.5343 288.055C31.1379 290.064 33.21 294.361 37.0478 295.892C38.5724 296.369 40.1249 296.751 41.6965 297.037C42.4828 297.181 43.23 297.489 43.8896 297.94C44.5492 298.392 45.1065 298.977 45.5253 299.658C46.9397 302.469 44.3181 305.964 45.3091 308.928C46.21 311.568 48.7595 312.577 50.2009 314.964C50.7882 316.016 51.0249 317.228 50.8766 318.424C50.7502 320.445 50.2556 322.427 49.4172 324.271C48.4784 326.104 47.4065 327.865 46.21 329.541C46.1469 329.532 28.8316 339.505 28.6785 339.631Z" fill="#455A64"/>
<path d="M39.0208 334.01C39.1157 334.008 39.2069 333.973 39.278 333.91C39.3491 333.847 39.3953 333.761 39.4082 333.667C41.2731 318.902 34.2191 298.983 23.6966 289.271C23.6593 289.236 23.6155 289.209 23.5677 289.191C23.5199 289.173 23.4691 289.165 23.4181 289.166C23.367 289.168 23.3168 289.18 23.2703 289.201C23.2238 289.222 23.1819 289.252 23.147 289.289C23.1121 289.326 23.0849 289.37 23.0669 289.418C23.0489 289.466 23.0405 289.517 23.0422 289.568C23.0439 289.619 23.0556 289.669 23.0767 289.715C23.0977 289.762 23.1278 289.804 23.165 289.839C33.5254 299.406 40.4713 319.028 38.6335 333.568C38.6205 333.671 38.6481 333.774 38.7104 333.857C38.7727 333.939 38.8646 333.994 38.9668 334.01H39.0208Z" fill="white"/>
<path d="M37.2181 315.118C37.2796 315.117 37.3402 315.102 37.3949 315.074C37.4496 315.045 37.497 315.005 37.5334 314.955C37.5941 314.873 37.6196 314.77 37.6045 314.668C37.5893 314.567 37.5346 314.476 37.4523 314.415C31.6415 310.054 22.7677 310.811 22.3893 310.811C22.3384 310.816 22.2888 310.83 22.2435 310.854C22.1982 310.878 22.1581 310.91 22.1254 310.95C22.0927 310.989 22.0682 311.035 22.0532 311.083C22.0382 311.132 22.033 311.184 22.038 311.235C22.0425 311.286 22.057 311.335 22.0808 311.38C22.1046 311.426 22.1371 311.466 22.1765 311.499C22.2158 311.531 22.2613 311.556 22.3102 311.571C22.3591 311.586 22.4105 311.591 22.4614 311.586C22.5515 311.586 31.4163 310.82 36.9839 315C37.046 315.065 37.1288 315.107 37.2181 315.118Z" fill="white"/>
<path d="M36.3453 311.496C36.4458 311.494 36.5417 311.453 36.6137 311.383C36.6856 311.313 36.7281 311.218 36.7327 311.117C36.8683 309.035 37.4159 306.999 38.3438 305.13C39.2716 303.26 40.5613 301.593 42.1381 300.226C42.2195 300.162 42.2727 300.068 42.2861 299.966C42.2996 299.863 42.2723 299.759 42.2101 299.676C42.1785 299.635 42.1391 299.601 42.0942 299.576C42.0493 299.551 41.9998 299.535 41.9486 299.529C41.8974 299.523 41.8456 299.528 41.7962 299.542C41.7467 299.556 41.7006 299.581 41.6606 299.613C39.9768 301.037 38.6011 302.789 37.6175 304.762C36.6339 306.736 36.063 308.889 35.9399 311.09C35.9375 311.141 35.9451 311.192 35.9624 311.24C35.9796 311.288 36.0062 311.332 36.0405 311.37C36.0748 311.407 36.1162 311.438 36.1623 311.46C36.2084 311.481 36.2584 311.494 36.3093 311.496H36.3453Z" fill="white"/>
<path d="M279.244 127.848C278.974 132.55 277.974 152.478 278.343 154.46C278.929 157.992 289.613 173.775 289.613 173.775C289.613 173.775 290.28 180.082 281.74 182.856C279.208 178.352 270.433 164.884 268.631 160.938C267.847 158.671 267.6 156.253 267.911 153.875C268.74 144.55 270.947 130.938 271.19 127.938L279.244 127.848Z" fill="#FFA8A7"/>
<path d="M291.371 172.064C290.614 171.379 287.461 169.037 286.371 167.496C282.767 162.433 280.623 158.532 280.623 158.532C277.019 158.208 271.398 162.947 271.551 167.667C273.533 172.262 277.686 178.1 281.182 183.28L291.371 172.064Z" fill="#2B50A5"/>
<path d="M312.551 314.992L306.136 315.172L305.83 302.514L312.235 302.334L312.551 314.992Z" fill="#FFA8A7"/>
<path d="M306.055 312.009V311.108C305.451 311.397 303.749 316.252 301.713 319.261C300.172 321.532 295.731 324.234 295.091 326.306C294.451 328.379 299.028 329.514 300.902 329.126C303.091 328.676 306.451 327.658 308.596 325.243C309.74 323.964 310.397 321.117 311.118 320.045C311.839 318.973 313.614 317.757 314.001 316.523C314.091 315.386 313.934 314.242 313.541 313.171C313.208 312.045 312.848 310.811 312.469 310.928C312.469 311.063 312.469 311.631 312.469 311.631C311.576 312.369 310.457 312.782 309.298 312.802C308.343 312.847 306.055 312.73 306.055 312.009Z" fill="#2B50A5"/>
<path d="M292.787 303.991L286.39 304.397L285.742 291.109L292.462 290.694L292.787 303.991Z" fill="#FFA8A7"/>
<path d="M286.234 302.045C285.534 302.341 284.931 302.828 284.496 303.451C283.223 304.881 281.715 306.081 280.036 307C276.828 308.721 273.487 310.182 270.045 311.37C268.685 311.865 268.243 313.802 270.46 315.334C272.982 317.045 275.982 316.811 279.91 315.811C282.054 315.271 285.703 312.838 287.658 312.442C289.405 312.09 292.793 311.946 294.396 310.451C294.68 309.079 294.661 307.662 294.342 306.298C293.901 304.496 293.306 301.694 292.712 301.793V302.415C291.973 303.604 288.009 304.217 286.288 303.379L286.234 302.045Z" fill="#2B50A5"/>
<path d="M311.37 217.208C311.541 223.325 312.271 265.604 312.271 265.604C312.469 267.361 314.253 270.442 314.568 276.784C315.028 285.973 312.685 307.811 312.685 307.811C311.593 308.385 310.388 308.712 309.156 308.771C307.923 308.831 306.693 308.62 305.55 308.154C305.55 308.154 301.19 277.523 299.785 268.451C298.478 260.064 298.262 260.676 295.956 239.28L293.947 258.136C294.783 261.456 295.15 264.876 295.037 268.298C294.857 272.523 293.109 298.694 293.109 298.694C292.012 299.358 290.782 299.771 289.506 299.905C288.231 300.039 286.942 299.89 285.731 299.469C285.731 299.469 281.451 262.361 281.226 258.505C281.019 254.1 280.325 215.604 280.325 215.604L311.37 217.208Z" fill="#455A64"/>
<path d="M294.497 231.469C294.497 231.469 291.533 230.902 287.624 227.343C287.624 227.343 288.714 230.217 292.975 232.397L294.497 239.298L294.119 255.956L295.921 239.28L294.497 231.469Z" fill="#37474F"/>
<path d="M308.46 175.316C311.748 177.199 312.829 178.361 313.396 179.821C313.901 181.1 314.468 181.154 314.468 183.605L311.027 199.875L311.369 217.235C302.171 222.091 290.18 222.794 280.369 215.632C280.369 215.632 279.532 186.695 280.739 181.542C281.946 176.388 284.811 171.812 289.577 170.731C291.306 170.334 304.297 173.181 304.297 173.181C304.297 173.181 306.18 174.001 308.46 175.316Z" fill="#F0F0F0"/>
<path d="M292.947 159.289C297.813 159.289 301.758 155.344 301.758 150.478C301.758 145.612 297.813 141.667 292.947 141.667C288.081 141.667 284.136 145.612 284.136 150.478C284.136 155.344 288.081 159.289 292.947 159.289Z" fill="#2B50A5"/>
<path d="M308.171 156.749C308.171 156.749 306.747 163.46 306.171 164.56C305.786 165.237 305.158 165.743 304.414 165.974L304.513 161.253L308.171 156.749Z" fill="#2B50A5"/>
<path d="M306.38 147.136C306.874 147.081 307.373 147.138 307.841 147.304C308.309 147.469 308.734 147.738 309.083 148.091C310.254 149.298 309.597 153.055 308.182 156.74L305.479 157.046L306.38 147.136Z" fill="#2B50A5"/>
<path d="M304.676 157.055C305.217 157.37 305.982 156.334 306.649 155.64C307.316 154.947 309.487 153.992 310.568 156.28C311.649 158.568 309.613 161.685 307.865 162.208C304.919 163.109 304.478 161.244 304.478 161.244L304.262 173.163C300.604 177.857 290.442 177.496 294.676 172.595V168.361C293.45 168.47 292.217 168.47 290.991 168.361C288.82 168.028 287.523 166.559 286.82 164.181C285.919 161.154 285.442 155.884 285.919 149.965C286.622 141.857 296.343 141.767 301.442 144.974C306.541 148.181 304.676 157.055 304.676 157.055Z" fill="#FFA8A7"/>
<path d="M304.678 157.956C304.948 157.956 305.984 156.253 306.651 155.64C307.551 154.794 306.38 147.136 306.38 147.136C306.623 146.471 306.667 145.75 306.507 145.061C306.347 144.371 305.99 143.743 305.479 143.253C304.2 141.857 302.777 140.965 299.173 140.776C296.661 140.762 294.15 140.879 291.651 141.127C288.047 141.37 286.687 140.478 284.606 139.893C282.525 139.307 282.344 144.974 286.858 147.1C286.858 147.1 288.164 147.947 291.615 148.361C294.799 148.602 298 148.541 301.173 148.181C302.173 148.046 302.389 149.019 302.93 151.668C303.353 154.046 303.768 157.938 304.678 157.956Z" fill="#2B50A5"/>
<path d="M306.378 147.74L309.631 145.938C309.526 145.72 309.378 145.526 309.196 145.367C309.014 145.208 308.802 145.087 308.573 145.011C308.343 144.936 308.101 144.907 307.86 144.927C307.62 144.947 307.385 145.015 307.171 145.127C306.721 145.37 306.385 145.78 306.236 146.27C306.088 146.759 306.139 147.288 306.378 147.74Z" fill="#2B50A5"/>
<path d="M294.721 168.361C294.721 168.361 299.55 167.379 301.244 166.487C302.236 165.966 303.049 165.16 303.577 164.172C303.319 165.152 302.869 166.07 302.253 166.875C301.018 168.451 294.721 169.577 294.721 169.577V168.361Z" fill="#F28F8F"/>
<path d="M294.956 155.848C294.963 156.039 295.026 156.224 295.138 156.379C295.249 156.535 295.404 156.654 295.583 156.721C295.761 156.789 295.956 156.803 296.143 156.761C296.329 156.719 296.499 156.622 296.631 156.484C296.764 156.346 296.852 156.172 296.886 155.983C296.919 155.795 296.897 155.601 296.821 155.425C296.745 155.25 296.619 155.101 296.459 154.996C296.298 154.892 296.111 154.837 295.92 154.839C295.659 154.848 295.413 154.959 295.232 155.147C295.052 155.336 294.953 155.587 294.956 155.848Z" fill="#2B50A5"/>
<path d="M295.983 152.181L298.055 153.325C298.205 153.041 298.237 152.71 298.146 152.402C298.056 152.094 297.848 151.834 297.569 151.676C297.432 151.602 297.282 151.556 297.128 151.542C296.973 151.527 296.817 151.544 296.669 151.591C296.521 151.638 296.384 151.714 296.266 151.816C296.148 151.917 296.052 152.041 295.983 152.181Z" fill="#2B50A5"/>
<path d="M295.154 162.532L292.947 163.37C292.996 163.518 293.073 163.654 293.175 163.77C293.277 163.887 293.402 163.982 293.541 164.05C293.681 164.118 293.832 164.158 293.987 164.166C294.142 164.175 294.297 164.152 294.443 164.1C294.741 163.981 294.981 163.752 295.114 163.459C295.246 163.167 295.261 162.835 295.154 162.532Z" fill="#F28F8F"/>
<path d="M286.594 152.992L288.485 151.532C288.396 151.405 288.282 151.296 288.149 151.214C288.017 151.132 287.869 151.077 287.715 151.054C287.561 151.03 287.404 151.038 287.253 151.077C287.102 151.116 286.96 151.185 286.837 151.28C286.584 151.479 286.418 151.768 286.372 152.087C286.327 152.406 286.406 152.73 286.594 152.992Z" fill="#2B50A5"/>
<path d="M287.135 155.569C287.142 155.759 287.206 155.944 287.317 156.099C287.428 156.254 287.582 156.373 287.76 156.441C287.939 156.51 288.133 156.524 288.319 156.482C288.506 156.441 288.676 156.345 288.808 156.208C288.941 156.071 289.03 155.897 289.064 155.709C289.099 155.522 289.078 155.328 289.003 155.152C288.929 154.977 288.804 154.827 288.645 154.721C288.486 154.616 288.299 154.56 288.108 154.56C287.978 154.562 287.85 154.59 287.731 154.642C287.611 154.694 287.503 154.769 287.413 154.863C287.323 154.956 287.252 155.067 287.204 155.188C287.156 155.309 287.133 155.438 287.135 155.569Z" fill="#2B50A5"/>
<path d="M292.111 154.649L291.796 160.478L288.75 159.442L292.111 154.649Z" fill="#F28F8F"/>
<path d="M271.91 32.3526V99.5866C271.931 99.971 272.042 100.345 272.234 100.678C272.427 101.012 272.695 101.295 273.018 101.506L339.855 140.118C340.459 140.469 340.964 140.181 340.964 139.478V135.965L275.459 98.1272V33.1183L273.018 31.7129C272.405 31.3616 271.91 31.6409 271.91 32.3526Z" fill="#2B50A5"/>
<path d="M291.641 60.92C291.705 60.8504 291.781 60.7925 291.866 60.7488L296.019 58.3524C296.331 58.1776 296.699 58.1278 297.046 58.2131C297.394 58.2983 297.697 58.5123 297.893 58.8119L312.65 95.1902L322.442 88.7397C322.506 88.6865 322.575 88.6411 322.65 88.6046L326.749 86.2352C327.057 86.0471 327.427 85.9862 327.78 86.0651C328.133 86.1441 328.441 86.3569 328.64 86.6586L342.929 115.623V134.848L338.758 137.253L274.569 99.9919C274.207 99.7829 273.906 99.4822 273.697 99.12C273.488 98.7578 273.379 98.3469 273.379 97.9289V79.7127L291.641 60.92Z" fill="#2B50A5"/>
<path opacity="0.15" d="M291.641 60.92C291.705 60.8504 291.781 60.7925 291.866 60.7488L296.019 58.3524C296.331 58.1776 296.699 58.1278 297.046 58.2131C297.394 58.2983 297.697 58.5123 297.893 58.8119L312.65 95.1902L322.442 88.7397C322.506 88.6865 322.575 88.6411 322.65 88.6046L326.749 86.2352C327.057 86.0471 327.427 85.9862 327.78 86.0651C328.133 86.1441 328.441 86.3569 328.64 86.6586L342.929 115.623V134.848L338.758 137.253L274.569 99.9919C274.207 99.7829 273.906 99.4822 273.697 99.12C273.488 98.7578 273.379 98.3469 273.379 97.9289V79.7127L291.641 60.92Z" fill="#2B50A5"/>
<path d="M338.875 137.163V117.938L324.586 88.9741C324.475 88.8088 324.331 88.6689 324.162 88.5634C323.993 88.4579 323.803 88.3894 323.606 88.3622C323.409 88.3349 323.208 88.3497 323.017 88.4055C322.825 88.4613 322.648 88.5568 322.496 88.6858L308.785 97.6948L293.776 61.1634C293.663 60.99 293.513 60.8437 293.336 60.7351C293.16 60.6264 292.962 60.558 292.756 60.5348C292.551 60.5115 292.342 60.534 292.146 60.6006C291.95 60.6673 291.772 60.7764 291.623 60.9201L273.379 79.7129V97.9561C273.379 98.3741 273.488 98.785 273.697 99.1471C273.906 99.5093 274.207 99.8101 274.569 100.019L338.875 137.163Z" fill="#2B50A5"/>
<path opacity="0.15" d="M308.784 97.7128L313.108 108.226L310.361 96.6677L308.784 97.7128Z" fill="#2B50A5"/>
<path d="M269.208 28.3975V112.496C269.229 112.881 269.34 113.255 269.533 113.588C269.725 113.922 269.994 114.205 270.316 114.415L341.938 155.776C341.994 155.813 342.054 155.843 342.118 155.866H342.19C342.508 155.981 342.846 156.031 343.184 156.01C343.522 155.99 343.852 155.901 344.154 155.749L346.1 154.631C346.426 154.422 346.697 154.138 346.891 153.802C347.085 153.467 347.197 153.09 347.217 152.703V68.6316C347.201 68.2469 347.09 67.8721 346.892 67.5415C346.701 67.2038 346.429 66.919 346.1 66.7127L274.523 25.3525C274.181 25.1748 273.801 25.082 273.415 25.082C273.029 25.082 272.649 25.1748 272.307 25.3525L270.352 26.4696C269.797 26.8452 269.411 27.4246 269.28 28.0822C269.28 28.0822 269.28 28.1723 269.28 28.2173C269.28 28.2624 269.208 28.3344 269.208 28.3975ZM271.911 32.3525C271.911 31.6407 272.406 31.3525 273.019 31.7128L339.847 70.3253C340.18 70.5266 340.454 70.8126 340.64 71.1541C340.838 71.4847 340.949 71.8595 340.965 72.2442V139.478C340.965 140.181 340.46 140.469 339.847 140.118L273.019 101.505C272.696 101.295 272.428 101.012 272.235 100.678C272.043 100.345 271.932 99.9709 271.911 99.5865V32.3525Z" fill="#455A64"/>
<path d="M342.191 155.893C342.509 156.009 342.847 156.058 343.185 156.038C343.523 156.018 343.853 155.929 344.155 155.775L346.101 154.658C346.427 154.449 346.698 154.165 346.892 153.829C347.086 153.494 347.198 153.117 347.218 152.73V68.6316C347.203 68.2469 347.091 67.8721 346.894 67.5415L342.722 69.9469C342.924 70.2788 343.036 70.6577 343.047 71.046V155.136C343.047 155.739 342.677 156.046 342.191 155.893Z" fill="#2B50A5"/>
<path d="M269.208 28.3975V112.496C269.229 112.881 269.34 113.255 269.533 113.588C269.725 113.922 269.994 114.205 270.316 114.415L341.938 155.776C341.994 155.813 342.054 155.843 342.118 155.866H342.19C342.676 156.01 343.046 155.712 343.046 155.109V71.0461C343.028 70.661 342.918 70.2858 342.725 69.952C342.532 69.6181 342.262 69.3353 341.938 69.1271L270.316 27.7579C269.812 27.4606 269.415 27.6137 269.244 28.0822C269.244 28.0822 269.244 28.1723 269.244 28.2173C269.244 28.2624 269.208 28.3345 269.208 28.3975ZM271.911 32.3525C271.911 31.6408 272.406 31.3525 273.019 31.7128L339.847 70.3253C340.18 70.5266 340.454 70.8126 340.64 71.1542C340.838 71.4847 340.949 71.8595 340.965 72.2442V139.478C340.965 140.181 340.46 140.469 339.847 140.118L273.019 101.505C272.696 101.295 272.428 101.012 272.235 100.678C272.043 100.345 271.932 99.9709 271.911 99.5865V32.3525Z" fill="#37474F"/>
<path d="M314.801 71.1633L313.188 68.4606L316.503 66.5326C317.012 66.2997 317.574 66.2062 318.131 66.2616C318.689 66.317 319.221 66.5194 319.674 66.848C320.985 67.6974 322.076 68.8444 322.859 70.1955C323.641 71.5466 324.094 73.0635 324.179 74.6227C324.233 75.1728 324.144 75.7276 323.919 76.2328C323.695 76.7381 323.344 77.1766 322.9 77.5056L319.683 79.3704L318.143 76.7488C316.466 75.2878 315.295 73.332 314.801 71.1633Z" fill="#2B50A5"/>
<path opacity="0.15" d="M314.801 71.1633L313.188 68.4606L316.503 66.5326C317.012 66.2997 317.574 66.2062 318.131 66.2616C318.689 66.317 319.221 66.5194 319.674 66.848C320.985 67.6974 322.076 68.8444 322.859 70.1955C323.641 71.5466 324.094 73.0635 324.179 74.6227C324.233 75.1728 324.144 75.7276 323.919 76.2328C323.695 76.7381 323.344 77.1766 322.9 77.5056L319.683 79.3704L318.143 76.7488C316.466 75.2878 315.295 73.332 314.801 71.1633Z" fill="#2B50A5"/>
<path d="M316.415 68.668C313.937 67.2356 311.91 68.3977 311.91 71.2536C311.995 72.8128 312.448 74.3297 313.231 75.6808C314.013 77.0319 315.104 78.179 316.415 79.0283C318.892 80.4518 320.919 79.2986 320.919 76.4338C320.833 74.8761 320.379 73.361 319.597 72.0115C318.814 70.6621 317.724 69.5165 316.415 68.668Z" fill="#2B50A5"/>
<path d="M323.721 175.992C324.622 175.83 325.64 178.776 325.964 181.28C326.289 183.785 326.793 187.721 325.595 188.172C324.397 188.622 322.595 185.199 321.991 182.451C321.388 179.703 321.649 176.118 323.721 175.992Z" fill="#2B50A5"/>
<path opacity="0.3" d="M323.721 175.992C324.622 175.83 325.64 178.776 325.964 181.28C326.289 183.785 326.793 187.721 325.595 188.172C324.397 188.622 322.595 185.199 321.991 182.451C321.388 179.703 321.649 176.118 323.721 175.992Z" fill="#2B50A5"/>
<path d="M334.387 151.668C333.964 151.469 333.054 150.542 332.477 147.073C332.081 144.731 331.892 143.713 330.874 143.37C329.856 143.028 330.171 144.136 329.874 146.875C329.586 149.442 328.874 153.028 329.225 155.884C329.388 159.302 329.15 162.728 328.514 166.091C327.937 169.902 326.369 175.514 326.369 175.514C325.162 176.812 309.451 179.65 309.451 179.65C306.171 185.704 310.351 191.965 310.351 191.965C320.306 189.109 324.126 187.55 329.144 185.893C332.811 184.677 333.865 184.037 334.414 181.478C335.721 175.469 336.216 166.262 336.694 161.722C337.063 158.532 340.595 157.46 341.198 155.686L334.387 151.668Z" fill="#FFA8A7"/>
<path d="M310.603 177.064C309.959 177.273 309.37 177.624 308.88 178.092C308.39 178.56 308.012 179.132 307.774 179.766C307.297 181.082 305.513 191.379 311.495 192.884C312.054 192.811 314.819 191.712 318.657 190.622C321.018 189.95 323.335 189.131 325.594 188.172C323.279 187.839 321.135 177.613 323.72 175.992L310.603 177.064Z" fill="#2B50A5"/>
<path d="M283.531 122.343C282.694 121.83 283.531 119.424 283.703 116.848C283.892 114.145 284.468 113.055 283.342 113.244C282.216 113.433 281.91 114.361 281.108 116.605C280.728 117.803 280.163 118.933 279.432 119.956L274.567 117.109C273.099 118.794 271.757 119.812 271.513 122.758C271.072 127.911 271.009 129.181 270.504 133.235C270 137.289 279.189 128.731 279.189 128.731C279.558 125.532 283.36 124.442 283.991 122.668L283.531 122.397V122.343Z" fill="#FFA8A7"/>
</svg>
